<?xml version="1.0" encoding="UTF-8"?>
<svg version="1.1" xmlns="http://www.w3.org/2000/svg" width="232" height="188">
<path d="M0 0 C70.29 0 140.58 0 213 0 C213 55.77 213 111.54 213 169 C211.68 169 210.36 169 209 169 C209 170.32 209 171.64 209 173 C207.68 173 206.36 173 205 173 C205 174.32 205 175.64 205 177 C203.68 177 202.36 177 201 177 C201 178.32 201 179.64 201 181 C200.01 181 199.02 181 198 181 C198 182.32 198 183.64 198 185 C196.68 185 195.36 185 194 185 C194 185.99 194 186.98 194 188 C123.71 188 53.42 188 -19 188 C-19 132.23 -19 76.46 -19 19 C-17.68 19 -16.36 19 -15 19 C-15 17.68 -15 16.36 -15 15 C-14.01 15 -13.02 15 -12 15 C-12 14.01 -12 13.02 -12 12 C-10.68 12 -9.36 12 -8 12 C-8 10.68 -8 9.36 -8 8 C-6.68 8 -5.36 8 -4 8 C-4 6.68 -4 5.36 -4 4 C-2.68 4 -1.36 4 0 4 C0 2.68 0 1.36 0 0 Z M23 4 C23 5.32 23 6.64 23 8 C46.76 8 70.52 8 95 8 C95 9.32 95 10.64 95 12 C93.68 12 92.36 12 91 12 C91 12.99 91 13.98 91 15 C89.68 15 88.36 15 87 15 C87 16.32 87 17.64 87 19 C56.97 19 26.94 19 -4 19 C-4 68.5 -4 118 -4 169 C57.38 169 118.76 169 182 169 C182 167.68 182 166.36 182 165 C183.32 165 184.64 165 186 165 C186 163.68 186 162.36 186 161 C187.32 161 188.64 161 190 161 C190 160.01 190 159.02 190 158 C191.32 158 192.64 158 194 158 C194 156.68 194 155.36 194 154 C195.32 154 196.64 154 198 154 C198 152.68 198 151.36 198 150 C198.99 150 199.98 150 201 150 C201 104.46 201 58.92 201 12 C183.84 12 166.68 12 149 12 C149 12.99 149 13.98 149 15 C147.68 15 146.36 15 145 15 C145 14.01 145 13.02 145 12 C146.32 11.67 147.64 11.34 149 11 C149 10.01 149 9.02 149 8 C165.17 8 181.34 8 198 8 C198 6.68 198 5.36 198 4 C140.25 4 82.5 4 23 4 Z M205 15 C205 60.87 205 106.74 205 154 C203.68 154 202.36 154 201 154 C201 155.32 201 156.64 201 158 C200.01 158 199.02 158 198 158 C198 158.99 198 159.98 198 161 C196.68 161 195.36 161 194 161 C194 162.32 194 163.64 194 165 C192.68 165 191.36 165 190 165 C190 166.32 190 167.64 190 169 C192.64 169 195.28 169 198 169 C198 167.68 198 166.36 198 165 C198.99 165 199.98 165 201 165 C201 163.68 201 162.36 201 161 C202.32 161 203.64 161 205 161 C205 160.01 205 159.02 205 158 C206.32 158 207.64 158 209 158 C209 110.81 209 63.62 209 15 C207.68 15 206.36 15 205 15 Z M-12 31 C-12 32.32 -12 33.64 -12 35 C-12.99 35 -13.98 35 -15 35 C-15 41.27 -15 47.54 -15 54 C-14.01 54 -13.02 54 -12 54 C-12 54.99 -12 55.98 -12 57 C-10.68 57 -9.36 57 -8 57 C-8 48.42 -8 39.84 -8 31 C-9.32 31 -10.64 31 -12 31 Z M-15 61 C-15 63.64 -15 66.28 -15 69 C-14.01 69 -13.02 69 -12 69 C-12 70.32 -12 71.64 -12 73 C-10.68 73 -9.36 73 -8 73 C-8 70.36 -8 67.72 -8 65 C-9.32 65 -10.64 65 -12 65 C-12 63.68 -12 62.36 -12 61 C-12.99 61 -13.98 61 -15 61 Z M-15 77 C-15 79.31 -15 81.62 -15 84 C-14.01 84 -13.02 84 -12 84 C-12 85.32 -12 86.64 -12 88 C-10.68 88 -9.36 88 -8 88 C-8 85.69 -8 83.38 -8 81 C-9.32 81 -10.64 81 -12 81 C-12 79.68 -12 78.36 -12 77 C-12.99 77 -13.98 77 -15 77 Z M23 173 C23 174.32 23 175.64 23 177 C21.68 177 20.36 177 19 177 C19 178.32 19 179.64 19 181 C17.68 181 16.36 181 15 181 C15 182.32 15 183.64 15 185 C34.14 185 53.28 185 73 185 C73 183.68 73 182.36 73 181 C74.32 181 75.64 181 77 181 C77 179.68 77 178.36 77 177 C78.32 177 79.64 177 81 177 C81 175.68 81 174.36 81 173 C61.86 173 42.72 173 23 173 Z " fill="#008000" transform="translate(19,0)"/>
<path d="M0 0 C0.99150558 0.00197388 1.98301117 0.00394775 3.00456238 0.00598145 C3.76078384 0.00851929 4.51700531 0.01105713 5.29614258 0.01367188 C5.3194704 18.90205068 5.33712118 37.79042658 5.34795475 56.6788168 C5.35311796 65.44839903 5.36016112 74.21797233 5.37158203 82.98754883 C5.38152812 90.6283009 5.38799583 98.26904651 5.39023107 105.90980488 C5.39153831 109.95805573 5.39462496 114.00628807 5.40187263 118.054533 C5.40863167 121.86048057 5.41075978 125.6664019 5.40925026 129.47235489 C5.40952664 130.87324859 5.41153246 132.27414313 5.41534805 133.67503166 C5.42028341 135.57956695 5.41854057 137.48411614 5.41639709 139.38865662 C5.41731889 140.45701468 5.41824068 141.52537275 5.41919041 142.62610531 C5.29614258 145.01367188 5.29614258 145.01367188 4.29614258 146.01367188 C2.63185206 146.11191125 0.96332327 146.14340818 -0.70385742 146.13867188 C-1.61135742 146.14125 -2.51885742 146.14382812 -3.45385742 146.14648438 C-5.70385742 146.01367188 -5.70385742 146.01367188 -6.70385742 145.01367188 C-8.71950454 144.68809011 -10.74185137 144.40364741 -12.76635742 144.13867188 C-18.18142704 143.3439081 -22.68798853 142.16332997 -27.70385742 140.01367188 C-28.69385742 139.62179688 -29.68385742 139.22992188 -30.70385742 138.82617188 C-31.69385742 138.42398438 -31.69385742 138.42398438 -32.70385742 138.01367188 C-32.70385742 137.35367188 -32.70385742 136.69367188 -32.70385742 136.01367188 C-34.02385742 136.01367188 -35.34385742 136.01367188 -36.70385742 136.01367188 C-36.70385742 135.35367188 -36.70385742 134.69367188 -36.70385742 134.01367188 C-37.26073242 133.91054687 -37.81760742 133.80742187 -38.39135742 133.70117188 C-41.18076753 132.87188779 -43.31776382 131.67068132 -45.70385742 130.01367188 C-45.70385742 129.35367188 -45.70385742 128.69367188 -45.70385742 128.01367188 C-47.18885742 127.51867187 -47.18885742 127.51867187 -48.70385742 127.01367188 C-48.70385742 126.35367188 -48.70385742 125.69367188 -48.70385742 125.01367188 C-49.36385742 125.01367188 -50.02385742 125.01367188 -50.70385742 125.01367188 C-54.06295052 121.99910115 -56.63881506 119.03507017 -58.70385742 115.01367188 C-58.70385742 114.35367188 -58.70385742 113.69367188 -58.70385742 113.01367188 C-59.69385742 112.68367188 -60.68385742 112.35367188 -61.70385742 112.01367188 C-62.19885742 109.04367188 -62.19885742 109.04367188 -62.70385742 106.01367188 C-63.36385742 106.01367188 -64.02385742 106.01367188 -64.70385742 106.01367188 C-69.22306395 97.62085975 -71.24148178 90.55152623 -70.70385742 81.01367188 C-71.36385742 81.01367188 -72.02385742 81.01367188 -72.70385742 81.01367188 C-72.73070421 78.36777174 -72.75062099 75.72214092 -72.76635742 73.07617188 C-72.77473633 72.32142578 -72.78311523 71.56667969 -72.79174805 70.7890625 C-72.80038183 68.86372874 -72.75610075 66.93831607 -72.70385742 65.01367188 C-72.20885742 64.51867187 -72.20885742 64.51867187 -71.70385742 64.01367188 C-71.42800176 62.07968379 -71.18398327 60.14113279 -70.95385742 58.20117188 C-69.95416994 51.24949891 -67.68896171 45.33707981 -64.70385742 39.01367188 C-64.04385742 39.01367188 -63.38385742 39.01367188 -62.70385742 39.01367188 C-62.20885742 36.04367188 -62.20885742 36.04367188 -61.70385742 33.01367188 C-60.71385742 33.01367188 -59.72385742 33.01367188 -58.70385742 33.01367188 C-58.70385742 32.02367187 -58.70385742 31.03367187 -58.70385742 30.01367188 C-58.04385742 30.01367188 -57.38385742 30.01367188 -56.70385742 30.01367188 C-56.48600586 29.30855469 -56.2681543 28.6034375 -56.04370117 27.87695312 C-54.3839117 24.32993948 -52.02899404 21.89897478 -49.26635742 19.20117188 C-48.77586914 18.69908203 -48.28538086 18.19699219 -47.7800293 17.6796875 C-44.08408701 14.01367188 -44.08408701 14.01367188 -40.70385742 14.01367188 C-40.37385742 13.02367187 -40.04385742 12.03367187 -39.70385742 11.01367188 C-36.97338867 9.40820312 -36.97338867 9.40820312 -33.51635742 7.82617188 C-32.38842773 7.29636719 -31.26049805 6.7665625 -30.09838867 6.22070312 C-26.70068856 5.01254509 -24.27371321 4.76990327 -20.70385742 5.01367188 C-20.70385742 4.35367187 -20.70385742 3.69367187 -20.70385742 3.01367188 C-19.05385742 3.01367188 -17.40385742 3.01367188 -15.70385742 3.01367188 C-15.70385742 2.35367187 -15.70385742 1.69367187 -15.70385742 1.01367188 C-14.26728817 0.83916455 -12.82949907 0.67470795 -11.39135742 0.51367188 C-10.59084961 0.42085937 -9.7903418 0.32804687 -8.96557617 0.23242188 C-5.96009238 0.03085649 -3.01100932 -0.00777285 0 0 Z M-5.70385742 8.01367188 C-5.70385742 8.67367188 -5.70385742 9.33367188 -5.70385742 10.01367188 C-6.40510742 10.03429687 -7.10635742 10.05492187 -7.82885742 10.07617188 C-11.53635156 11.28513736 -12.90956509 13.22092215 -15.27416992 16.22460938 C-16.70385742 18.01367188 -16.70385742 18.01367188 -18.38354492 19.55273438 C-20.03910626 21.05643553 -20.03910626 21.05643553 -19.70385742 24.01367188 C-20.36385742 24.01367188 -21.02385742 24.01367188 -21.70385742 24.01367188 C-21.70385742 24.67367187 -21.70385742 25.33367188 -21.70385742 26.01367188 C-22.36385742 26.01367188 -23.02385742 26.01367188 -23.70385742 26.01367188 C-24.03385742 27.99367188 -24.36385742 29.97367188 -24.70385742 32.01367188 C-25.36385742 32.01367188 -26.02385742 32.01367188 -26.70385742 32.01367188 C-27.03385742 34.32367188 -27.36385742 36.63367188 -27.70385742 39.01367188 C-19.12385742 39.01367188 -10.54385742 39.01367188 -1.70385742 39.01367188 C-1.70385742 28.45367187 -1.70385742 17.89367187 -1.70385742 7.01367188 C-3.07278982 6.96096725 -3.07278982 6.96096725 -5.70385742 8.01367188 Z M-24.70385742 11.01367188 C-24.70385742 11.67367187 -24.70385742 12.33367188 -24.70385742 13.01367188 C-25.69385742 13.01367188 -26.68385742 13.01367188 -27.70385742 13.01367188 C-27.70385742 13.67367187 -27.70385742 14.33367188 -27.70385742 15.01367188 C-28.59073242 15.07554688 -29.47760742 15.13742188 -30.39135742 15.20117188 C-34.46848107 16.20122107 -35.89728947 17.97954436 -38.70385742 21.01367188 C-39.69385742 21.34367187 -40.68385742 21.67367187 -41.70385742 22.01367188 C-41.70385742 22.67367187 -41.70385742 23.33367188 -41.70385742 24.01367188 C-42.36385742 24.01367188 -43.02385742 24.01367188 -43.70385742 24.01367188 C-43.70385742 24.67367187 -43.70385742 25.33367188 -43.70385742 26.01367188 C-44.32260742 26.26117188 -44.94135742 26.50867188 -45.57885742 26.76367188 C-48.05454429 28.21995827 -48.65510745 29.39179694 -49.70385742 32.01367188 C-50.36385742 32.01367188 -51.02385742 32.01367188 -51.70385742 32.01367188 C-54.01977764 35.23481344 -54.01977764 35.23481344 -54.70385742 39.01367188 C-48.10385742 39.01367188 -41.50385742 39.01367188 -34.70385742 39.01367188 C-34.70385742 37.69367187 -34.70385742 36.37367187 -34.70385742 35.01367188 C-34.04385742 35.01367188 -33.38385742 35.01367188 -32.70385742 35.01367188 C-32.37385742 32.37367187 -32.04385742 29.73367187 -31.70385742 27.01367188 C-31.04385742 27.01367188 -30.38385742 27.01367188 -29.70385742 27.01367188 C-29.43831055 26.459375 -29.17276367 25.90507813 -28.89916992 25.33398438 C-28.5459668 24.60953125 -28.19276367 23.88507812 -27.82885742 23.13867188 C-27.48081055 22.419375 -27.13276367 21.70007812 -26.77416992 20.95898438 C-25.70385742 19.01367188 -25.70385742 19.01367188 -23.70385742 17.01367188 C-23.70385742 16.02367187 -23.70385742 15.03367187 -23.70385742 14.01367188 C-22.71385742 13.68367188 -21.72385742 13.35367188 -20.70385742 13.01367188 C-20.70385742 12.35367188 -20.70385742 11.69367187 -20.70385742 11.01367188 C-20.04385742 10.68367188 -19.38385742 10.35367188 -18.70385742 10.01367188 C-21.75656205 9.85555799 -21.75656205 9.85555799 -24.70385742 11.01367188 Z M-60.70385742 48.01367188 C-62.85893153 52.9565024 -64.12158275 57.58324267 -63.70385742 63.01367188 C-64.36385742 63.01367188 -65.02385742 63.01367188 -65.70385742 63.01367188 C-65.70385742 64.99367188 -65.70385742 66.97367188 -65.70385742 69.01367188 C-62.29732236 69.78040876 -59.14641105 70.14183888 -55.65698242 70.14648438 C-54.73014648 70.14777344 -53.80331055 70.1490625 -52.84838867 70.15039062 C-51.89319336 70.14652344 -50.93799805 70.14265625 -49.95385742 70.13867188 C-48.49786133 70.14447266 -48.49786133 70.14447266 -47.01245117 70.15039062 C-46.09077148 70.14910156 -45.1690918 70.1478125 -44.21948242 70.14648438 C-43.37675781 70.14535645 -42.5340332 70.14422852 -41.66577148 70.14306641 C-39.70038224 70.22987637 -39.70038224 70.22987637 -38.70385742 69.01367188 C-38.54645137 67.30803409 -38.4529235 65.59639943 -38.38745117 63.88476562 C-38.34555664 62.85029297 -38.30366211 61.81582031 -38.26049805 60.75 C-38.22118164 59.66138672 -38.18186523 58.57277344 -38.14135742 57.45117188 C-38.09817383 56.35869141 -38.05499023 55.26621094 -38.01049805 54.140625 C-37.90403674 51.43177624 -37.80202226 48.72283195 -37.70385742 46.01367188 C-41.16212084 45.95578181 -44.62026036 45.92011367 -48.07885742 45.88867188 C-49.06370117 45.87191406 -50.04854492 45.85515625 -51.06323242 45.83789062 C-52.00424805 45.83144531 -52.94526367 45.825 -53.91479492 45.81835938 C-54.78410645 45.80788574 -55.65341797 45.79741211 -56.54907227 45.78662109 C-58.91731681 45.80772079 -58.91731681 45.80772079 -60.70385742 48.01367188 Z M-30.70385742 46.01367188 C-30.70385742 49.64367187 -30.70385742 53.27367187 -30.70385742 57.01367188 C-31.36385742 57.01367188 -32.02385742 57.01367188 -32.70385742 57.01367188 C-32.73072295 58.99276585 -32.75019118 60.97196158 -32.76635742 62.95117188 C-32.77795898 64.05332031 -32.78956055 65.15546875 -32.80151367 66.29101562 C-33.01648314 68.92814821 -33.01648314 68.92814821 -31.70385742 70.01367188 C-29.48530478 70.10150729 -27.26397246 70.12061796 -25.04370117 70.11132812 C-24.37923477 70.10991318 -23.71476837 70.10849823 -23.03016663 70.10704041 C-20.90051843 70.10142706 -18.77097403 70.08887241 -16.64135742 70.07617188 C-15.20060373 70.07115859 -13.75984839 70.06659539 -12.3190918 70.0625 C-8.78060784 70.05230264 -5.24234929 70.03273018 -1.70385742 70.01367188 C-1.70385742 62.09367187 -1.70385742 54.17367187 -1.70385742 46.01367188 C-11.27385742 46.01367188 -20.84385742 46.01367188 -30.70385742 46.01367188 Z M-65.70385742 76.01367188 C-65.70385742 77.99367188 -65.70385742 79.97367187 -65.70385742 82.01367188 C-65.04385742 82.01367188 -64.38385742 82.01367188 -63.70385742 82.01367188 C-63.37385742 85.64367187 -63.04385742 89.27367188 -62.70385742 93.01367188 C-62.04385742 93.01367188 -61.38385742 93.01367188 -60.70385742 93.01367188 C-60.72448242 93.81804687 -60.74510742 94.62242188 -60.76635742 95.45117188 C-61.00019363 97.94722073 -61.00019363 97.94722073 -59.70385742 99.01367188 C-58.07128985 99.17081842 -56.43250404 99.26452601 -54.79370117 99.33007812 C-53.30966797 99.39291992 -53.30966797 99.39291992 -51.7956543 99.45703125 C-50.75473633 99.49634766 -49.71381836 99.53566406 -48.64135742 99.57617188 C-47.59657227 99.61935547 -46.55178711 99.66253906 -45.4753418 99.70703125 C-42.88498858 99.81348412 -40.29453557 99.91549947 -37.70385742 100.01367188 C-37.84201271 96.20085243 -37.99066304 92.38851471 -38.14135742 88.57617188 C-38.18067383 87.48755859 -38.21999023 86.39894531 -38.26049805 85.27734375 C-38.30239258 84.24287109 -38.34428711 83.20839844 -38.38745117 82.14257812 C-38.42410889 81.18424072 -38.4607666 80.22590332 -38.49853516 79.23852539 C-38.46220167 77.04228262 -38.46220167 77.04228262 -39.70385742 76.01367188 C-41.6305325 75.9261898 -43.56037603 75.90669853 -45.48901367 75.91601562 C-46.65883789 75.91923828 -47.82866211 75.92246094 -49.03393555 75.92578125 C-50.26563477 75.93416016 -51.49733398 75.94253906 -52.76635742 75.95117188 C-54.00192383 75.95568359 -55.23749023 75.96019531 -56.51049805 75.96484375 C-59.57499859 75.9766758 -62.63940464 75.99316014 -65.70385742 76.01367188 Z M-32.70385742 76.01367188 C-32.70385742 79.97367187 -32.70385742 83.93367188 -32.70385742 88.01367188 C-32.37385742 88.34367187 -32.04385742 88.67367187 -31.70385742 89.01367188 C-31.37385742 92.64367187 -31.04385742 96.27367188 -30.70385742 100.01367188 C-21.13385742 99.68367188 -11.56385742 99.35367188 -1.70385742 99.01367188 C-1.70385742 91.42367187 -1.70385742 83.83367187 -1.70385742 76.01367188 C-11.93385742 76.01367188 -22.16385742 76.01367188 -32.70385742 76.01367188 Z M-54.70385742 106.01367188 C-54.70385742 107.00367188 -54.70385742 107.99367188 -54.70385742 109.01367188 C-54.04385742 109.01367188 -53.38385742 109.01367188 -52.70385742 109.01367188 C-52.47698242 109.71492188 -52.25010742 110.41617188 -52.01635742 111.13867188 C-50.36544454 114.75495723 -48.41297392 117.10137164 -45.70385742 120.01367188 C-45.04385742 120.01367188 -44.38385742 120.01367188 -43.70385742 120.01367188 C-43.70385742 120.67367187 -43.70385742 121.33367187 -43.70385742 122.01367188 C-42.77573242 122.42617187 -41.84760742 122.83867187 -40.89135742 123.26367188 C-37.72852891 125.00012674 -36.72326633 126.16814115 -34.70385742 129.01367188 C-32.04481959 130.67557052 -30.90019181 131.01367188 -27.70385742 131.01367188 C-27.70385742 131.67367187 -27.70385742 132.33367187 -27.70385742 133.01367188 C-25.06385742 134.00367188 -22.42385742 134.99367187 -19.70385742 136.01367188 C-19.37385742 135.35367188 -19.04385742 134.69367188 -18.70385742 134.01367188 C-19.30198242 133.62179688 -19.90010742 133.22992188 -20.51635742 132.82617188 C-24.025509 129.91858914 -25.7529373 126.06558291 -27.70385742 122.01367188 C-28.36385742 122.01367188 -29.02385742 122.01367188 -29.70385742 122.01367188 C-29.82760742 121.49804688 -29.95135742 120.98242188 -30.07885742 120.45117188 C-30.89027371 117.28664837 -31.79844872 114.15242203 -32.70385742 111.01367188 C-33.36385742 111.01367188 -34.02385742 111.01367188 -34.70385742 111.01367188 C-34.70385742 109.36367187 -34.70385742 107.71367187 -34.70385742 106.01367188 C-41.30385742 106.01367188 -47.90385742 106.01367188 -54.70385742 106.01367188 Z M-27.70385742 106.01367188 C-26.83277799 112.57393028 -26.83277799 112.57393028 -24.14135742 117.95117188 C-23.68631836 118.72332031 -23.2312793 119.49546875 -22.76245117 120.29101562 C-22.23844727 121.14373047 -22.23844727 121.14373047 -21.70385742 122.01367188 C-21.04385742 122.01367188 -20.38385742 122.01367188 -19.70385742 122.01367188 C-19.37385742 123.33367187 -19.04385742 124.65367187 -18.70385742 126.01367188 C-18.04385742 126.01367188 -17.38385742 126.01367188 -16.70385742 126.01367188 C-16.45635742 126.59117187 -16.20885742 127.16867188 -15.95385742 127.76367188 C-14.52085754 130.34307167 -12.91961066 132.07488779 -10.70385742 134.01367188 C-10.04385742 134.01367188 -9.38385742 134.01367188 -8.70385742 134.01367188 C-8.70385742 134.67367187 -8.70385742 135.33367187 -8.70385742 136.01367188 C-7.73448242 136.13742188 -6.76510742 136.26117188 -5.76635742 136.38867188 C-4.25041992 136.69804687 -4.25041992 136.69804687 -2.70385742 137.01367188 C-2.37385742 137.67367187 -2.04385742 138.33367187 -1.70385742 139.01367188 C-1.70385742 128.12367188 -1.70385742 117.23367187 -1.70385742 106.01367188 C-10.28385742 106.01367188 -18.86385742 106.01367188 -27.70385742 106.01367188 Z " fill="#008000" transform="translate(104.703857421875,21.986328125)"/>
<path d="M0 0 C3.96 0 7.92 0 12 0 C12 0.66 12 1.32 12 2 C12.66 2 13.32 2 14 2 C15.625 3.375 15.625 3.375 17 5 C17 5.66 17 6.32 17 7 C17.66 7 18.32 7 19 7 C19 11.62 19 16.24 19 21 C18.34 21 17.68 21 17 21 C17 21.66 17 22.32 17 23 C16.34 23 15.68 23 15 23 C14.731875 23.598125 14.46375 24.19625 14.1875 24.8125 C12.92331195 27.14126747 12.1859724 28.49243283 10 30 C6.3125 30.1875 6.3125 30.1875 3 30 C3 29.34 3 28.68 3 28 C1.68 28 0.36 28 -1 28 C-1 27.34 -1 26.68 -1 26 C-1.61875 25.9175 -2.2375 25.835 -2.875 25.75 C-5 25 -5 25 -6.11328125 23.39453125 C-7.30562368 20.17468142 -7.30168889 17.36462323 -7.3125 13.9375 C-7.32925781 12.70902344 -7.34601563 11.48054687 -7.36328125 10.21484375 C-7 7 -7 7 -5.60546875 5.06640625 C-4 4 -4 4 -2 4 C-1.34 2.68 -0.68 1.36 0 0 Z M1.125 10.125 C-0.52854531 12.88090884 -0.39365568 14.85075452 0 18 C1 20 1 20 3 21 C6.08391002 21.33361919 6.08391002 21.33361919 9 21 C10.25173779 19.96966611 10.25173779 19.96966611 10.1328125 17.75 C10.13023437 16.8425 10.12765625 15.935 10.125 15 C10.12757813 14.0925 10.13015625 13.185 10.1328125 12.25 C10.25173779 10.03033389 10.25173779 10.03033389 9 9 C4.87204872 8.62418498 4.87204872 8.62418498 1.125 10.125 Z " fill="#008000" transform="translate(126,135)"/>
<path d="M0 0 C3.54604694 1.63390477 5.37632807 3.44577656 7 7 C7.55172529 11.72833732 7.41375779 16.26477192 7 21 C6.34 21 5.68 21 5 21 C5 21.66 5 22.32 5 23 C3.34997172 24.35386936 1.6825613 25.68678142 0 27 C-0.33 27.66 -0.66 28.32 -1 29 C-3.97 29 -6.94 29 -10 29 C-10 28.34 -10 27.68 -10 27 C-11.98 26.67 -13.96 26.34 -16 26 C-16 25.34 -16 24.68 -16 24 C-16.66 24 -17.32 24 -18 24 C-19.17245774 20.48262679 -19.13266285 17.6424868 -19.125 13.9375 C-19.12757813 12.68839844 -19.13015625 11.43929687 -19.1328125 10.15234375 C-19 7 -19 7 -18 5 C-17.34 5 -16.68 5 -16 5 C-16 4.34 -16 3.68 -16 3 C-11.45075661 -1.40809742 -5.93233979 -1.02095026 0 0 Z M-10.875 10.125 C-12.52854531 12.88090884 -12.39365568 14.85075452 -12 18 C-11 20 -11 20 -9 21 C-5.87450983 21.25048636 -5.87450983 21.25048636 -3 21 C-1.8101694 18.6203388 -1.86650034 17.08514265 -1.875 14.4375 C-1.87242187 13.63183594 -1.86984375 12.82617188 -1.8671875 11.99609375 C-1.77988609 10.00057979 -1.77988609 10.00057979 -3 9 C-7.12795128 8.62418498 -7.12795128 8.62418498 -10.875 10.125 Z " fill="#008000" transform="translate(184,28)"/>
<path d="M0 0 C9.76804442 -1.01048735 9.76804442 -1.01048735 14.35546875 1.06640625 C17.8096122 3.9080624 18.87680191 6.04521483 19.453125 10.51171875 C19.56845537 19.86308927 19.56845537 19.86308927 18 23 C17.34 23 16.68 23 16 23 C16 23.66 16 24.32 16 25 C14.625 26.625 14.625 26.625 13 28 C12.34 28 11.68 28 11 28 C11 28.66 11 29.32 11 30 C8.36 30 5.72 30 3 30 C3 29.34 3 28.68 3 28 C2.4225 27.87625 1.845 27.7525 1.25 27.625 C-1.02335767 26.99351176 -2.9253529 26.11141809 -5 25 C-5 23.68 -5 22.36 -5 21 C-5.66 21 -6.32 21 -7 21 C-7.86083769 8.10656441 -7.86083769 8.10656441 -4.625 4.1875 C-2 2 -2 2 0 2 C0 1.34 0 0.68 0 0 Z M1.125 10.125 C-0.52854531 12.88090884 -0.39365568 14.85075452 0 18 C1 20 1 20 3 21 C6.04211431 21.4167552 6.04211431 21.4167552 9 21 C11.15705515 19.2435669 11.15705515 19.2435669 11.265625 17.125 C11.26046875 16.42375 11.2553125 15.7225 11.25 15 C11.25515625 14.29875 11.2603125 13.5975 11.265625 12.875 C11.15705515 10.7564331 11.15705515 10.7564331 9 9 C5.89652746 8.66984335 3.84218824 8.49468706 1.125 10.125 Z " fill="#008000" transform="translate(173,135)"/>
<path d="M0 0 C3.55387632 1.63751229 5.33062401 3.46518036 7 7 C7.95724002 11.85940082 8.05102362 16.15135511 7 21 C5.02495226 23.7610869 2.84311095 25.22731692 0 27 C-0.33 27.66 -0.66 28.32 -1 29 C-6.8217654 29.30640871 -10.78377992 28.96608593 -16 26 C-19.13916602 21.9649699 -19.35608884 18.84641533 -19.25 13.8125 C-19.23453125 12.58144531 -19.2190625 11.35039063 -19.203125 10.08203125 C-19 7 -19 7 -18 5 C-17.34 5 -16.68 5 -16 5 C-16 4.34 -16 3.68 -16 3 C-11.45075661 -1.40809742 -5.93233979 -1.02095026 0 0 Z M-10.875 10.125 C-12.4682099 12.78034983 -12.20214032 14.96789518 -12 18 C-11.01 18.33 -10.02 18.66 -9 19 C-9 19.66 -9 20.32 -9 21 C-7.02 21 -5.04 21 -3 21 C-1.8101694 18.6203388 -1.86650034 17.08514265 -1.875 14.4375 C-1.87242187 13.63183594 -1.86984375 12.82617188 -1.8671875 11.99609375 C-1.77988609 10.00057979 -1.77988609 10.00057979 -3 9 C-7.12795128 8.62418498 -7.12795128 8.62418498 -10.875 10.125 Z " fill="#008000" transform="translate(138,28)"/>
<path d="M0 0 C4.99412189 0.13822479 8.57396855 0.53497773 12.15625 4.1875 C14.76645741 9.40791482 14.46576698 15.91156265 13.3125 21.5 C10.7477834 24.65494111 9.17416674 26.21277775 5.3125 27.5 C5.3125 28.16 5.3125 28.82 5.3125 29.5 C2.6725 29.5 0.0325 29.5 -2.6875 29.5 C-2.6875 28.84 -2.6875 28.18 -2.6875 27.5 C-3.63625 27.37625 -4.585 27.2525 -5.5625 27.125 C-8.6875 26.5 -8.6875 26.5 -10.6875 24.5 C-10.6875 23.51 -10.6875 22.52 -10.6875 21.5 C-11.3475 21.5 -12.0075 21.5 -12.6875 21.5 C-13.45195887 8.94588662 -13.45195887 8.94588662 -11.64453125 5.52734375 C-10.3125 4.25 -10.3125 4.25 -7.6875 2.5 C-5.05604609 -0.13145391 -3.67152966 0.11056049 0 0 Z M-4.5625 10.625 C-6.21604531 13.38090884 -6.08115568 15.35075452 -5.6875 18.5 C-4.6875 20.5 -4.6875 20.5 -2.6875 21.5 C0.35461431 21.9167552 0.35461431 21.9167552 3.3125 21.5 C5.46955515 19.7435669 5.46955515 19.7435669 5.578125 17.625 C5.57296875 16.92375 5.5678125 16.2225 5.5625 15.5 C5.56765625 14.79875 5.5728125 14.0975 5.578125 13.375 C5.46955515 11.2564331 5.46955515 11.2564331 3.3125 9.5 C0.20902746 9.16984335 -1.84531176 8.99468706 -4.5625 10.625 Z " fill="#008000" transform="translate(178.6875,98.5)"/>
<path d="M0 0 C3.96 0 7.92 0 12 0 C12 0.66 12 1.32 12 2 C12.66 2 13.32 2 14 2 C15.625 3.375 15.625 3.375 17 5 C17 5.66 17 6.32 17 7 C17.66 7 18.32 7 19 7 C19 11.62 19 16.24 19 21 C18.34 21 17.68 21 17 21 C17 21.66 17 22.32 17 23 C16.34 23 15.68 23 15 23 C14.67 23.99 14.34 24.98 14 26 C12.9375 27.6875 12.9375 27.6875 11 29 C5.19330368 29.58066963 1.18130029 28.94622958 -4 26 C-7.09045094 22.00186417 -7.40675635 18.86074646 -7.375 13.875 C-7.38273437 12.65554687 -7.39046875 11.43609375 -7.3984375 10.1796875 C-7 7 -7 7 -5.6015625 5.0703125 C-4 4 -4 4 -2 4 C-1.34 2.68 -0.68 1.36 0 0 Z M1.75 9.625 C-0.44576634 12.60496861 -0.32899743 14.38102827 0 18 C0.99 18.33 1.98 18.66 3 19 C3 19.66 3 20.32 3 21 C4.98 21 6.96 21 9 21 C9 20.34 9 19.68 9 19 C9.66 19 10.32 19 11 19 C11.47557746 13.73817054 11.47557746 13.73817054 9.75 9 C6.64031472 7.22303698 4.55395116 7.59992416 1.75 9.625 Z " fill="#008000" transform="translate(126,99)"/>
<path d="M0 0 C11.94385642 -0.78693051 11.94385642 -0.78693051 16.1875 2.375 C16.785625 3.24125 17.38375 4.1075 18 5 C18.66 5.66 19.32 6.32 20 7 C20.1953125 10.0390625 20.1953125 10.0390625 20.125 13.625 C20.10695312 14.81351563 20.08890625 16.00203125 20.0703125 17.2265625 C20.04710937 18.14179687 20.02390625 19.05703125 20 20 C19.34 20 18.68 20 18 20 C18 20.66 18 21.32 18 22 C17.34 22 16.68 22 16 22 C15.71125 22.61875 15.4225 23.2375 15.125 23.875 C14 26 14 26 12 28 C5.89785173 28.63125672 0.97976678 27.78742825 -4 24 C-6.46446378 20.53060924 -6.29938589 17.09467183 -6.3125 12.9375 C-6.32925781 11.70902344 -6.34601563 10.48054688 -6.36328125 9.21484375 C-6 6 -6 6 -4.60546875 4.06640625 C-3 3 -3 3 -1 3 C-0.67 2.01 -0.34 1.02 0 0 Z M2.125 9.125 C0.5317901 11.78034983 0.79785968 13.96789518 1 17 C1.99 17.33 2.98 17.66 4 18 C4 18.66 4 19.32 4 20 C5.98 20 7.96 20 10 20 C10 19.34 10 18.68 10 18 C10.66 18 11.32 18 12 18 C12.04125 16.72125 12.0825 15.4425 12.125 14.125 C12.15980469 13.04605469 12.15980469 13.04605469 12.1953125 11.9453125 C12.18331689 9.76136355 12.18331689 9.76136355 10 8 C6.89652746 7.66984335 4.84218824 7.49468706 2.125 9.125 Z " fill="#008000" transform="translate(125,65)"/>
<path d="M0 0 C3.63 0 7.26 0 11 0 C11 0.66 11 1.32 11 2 C11.66 2 12.32 2 13 2 C13 9.92 13 17.84 13 26 C12.34 26 11.68 26 11 26 C11 26.66 11 27.32 11 28 C9.35 28 7.7 28 6 28 C5.67 20.74 5.34 13.48 5 6 C3.35 5.67 1.7 5.34 0 5 C0 3.35 0 1.7 0 0 Z " fill="#008000" transform="translate(148,137)"/>
<path d="M0 0 C1.79133978 -0.05391993 3.58313899 -0.09275571 5.375 -0.125 C6.37273437 -0.14820312 7.37046875 -0.17140625 8.3984375 -0.1953125 C11 0 11 0 13 2 C13.22705078 4.43017578 13.22705078 4.43017578 13.1953125 7.4453125 C13.18564453 9.05986328 13.18564453 9.05986328 13.17578125 10.70703125 C13.15902344 11.83496094 13.14226562 12.96289062 13.125 14.125 C13.11597656 15.26066406 13.10695312 16.39632812 13.09765625 17.56640625 C13.07403098 20.37781299 13.04109013 23.18880298 13 26 C10.69 26.33 8.38 26.66 6 27 C6 20.07 6 13.14 6 6 C4.35 6 2.7 6 1 6 C0 5 0 5 -0.0625 2.4375 C-0.041875 1.633125 -0.02125 0.82875 0 0 Z " fill="#008000" transform="translate(170,66)"/>
<path d="M0 0 C1.95803507 -0.05389087 3.91648909 -0.09274217 5.875 -0.125 C7.51082031 -0.15980469 7.51082031 -0.15980469 9.1796875 -0.1953125 C12 0 12 0 14 2 C14.22705078 4.33837891 14.22705078 4.33837891 14.1953125 7.2265625 C14.18564453 8.7734375 14.18564453 8.7734375 14.17578125 10.3515625 C14.15902344 11.43179688 14.14226562 12.51203125 14.125 13.625 C14.11597656 14.71296875 14.10695312 15.8009375 14.09765625 16.921875 C14.07403409 19.61480152 14.04109556 22.30729255 14 25 C13.34 25 12.68 25 12 25 C12 25.66 12 26.32 12 27 C10.35 27 8.7 27 7 27 C7 19.74 7 12.48 7 5 C5.02 5 3.04 5 1 5 C0.67 3.35 0.34 1.7 0 0 Z " fill="#008000" transform="translate(147,30)"/>
<path d="M0 0 C3.63 0 7.26 0 11 0 C11 0.66 11 1.32 11 2 C11.66 2 12.32 2 13 2 C13 9.92 13 17.84 13 26 C10.69 26.33 8.38 26.66 6 27 C5.67 20.07 5.34 13.14 5 6 C3.35 5.67 1.7 5.34 0 5 C0 3.35 0 1.7 0 0 Z " fill="#008000" transform="translate(148,66)"/>
<path d="M0 0 C3.63 0 7.26 0 11 0 C11 0.66 11 1.32 11 2 C11.66 2 12.32 2 13 2 C13 9.59 13 17.18 13 25 C12.34 25 11.68 25 11 25 C11 25.66 11 26.32 11 27 C9.35 27 7.7 27 6 27 C6 19.74 6 12.48 6 5 C4.02 5 2.04 5 0 5 C0 3.35 0 1.7 0 0 Z " fill="#008000" transform="translate(148,101)"/>
<path d="M0 0 C4.95 0 9.9 0 15 0 C15 1.32 15 2.64 15 4 C13.68 4 12.36 4 11 4 C11 4.99 11 5.98 11 7 C10.01 7 9.02 7 8 7 C8 8.32 8 9.64 8 11 C2.72 11 -2.56 11 -8 11 C-8 9.68 -8 8.36 -8 7 C-6.68 7 -5.36 7 -4 7 C-4 6.01 -4 5.02 -4 4 C-2.68 4 -1.36 4 0 4 C0 2.68 0 1.36 0 0 Z " fill="#008000" transform="translate(145,8)"/>
<path d="M0 0 C4.95 0 9.9 0 15 0 C15 1.32 15 2.64 15 4 C13.68 4 12.36 4 11 4 C11 4.99 11 5.98 11 7 C9.68 7 8.36 7 7 7 C7 8.32 7 9.64 7 11 C2.05 11 -2.9 11 -8 11 C-8 9.68 -8 8.36 -8 7 C-6.68 7 -5.36 7 -4 7 C-4 6.01 -4 5.02 -4 4 C-2.68 4 -1.36 4 0 4 C0 2.68 0 1.36 0 0 Z " fill="#008000" transform="translate(122,8)"/>
<path d="M0 0 C1.32 0 2.64 0 4 0 C4 1.32 4 2.64 4 4 C2.68 4 1.36 4 0 4 C0 2.68 0 1.36 0 0 Z " fill="#008000" transform="translate(160,15)"/>
</svg>
