<?xml version="1.0" encoding="UTF-8"?>
<svg version="1.1" xmlns="http://www.w3.org/2000/svg" width="666" height="88">
<path d="M0 0 C212.19 0 424.38 0 643 0 C643 1.32 643 2.64 643 4 C644.32 4 645.64 4 647 4 C647 24.13 647 44.26 647 65 C645.68 65 644.36 65 643 65 C643 66.32 643 67.64 643 69 C641.68 69 640.36 69 639 69 C639 70.32 639 71.64 639 73 C637.68 73 636.36 73 635 73 C635 74.32 635 75.64 635 77 C633.68 77 632.36 77 631 77 C631 78.32 631 79.64 631 81 C629.68 81 628.36 81 627 81 C627 81.99 627 82.98 627 84 C625.68 84 624.36 84 623 84 C623 85.32 623 86.64 623 88 C411.14 88 199.28 88 -19 88 C-19 65.23 -19 42.46 -19 19 C-18.01 19 -17.02 19 -16 19 C-16 17.68 -16 16.36 -16 15 C-14.68 15 -13.36 15 -12 15 C-12 13.68 -12 12.36 -12 11 C-10.68 11 -9.36 11 -8 11 C-8 9.68 -8 8.36 -8 7 C-6.68 7 -5.36 7 -4 7 C-4 6.01 -4 5.02 -4 4 C-2.68 4 -1.36 4 0 4 C0 2.68 0 1.36 0 0 Z M0 11 C0 12.32 0 13.64 0 15 C-1.32 15 -2.64 15 -4 15 C-4 16.32 -4 17.64 -4 19 C-5.32 19 -6.64 19 -8 19 C-8 26.59 -8 34.18 -8 42 C-6.68 42 -5.36 42 -4 42 C-4 43.32 -4 44.64 -4 46 C-2.68 46 -1.36 46 0 46 C0 56.23 0 66.46 0 77 C179.19 77 358.38 77 543 77 C543 75.68 543 74.36 543 73 C545.31 73 547.62 73 550 73 C550 74.32 550 75.64 550 77 C548.68 77 547.36 77 546 77 C546 78.32 546 79.64 546 81 C548.64 81 551.28 81 554 81 C554 79.68 554 78.36 554 77 C555.32 77 556.64 77 558 77 C558 75.68 558 74.36 558 73 C560.64 73 563.28 73 566 73 C566 74.32 566 75.64 566 77 C564.68 77 563.36 77 562 77 C562 78.32 562 79.64 562 81 C564.64 81 567.28 81 570 81 C570 79.68 570 78.36 570 77 C570.99 77 571.98 77 573 77 C573 75.68 573 74.36 573 73 C575.64 73 578.28 73 581 73 C581 74.32 581 75.64 581 77 C579.68 77 578.36 77 577 77 C577 78.32 577 79.64 577 81 C579.64 81 582.28 81 585 81 C585 79.68 585 78.36 585 77 C586.32 77 587.64 77 589 77 C589 75.68 589 74.36 589 73 C601.54 73 614.08 73 627 73 C627 71.68 627 70.36 627 69 C628.32 69 629.64 69 631 69 C631 67.68 631 66.36 631 65 C632.32 65 633.64 65 635 65 C635 63.68 635 62.36 635 61 C636.32 61 637.64 61 639 61 C639 48.46 639 35.92 639 23 C637.68 23 636.36 23 635 23 C635 21.68 635 20.36 635 19 C633.68 19 632.36 19 631 19 C631 17.68 631 16.36 631 15 C629.68 15 628.36 15 627 15 C627 13.68 627 12.36 627 11 C420.09 11 213.18 11 0 11 Z " fill="#008000" transform="translate(19,0)"/>
</svg>
