<?xml version="1.0" encoding="UTF-8"?>
<svg version="1.1" xmlns="http://www.w3.org/2000/svg" width="697" height="246">
<path d="M0 0 C190.74 0 381.48 0 578 0 C578 1.32 578 2.64 578 4 C578.99 4 579.98 4 581 4 C581 5.32 581 6.64 581 8 C582.32 8 583.64 8 585 8 C585 9.32 585 10.64 585 12 C586.32 12 587.64 12 589 12 C589 12.99 589 13.98 589 15 C590.32 15 591.64 15 593 15 C593 16.32 593 17.64 593 19 C594.32 19 595.64 19 597 19 C597 20.32 597 21.64 597 23 C598.32 23 599.64 23 601 23 C601 24.32 601 25.64 601 27 C602.32 27 603.64 27 605 27 C605 28.32 605 29.64 605 31 C605.99 31 606.98 31 608 31 C608 32.32 608 33.64 608 35 C609.32 35 610.64 35 612 35 C612 35.99 612 36.98 612 38 C613.32 38 614.64 38 616 38 C616 39.32 616 40.64 616 42 C617.32 42 618.64 42 620 42 C620 43.32 620 44.64 620 46 C621.32 46 622.64 46 624 46 C624 47.32 624 48.64 624 50 C625.32 50 626.64 50 628 50 C628 51.32 628 52.64 628 54 C628.99 54 629.98 54 631 54 C631 55.32 631 56.64 631 58 C632.32 58 633.64 58 635 58 C635 59.32 635 60.64 635 62 C636.32 62 637.64 62 639 62 C639 62.99 639 63.98 639 65 C640.32 65 641.64 65 643 65 C643 66.32 643 67.64 643 69 C644.32 69 645.64 69 647 69 C647 70.32 647 71.64 647 73 C648.32 73 649.64 73 651 73 C651 74.32 651 75.64 651 77 C652.32 77 653.64 77 655 77 C655 78.32 655 79.64 655 81 C655.99 81 656.98 81 658 81 C658 82.32 658 83.64 658 85 C659.32 85 660.64 85 662 85 C662 86.32 662 87.64 662 89 C663.32 89 664.64 89 666 89 C666 89.99 666 90.98 666 92 C667.32 92 668.64 92 670 92 C670 93.32 670 94.64 670 96 C671.32 96 672.64 96 674 96 C674 97.32 674 98.64 674 100 C675.32 100 676.64 100 678 100 C678 101.32 678 102.64 678 104 C679.32 104 680.64 104 682 104 C682 105.32 682 106.64 682 108 C682.99 108 683.98 108 685 108 C685 109.32 685 110.64 685 112 C686.32 112 687.64 112 689 112 C689 112.99 689 113.98 689 115 C690.32 115 691.64 115 693 115 C693 116.32 693 117.64 693 119 C694.32 119 695.64 119 697 119 C697 121.64 697 124.28 697 127 C695.68 127 694.36 127 693 127 C693 128.32 693 129.64 693 131 C691.68 131 690.36 131 689 131 C689 132.32 689 133.64 689 135 C687.68 135 686.36 135 685 135 C685 136.32 685 137.64 685 139 C684.01 139 683.02 139 682 139 C682 139.99 682 140.98 682 142 C680.68 142 679.36 142 678 142 C678 143.32 678 144.64 678 146 C676.68 146 675.36 146 674 146 C674 147.32 674 148.64 674 150 C672.68 150 671.36 150 670 150 C670 151.32 670 152.64 670 154 C668.68 154 667.36 154 666 154 C666 155.32 666 156.64 666 158 C664.68 158 663.36 158 662 158 C662 159.32 662 160.64 662 162 C660.68 162 659.36 162 658 162 C658 163.32 658 164.64 658 166 C657.01 166 656.02 166 655 166 C655 166.99 655 167.98 655 169 C653.68 169 652.36 169 651 169 C651 170.32 651 171.64 651 173 C649.68 173 648.36 173 647 173 C647 174.32 647 175.64 647 177 C645.68 177 644.36 177 643 177 C643 178.32 643 179.64 643 181 C641.68 181 640.36 181 639 181 C639 182.32 639 183.64 639 185 C637.68 185 636.36 185 635 185 C635 186.32 635 187.64 635 189 C633.68 189 632.36 189 631 189 C631 189.99 631 190.98 631 192 C630.01 192 629.02 192 628 192 C628 193.32 628 194.64 628 196 C626.68 196 625.36 196 624 196 C624 197.32 624 198.64 624 200 C622.68 200 621.36 200 620 200 C620 201.32 620 202.64 620 204 C618.68 204 617.36 204 616 204 C616 205.32 616 206.64 616 208 C614.68 208 613.36 208 612 208 C612 209.32 612 210.64 612 212 C610.68 212 609.36 212 608 212 C608 213.32 608 214.64 608 216 C607.01 216 606.02 216 605 216 C605 216.99 605 217.98 605 219 C603.68 219 602.36 219 601 219 C601 220.32 601 221.64 601 223 C599.68 223 598.36 223 597 223 C597 224.32 597 225.64 597 227 C595.68 227 594.36 227 593 227 C593 228.32 593 229.64 593 231 C591.68 231 590.36 231 589 231 C589 232.32 589 233.64 589 235 C587.68 235 586.36 235 585 235 C585 236.32 585 237.64 585 239 C583.68 239 582.36 239 581 239 C581 240.32 581 241.64 581 243 C580.01 243 579.02 243 578 243 C578 243.99 578 244.98 578 246 C393.53 246 209.06 246 19 246 C19 245.01 19 244.02 19 243 C17.68 243 16.36 243 15 243 C15 241.68 15 240.36 15 239 C14.01 239 13.02 239 12 239 C12 237.68 12 236.36 12 235 C10.68 235 9.36 235 8 235 C8 233.68 8 232.36 8 231 C6.68 231 5.36 231 4 231 C4 229.68 4 228.36 4 227 C2.68 227 1.36 227 0 227 C0 152.09 0 77.18 0 0 Z M15 4 C15 5.32 15 6.64 15 8 C153.6 8 292.2 8 435 8 C435 9.32 435 10.64 435 12 C295.41 12 155.82 12 12 12 C12 76.68 12 141.36 12 208 C12.99 208 13.98 208 15 208 C15 209.32 15 210.64 15 212 C16.32 212 17.64 212 19 212 C19 213.32 19 214.64 19 216 C20.32 216 21.64 216 23 216 C23 216.99 23 217.98 23 219 C24.32 219 25.64 219 27 219 C27 220.32 27 221.64 27 223 C28.32 223 29.64 223 31 223 C31 224.32 31 225.64 31 227 C210.19 227 389.38 227 574 227 C574 225.68 574 224.36 574 223 C575.32 223 576.64 223 578 223 C578 221.68 578 220.36 578 219 C578.99 219 579.98 219 581 219 C581 218.01 581 217.02 581 216 C582.32 216 583.64 216 585 216 C585 214.68 585 213.36 585 212 C586.32 212 587.64 212 589 212 C589 210.68 589 209.36 589 208 C590.32 208 591.64 208 593 208 C593 206.68 593 205.36 593 204 C594.32 204 595.64 204 597 204 C597 202.68 597 201.36 597 200 C598.32 200 599.64 200 601 200 C601 198.68 601 197.36 601 196 C602.32 196 603.64 196 605 196 C605 194.68 605 193.36 605 192 C605.99 192 606.98 192 608 192 C608 191.01 608 190.02 608 189 C609.32 189 610.64 189 612 189 C612 187.68 612 186.36 612 185 C613.32 185 614.64 185 616 185 C616 183.68 616 182.36 616 181 C617.32 181 618.64 181 620 181 C620 179.68 620 178.36 620 177 C621.32 177 622.64 177 624 177 C624 175.68 624 174.36 624 173 C625.32 173 626.64 173 628 173 C628 171.68 628 170.36 628 169 C628.99 169 629.98 169 631 169 C631 168.01 631 167.02 631 166 C632.32 166 633.64 166 635 166 C635 164.68 635 163.36 635 162 C636.32 162 637.64 162 639 162 C639 160.68 639 159.36 639 158 C640.32 158 641.64 158 643 158 C643 156.68 643 155.36 643 154 C644.32 154 645.64 154 647 154 C647 152.68 647 151.36 647 150 C648.32 150 649.64 150 651 150 C651 148.68 651 147.36 651 146 C652.32 146 653.64 146 655 146 C655 144.68 655 143.36 655 142 C655.99 142 656.98 142 658 142 C658 141.01 658 140.02 658 139 C659.32 139 660.64 139 662 139 C662 137.68 662 136.36 662 135 C663.32 135 664.64 135 666 135 C666 133.68 666 132.36 666 131 C667.32 131 668.64 131 670 131 C670 129.68 670 128.36 670 127 C671.32 127 672.64 127 674 127 C674 124.36 674 121.72 674 119 C672.68 119 671.36 119 670 119 C670 117.68 670 116.36 670 115 C668.68 115 667.36 115 666 115 C666 114.01 666 113.02 666 112 C664.68 112 663.36 112 662 112 C662 110.68 662 109.36 662 108 C660.68 108 659.36 108 658 108 C658 106.68 658 105.36 658 104 C657.01 104 656.02 104 655 104 C655 102.68 655 101.36 655 100 C653.68 100 652.36 100 651 100 C651 98.68 651 97.36 651 96 C649.68 96 648.36 96 647 96 C647 94.68 647 93.36 647 92 C645.68 92 644.36 92 643 92 C643 91.01 643 90.02 643 89 C641.68 89 640.36 89 639 89 C639 87.68 639 86.36 639 85 C637.68 85 636.36 85 635 85 C635 83.68 635 82.36 635 81 C633.68 81 632.36 81 631 81 C631 79.68 631 78.36 631 77 C630.01 77 629.02 77 628 77 C628 75.68 628 74.36 628 73 C626.68 73 625.36 73 624 73 C624 71.68 624 70.36 624 69 C622.68 69 621.36 69 620 69 C620 67.68 620 66.36 620 65 C618.68 65 617.36 65 616 65 C616 64.01 616 63.02 616 62 C614.68 62 613.36 62 612 62 C612 60.68 612 59.36 612 58 C610.68 58 609.36 58 608 58 C608 56.68 608 55.36 608 54 C607.01 54 606.02 54 605 54 C605 52.68 605 51.36 605 50 C603.68 50 602.36 50 601 50 C601 48.68 601 47.36 601 46 C599.68 46 598.36 46 597 46 C597 44.68 597 43.36 597 42 C595.68 42 594.36 42 593 42 C593 40.68 593 39.36 593 38 C591.68 38 590.36 38 589 38 C589 37.01 589 36.02 589 35 C587.68 35 586.36 35 585 35 C585 33.68 585 32.36 585 31 C583.68 31 582.36 31 581 31 C581 29.68 581 28.36 581 27 C580.01 27 579.02 27 578 27 C578 25.68 578 24.36 578 23 C576.68 23 575.36 23 574 23 C574 21.68 574 20.36 574 19 C556.18 19 538.36 19 520 19 C520 17.68 520 16.36 520 15 C518.68 15 517.36 15 516 15 C516 14.01 516 13.02 516 12 C514.68 12 513.36 12 512 12 C512 10.68 512 9.36 512 8 C510.68 8 509.36 8 508 8 C508 6.68 508 5.36 508 4 C345.31 4 182.62 4 15 4 Z M4 15 C4 81.33 4 147.66 4 216 C5.32 216 6.64 216 8 216 C8 216.99 8 217.98 8 219 C9.32 219 10.64 219 12 219 C12 220.32 12 221.64 12 223 C12.99 223 13.98 223 15 223 C15 224.32 15 225.64 15 227 C17.64 227 20.28 227 23 227 C23 225.68 23 224.36 23 223 C21.68 223 20.36 223 19 223 C19 221.68 19 220.36 19 219 C17.68 219 16.36 219 15 219 C15 218.01 15 217.02 15 216 C14.01 216 13.02 216 12 216 C12 214.68 12 213.36 12 212 C10.68 212 9.36 212 8 212 C8 146.99 8 81.98 8 15 C6.68 15 5.36 15 4 15 Z M481 231 C481 232.32 481 233.64 481 235 C482.32 235 483.64 235 485 235 C485 233.68 485 232.36 485 231 C483.68 231 482.36 231 481 231 Z M493 231 C493 232.32 493 233.64 493 235 C494.32 235 495.64 235 497 235 C497 233.68 497 232.36 497 231 C495.68 231 494.36 231 493 231 Z M189 235 C189 236.32 189 237.64 189 239 C284.04 239 379.08 239 477 239 C477 237.68 477 236.36 477 235 C381.96 235 286.92 235 189 235 Z M485 235 C485 236.32 485 237.64 485 239 C486.32 239 487.64 239 489 239 C489 237.68 489 236.36 489 235 C487.68 235 486.36 235 485 235 Z M497 235 C497 236.32 497 237.64 497 239 C498.32 239 499.64 239 501 239 C501 237.68 501 236.36 501 235 C499.68 235 498.36 235 497 235 Z M489 239 C489 240.32 489 241.64 489 243 C490.32 243 491.64 243 493 243 C493 241.68 493 240.36 493 239 C491.68 239 490.36 239 489 239 Z M501 239 C501 240.32 501 241.64 501 243 C501.99 243 502.98 243 504 243 C504 241.68 504 240.36 504 239 C503.01 239 502.02 239 501 239 Z " fill="#008000" transform="translate(0,0)"/>
<path d="M0 0 C4.95 0 9.9 0 15 0 C15 1.32 15 2.64 15 4 C16.32 4 17.64 4 19 4 C19 4.99 19 5.98 19 7 C20.32 7 21.64 7 23 7 C23 8.32 23 9.64 23 11 C18.05 11 13.1 11 8 11 C8 9.68 8 8.36 8 7 C6.68 7 5.36 7 4 7 C4 6.01 4 5.02 4 4 C2.68 4 1.36 4 0 4 C0 2.68 0 1.36 0 0 Z " fill="#008000" transform="translate(489,8)"/>
<path d="M0 0 C4.95 0 9.9 0 15 0 C15 1.32 15 2.64 15 4 C16.32 4 17.64 4 19 4 C19 4.99 19 5.98 19 7 C20.32 7 21.64 7 23 7 C23 8.32 23 9.64 23 11 C18.05 11 13.1 11 8 11 C8 9.68 8 8.36 8 7 C6.68 7 5.36 7 4 7 C4 6.01 4 5.02 4 4 C2.68 4 1.36 4 0 4 C0 2.68 0 1.36 0 0 Z " fill="#008000" transform="translate(466,8)"/>
<path d="M0 0 C4.95 0 9.9 0 15 0 C15 1.32 15 2.64 15 4 C16.32 4 17.64 4 19 4 C19 4.99 19 5.98 19 7 C20.32 7 21.64 7 23 7 C23 8.32 23 9.64 23 11 C18.05 11 13.1 11 8 11 C8 9.68 8 8.36 8 7 C6.68 7 5.36 7 4 7 C4 6.01 4 5.02 4 4 C2.68 4 1.36 4 0 4 C0 2.68 0 1.36 0 0 Z " fill="#008000" transform="translate(443,8)"/>
<path d="M0 0 C1.32 0 2.64 0 4 0 C4 1.32 4 2.64 4 4 C2.68 4 1.36 4 0 4 C0 2.68 0 1.36 0 0 Z " fill="#008000" transform="translate(439,15)"/>
<path d="M0 0 C1.32 0 2.64 0 4 0 C4 0.99 4 1.98 4 3 C2.68 3 1.36 3 0 3 C0 2.01 0 1.02 0 0 Z " fill="#008000" transform="translate(435,12)"/>
</svg>
