<?xml version="1.0" encoding="UTF-8"?>
<svg version="1.1" xmlns="http://www.w3.org/2000/svg" width="685" height="628">
<path d="M0 0 C219.78 0 439.56 0 666 0 C666 200.97 666 401.94 666 609 C664.68 609 663.36 609 662 609 C662 610.32 662 611.64 662 613 C660.68 613 659.36 613 658 613 C658 614.32 658 615.64 658 617 C656.68 617 655.36 617 654 617 C654 618.32 654 619.64 654 621 C653.01 621 652.02 621 651 621 C651 622.32 651 623.64 651 625 C649.68 625 648.36 625 647 625 C647 625.99 647 626.98 647 628 C427.22 628 207.44 628 -19 628 C-19 427.03 -19 226.06 -19 19 C-17.68 19 -16.36 19 -15 19 C-15 17.68 -15 16.36 -15 15 C-14.01 15 -13.02 15 -12 15 C-12 14.01 -12 13.02 -12 12 C-10.68 12 -9.36 12 -8 12 C-8 10.68 -8 9.36 -8 8 C-6.68 8 -5.36 8 -4 8 C-4 6.68 -4 5.36 -4 4 C-2.68 4 -1.36 4 0 4 C0 2.68 0 1.36 0 0 Z M23 4 C23 5.32 23 6.64 23 8 C66.23 8 109.46 8 154 8 C154 9.32 154 10.64 154 12 C152.68 12 151.36 12 150 12 C150 12.99 150 13.98 150 15 C148.68 15 147.36 15 146 15 C146 16.32 146 17.64 146 19 C96.5 19 47 19 -4 19 C-4 213.7 -4 408.4 -4 609 C206.87 609 417.74 609 635 609 C635 607.68 635 606.36 635 605 C636.32 605 637.64 605 639 605 C639 603.68 639 602.36 639 601 C640.32 601 641.64 601 643 601 C643 600.01 643 599.02 643 598 C644.32 598 645.64 598 647 598 C647 596.68 647 595.36 647 594 C648.32 594 649.64 594 651 594 C651 592.68 651 591.36 651 590 C651.99 590 652.98 590 654 590 C654 399.26 654 208.52 654 12 C514.41 12 374.82 12 231 12 C231 10.68 231 9.36 231 8 C369.6 8 508.2 8 651 8 C651 6.68 651 5.36 651 4 C443.76 4 236.52 4 23 4 Z M658 15 C658 207.06 658 399.12 658 597 C655.69 597.33 653.38 597.66 651 598 C651 598.99 651 599.98 651 601 C649.68 601 648.36 601 647 601 C647 602.32 647 603.64 647 605 C645.68 605 644.36 605 643 605 C643 606.32 643 607.64 643 609 C645.64 609 648.28 609 651 609 C651 607.68 651 606.36 651 605 C651.99 605 652.98 605 654 605 C654 603.68 654 602.36 654 601 C655.32 601 656.64 601 658 601 C658 600.01 658 599.02 658 598 C659.32 598 660.64 598 662 598 C662 405.61 662 213.22 662 15 C660.68 15 659.36 15 658 15 Z M-12 31 C-12 32.32 -12 33.64 -12 35 C-12.99 35 -13.98 35 -15 35 C-15 186.47 -15 337.94 -15 494 C-14.01 494 -13.02 494 -12 494 C-12 494.99 -12 495.98 -12 497 C-10.68 497 -9.36 497 -8 497 C-8 343.22 -8 189.44 -8 31 C-9.32 31 -10.64 31 -12 31 Z M-15 501 C-15 503.64 -15 506.28 -15 509 C-14.01 509 -13.02 509 -12 509 C-12 510.32 -12 511.64 -12 513 C-10.68 513 -9.36 513 -8 513 C-8 510.36 -8 507.72 -8 505 C-9.32 505 -10.64 505 -12 505 C-12 503.68 -12 502.36 -12 501 C-12.99 501 -13.98 501 -15 501 Z M-15 517 C-15 519.31 -15 521.62 -15 524 C-14.01 524 -13.02 524 -12 524 C-12 525.32 -12 526.64 -12 528 C-10.68 528 -9.36 528 -8 528 C-8 525.69 -8 523.38 -8 521 C-9.32 521 -10.64 521 -12 521 C-12 519.68 -12 518.36 -12 517 C-12.99 517 -13.98 517 -15 517 Z M23 613 C23 614.32 23 615.64 23 617 C21.68 617 20.36 617 19 617 C19 618.32 19 619.64 19 621 C17.68 621 16.36 621 15 621 C15 622.32 15 623.64 15 625 C166.14 625 317.28 625 473 625 C473 623.68 473 622.36 473 621 C474.32 621 475.64 621 477 621 C477 619.68 477 618.36 477 617 C478.32 617 479.64 617 481 617 C481 615.68 481 614.36 481 613 C329.86 613 178.72 613 23 613 Z " fill="#008000" transform="translate(19,0)"/>
<path d="M0 0 C4.95 0 9.9 0 15 0 C15 1.32 15 2.64 15 4 C17.64 4 20.28 4 23 4 C23 5.32 23 6.64 23 8 C24.32 8 25.64 8 27 8 C27 9.32 27 10.64 27 12 C27.99 12 28.98 12 30 12 C30 13.32 30 14.64 30 16 C31.32 16 32.64 16 34 16 C34 18.31 34 20.62 34 23 C35.32 23 36.64 23 38 23 C38 25.64 38 28.28 38 31 C39.32 31 40.64 31 42 31 C42 33.64 42 36.28 42 39 C43.32 39 44.64 39 46 39 C46 42.63 46 46.26 46 50 C47.32 50 48.64 50 50 50 C50 53.96 50 57.92 50 62 C51.32 62 52.64 62 54 62 C54 66.95 54 71.9 54 77 C54.99 77 55.98 77 57 77 C57 91.19 57 105.38 57 120 C56.01 120 55.02 120 54 120 C54 121.32 54 122.64 54 124 C50.04 124 46.08 124 42 124 C42 122.68 42 121.36 42 120 C40.68 120 39.36 120 38 120 C38 118.68 38 117.36 38 116 C36.68 116 35.36 116 34 116 C34 112.04 34 108.08 34 104 C32.68 104 31.36 104 30 104 C30 99.05 30 94.1 30 89 C29.01 89 28.02 89 27 89 C27 84.05 27 79.1 27 74 C25.68 74 24.36 74 23 74 C23 68.72 23 63.44 23 58 C21.68 58 20.36 58 19 58 C19 55.36 19 52.72 19 50 C17.68 50 16.36 50 15 50 C15 46.37 15 42.74 15 39 C13.68 39 12.36 39 11 39 C11 36.36 11 33.72 11 31 C9.68 31 8.36 31 7 31 C7 32.32 7 33.64 7 35 C5.68 35 4.36 35 3 35 C3 37.64 3 40.28 3 43 C2.01 43 1.02 43 0 43 C0 47.95 0 52.9 0 58 C-1.32 58 -2.64 58 -4 58 C-4 64.27 -4 70.54 -4 77 C-5.32 77 -6.64 77 -8 77 C-8 84.59 -8 92.18 -8 100 C-9.32 100 -10.64 100 -12 100 C-12 102.64 -12 105.28 -12 108 C-13.32 108 -14.64 108 -16 108 C-16 110.64 -16 113.28 -16 116 C-17.32 116 -18.64 116 -20 116 C-20 117.32 -20 118.64 -20 120 C-20.99 120 -21.98 120 -23 120 C-23 121.32 -23 122.64 -23 124 C-24.32 124 -25.64 124 -27 124 C-27 124.99 -27 125.98 -27 127 C-32.28 127 -37.56 127 -43 127 C-43 126.01 -43 125.02 -43 124 C-46.63 124 -50.26 124 -54 124 C-54 122.68 -54 121.36 -54 120 C-55.32 120 -56.64 120 -58 120 C-58 118.68 -58 117.36 -58 116 C-59.32 116 -60.64 116 -62 116 C-62 114.68 -62 113.36 -62 112 C-63.32 112 -64.64 112 -66 112 C-66 110.68 -66 109.36 -66 108 C-67.32 108 -68.64 108 -70 108 C-70 105.36 -70 102.72 -70 100 C-71.32 100 -72.64 100 -74 100 C-74 96.37 -74 92.74 -74 89 C-74.99 89 -75.98 89 -77 89 C-77 85.04 -77 81.08 -77 77 C-78.32 77 -79.64 77 -81 77 C-81 69.41 -81 61.82 -81 54 C-82.32 54 -83.64 54 -85 54 C-85 50.37 -85 46.74 -85 43 C-86.32 43 -87.64 43 -89 43 C-89 41.68 -89 40.36 -89 39 C-90.32 39 -91.64 39 -93 39 C-93 40.32 -93 41.64 -93 43 C-94.32 43 -95.64 43 -97 43 C-97 44.32 -97 45.64 -97 47 C-97.99 47 -98.98 47 -100 47 C-100 53.27 -100 59.54 -100 66 C-101.32 66 -102.64 66 -104 66 C-104 69.63 -104 73.26 -104 77 C-105.32 77 -106.64 77 -108 77 C-108 84.59 -108 92.18 -108 100 C-109.32 100 -110.64 100 -112 100 C-112 105.28 -112 110.56 -112 116 C-113.32 116 -114.64 116 -116 116 C-116 118.64 -116 121.28 -116 124 C-117.32 124 -118.64 124 -120 124 C-120 124.99 -120 125.98 -120 127 C-121.32 127 -122.64 127 -124 127 C-124 128.32 -124 129.64 -124 131 C-124.99 131 -125.98 131 -127 131 C-127 132.32 -127 133.64 -127 135 C-135.91 135 -144.82 135 -154 135 C-154 133.68 -154 132.36 -154 131 C-155.32 131 -156.64 131 -158 131 C-158 129.68 -158 128.36 -158 127 C-159.32 127 -160.64 127 -162 127 C-162 126.01 -162 125.02 -162 124 C-163.32 124 -164.64 124 -166 124 C-166 122.68 -166 121.36 -166 120 C-167.32 120 -168.64 120 -170 120 C-170 118.68 -170 117.36 -170 116 C-171.32 116 -172.64 116 -174 116 C-174 113.36 -174 110.72 -174 108 C-174.99 108 -175.98 108 -177 108 C-177 104.37 -177 100.74 -177 97 C-178.32 97 -179.64 97 -181 97 C-181 93.04 -181 89.08 -181 85 C-182.32 85 -183.64 85 -185 85 C-185 80.05 -185 75.1 -185 70 C-186.32 70 -187.64 70 -189 70 C-189 66.04 -189 62.08 -189 58 C-191.64 58 -194.28 58 -197 58 C-197 60.64 -197 63.28 -197 66 C-198.32 66 -199.64 66 -201 66 C-201 68.64 -201 71.28 -201 74 C-201.99 74 -202.98 74 -204 74 C-204 77.63 -204 81.26 -204 85 C-205.32 85 -206.64 85 -208 85 C-208 92.59 -208 100.18 -208 108 C-209.32 108 -210.64 108 -212 108 C-212 110.64 -212 113.28 -212 116 C-213.32 116 -214.64 116 -216 116 C-216 117.32 -216 118.64 -216 120 C-217.32 120 -218.64 120 -220 120 C-220 121.32 -220 122.64 -220 124 C-223.63 124 -227.26 124 -231 124 C-231 122.68 -231 121.36 -231 120 C-232.32 120 -233.64 120 -235 120 C-235 118.68 -235 117.36 -235 116 C-236.32 116 -237.64 116 -239 116 C-239 109.73 -239 103.46 -239 97 C-237.68 97 -236.36 97 -235 97 C-235 89.41 -235 81.82 -235 74 C-233.68 74 -232.36 74 -231 74 C-231 70.04 -231 66.08 -231 62 C-230.01 62 -229.02 62 -228 62 C-228 59.36 -228 56.72 -228 54 C-226.68 54 -225.36 54 -224 54 C-224 51.69 -224 49.38 -224 47 C-222.68 47 -221.36 47 -220 47 C-220 44.36 -220 41.72 -220 39 C-218.68 39 -217.36 39 -216 39 C-216 37.68 -216 36.36 -216 35 C-214.68 35 -213.36 35 -212 35 C-212 33.68 -212 32.36 -212 31 C-210.68 31 -209.36 31 -208 31 C-208 29.68 -208 28.36 -208 27 C-206.68 27 -205.36 27 -204 27 C-204 25.68 -204 24.36 -204 23 C-203.01 23 -202.02 23 -201 23 C-201 22.01 -201 21.02 -201 20 C-195.72 20 -190.44 20 -185 20 C-185 20.99 -185 21.98 -185 23 C-183.68 23 -182.36 23 -181 23 C-181 24.32 -181 25.64 -181 27 C-179.68 27 -178.36 27 -177 27 C-177 28.32 -177 29.64 -177 31 C-176.01 31 -175.02 31 -174 31 C-174 32.32 -174 33.64 -174 35 C-172.68 35 -171.36 35 -170 35 C-170 36.32 -170 37.64 -170 39 C-168.68 39 -167.36 39 -166 39 C-166 42.63 -166 46.26 -166 50 C-164.68 50 -163.36 50 -162 50 C-162 53.96 -162 57.92 -162 62 C-160.68 62 -159.36 62 -158 62 C-158 65.96 -158 69.92 -158 74 C-156.68 74 -155.36 74 -154 74 C-154 81.59 -154 89.18 -154 97 C-153.01 97 -152.02 97 -151 97 C-151 97.99 -151 98.98 -151 100 C-149.68 100 -148.36 100 -147 100 C-147 101.32 -147 102.64 -147 104 C-144.36 104 -141.72 104 -139 104 C-139 101.69 -139 99.38 -139 97 C-137.68 97 -136.36 97 -135 97 C-135 89.41 -135 81.82 -135 74 C-133.68 74 -132.36 74 -131 74 C-131 67.4 -131 60.8 -131 54 C-129.68 54 -128.36 54 -127 54 C-127 50.37 -127 46.74 -127 43 C-126.01 43 -125.02 43 -124 43 C-124 39.04 -124 35.08 -124 31 C-122.68 31 -121.36 31 -120 31 C-120 29.68 -120 28.36 -120 27 C-118.68 27 -117.36 27 -116 27 C-116 24.69 -116 22.38 -116 20 C-114.68 20 -113.36 20 -112 20 C-112 18.68 -112 17.36 -112 16 C-110.68 16 -109.36 16 -108 16 C-108 14.68 -108 13.36 -108 12 C-105.36 12 -102.72 12 -100 12 C-100 10.68 -100 9.36 -100 8 C-93.73 8 -87.46 8 -81 8 C-81 9.32 -81 10.64 -81 12 C-77.37 12 -73.74 12 -70 12 C-70 13.32 -70 14.64 -70 16 C-68.68 16 -67.36 16 -66 16 C-66 17.32 -66 18.64 -66 20 C-64.68 20 -63.36 20 -62 20 C-62 23.63 -62 27.26 -62 31 C-60.68 31 -59.36 31 -58 31 C-58 36.28 -58 41.56 -58 47 C-56.68 47 -55.36 47 -54 47 C-54 53.27 -54 59.54 -54 66 C-52.68 66 -51.36 66 -50 66 C-50 72.27 -50 78.54 -50 85 C-49.01 85 -48.02 85 -47 85 C-47 86.32 -47 87.64 -47 89 C-45.68 89 -44.36 89 -43 89 C-43 91.64 -43 94.28 -43 97 C-41.68 97 -40.36 97 -39 97 C-39 95.68 -39 94.36 -39 93 C-37.68 93 -36.36 93 -35 93 C-35 91.68 -35 90.36 -35 89 C-33.68 89 -32.36 89 -31 89 C-31 75.14 -31 61.28 -31 47 C-29.68 47 -28.36 47 -27 47 C-27 41.72 -27 36.44 -27 31 C-25.68 31 -24.36 31 -23 31 C-23 28.36 -23 25.72 -23 23 C-22.01 23 -21.02 23 -20 23 C-20 20.69 -20 18.38 -20 16 C-18.68 16 -17.36 16 -16 16 C-16 14.68 -16 13.36 -16 12 C-14.68 12 -13.36 12 -12 12 C-12 10.68 -12 9.36 -12 8 C-10.68 8 -9.36 8 -8 8 C-8 6.68 -8 5.36 -8 4 C-5.36 4 -2.72 4 0 4 C0 2.68 0 1.36 0 0 Z " fill="#008000" transform="translate(428,388)"/>
<path d="M0 0 C3.63 0 7.26 0 11 0 C11 1.32 11 2.64 11 4 C13.64 4 16.28 4 19 4 C19 5.32 19 6.64 19 8 C21.31 8 23.62 8 26 8 C26 9.32 26 10.64 26 12 C27.32 12 28.64 12 30 12 C30 13.32 30 14.64 30 16 C31.32 16 32.64 16 34 16 C34 17.32 34 18.64 34 20 C36.64 20 39.28 20 42 20 C42 20.99 42 21.98 42 23 C43.32 23 44.64 23 46 23 C46 24.32 46 25.64 46 27 C48.31 27 50.62 27 53 27 C53 28.32 53 29.64 53 31 C55.64 31 58.28 31 61 31 C61 32.32 61 33.64 61 35 C63.64 35 66.28 35 69 35 C69 36.32 69 37.64 69 39 C70.32 39 71.64 39 73 39 C73 40.32 73 41.64 73 43 C75.31 43 77.62 43 80 43 C80 44.32 80 45.64 80 47 C82.64 47 85.28 47 88 47 C88 47.99 88 48.98 88 50 C90.64 50 93.28 50 96 50 C96 51.32 96 52.64 96 54 C98.31 54 100.62 54 103 54 C103 55.32 103 56.64 103 58 C104.32 58 105.64 58 107 58 C107 59.32 107 60.64 107 62 C109.64 62 112.28 62 115 62 C115 63.32 115 64.64 115 66 C117.64 66 120.28 66 123 66 C123 67.32 123 68.64 123 70 C125.31 70 127.62 70 130 70 C130 71.32 130 72.64 130 74 C132.64 74 135.28 74 138 74 C138 74.99 138 75.98 138 77 C140.64 77 143.28 77 146 77 C146 78.32 146 79.64 146 81 C148.64 81 151.28 81 154 81 C154 82.32 154 83.64 154 85 C156.31 85 158.62 85 161 85 C161 86.32 161 87.64 161 89 C162.32 89 163.64 89 165 89 C165 90.32 165 91.64 165 93 C166.32 93 167.64 93 169 93 C169 97.95 169 102.9 169 108 C167.68 108 166.36 108 165 108 C165 109.32 165 110.64 165 112 C163.68 112 162.36 112 161 112 C161 113.32 161 114.64 161 116 C159.68 116 158.36 116 157 116 C157 117.32 157 118.64 157 120 C154.69 120 152.38 120 150 120 C150 121.32 150 122.64 150 124 C146.04 124 142.08 124 138 124 C138 124.99 138 125.98 138 127 C134.37 127 130.74 127 127 127 C127 128.32 127 129.64 127 131 C124.36 131 121.72 131 119 131 C119 132.32 119 133.64 119 135 C116.36 135 113.72 135 111 135 C111 136.32 111 137.64 111 139 C107.37 139 103.74 139 100 139 C100 140.32 100 141.64 100 143 C97.36 143 94.72 143 92 143 C92 144.32 92 145.64 92 147 C88.04 147 84.08 147 80 147 C80 148.32 80 149.64 80 151 C77.69 151 75.38 151 73 151 C73 151.99 73 152.98 73 154 C70.36 154 67.72 154 65 154 C65 155.32 65 156.64 65 158 C62.36 158 59.72 158 57 158 C57 159.32 57 160.64 57 162 C54.69 162 52.38 162 50 162 C50 163.32 50 164.64 50 166 C48.68 166 47.36 166 46 166 C46 167.32 46 168.64 46 170 C43.36 170 40.72 170 38 170 C38 171.32 38 172.64 38 174 C34.04 174 30.08 174 26 174 C26 174.99 26 175.98 26 177 C23.69 177 21.38 177 19 177 C19 178.32 19 179.64 19 181 C13.72 181 8.44 181 3 181 C3 179.68 3 178.36 3 177 C2.01 177 1.02 177 0 177 C0 176.01 0 175.02 0 174 C-1.32 174 -2.64 174 -4 174 C-4 170.04 -4 166.08 -4 162 C-2.68 162 -1.36 162 0 162 C0 160.68 0 159.36 0 158 C0.99 158 1.98 158 3 158 C3 156.68 3 155.36 3 154 C4.32 154 5.64 154 7 154 C7 153.01 7 152.02 7 151 C9.64 151 12.28 151 15 151 C15 149.68 15 148.36 15 147 C18.63 147 22.26 147 26 147 C26 145.68 26 144.36 26 143 C28.64 143 31.28 143 34 143 C34 141.68 34 140.36 34 139 C35.32 139 36.64 139 38 139 C38 137.68 38 136.36 38 135 C40.64 135 43.28 135 46 135 C46 133.68 46 132.36 46 131 C48.31 131 50.62 131 53 131 C53 129.68 53 128.36 53 127 C55.64 127 58.28 127 61 127 C61 126.01 61 125.02 61 124 C64.96 124 68.92 124 73 124 C73 122.68 73 121.36 73 120 C75.31 120 77.62 120 80 120 C80 118.68 80 117.36 80 116 C82.64 116 85.28 116 88 116 C88 114.68 88 113.36 88 112 C91.96 112 95.92 112 100 112 C100 110.68 100 109.36 100 108 C102.31 108 104.62 108 107 108 C107 106.68 107 105.36 107 104 C110.96 104 114.92 104 119 104 C119 101.69 119 99.38 119 97 C116.36 97 113.72 97 111 97 C111 95.68 111 94.36 111 93 C109.68 93 108.36 93 107 93 C107 91.68 107 90.36 107 89 C104.69 89 102.38 89 100 89 C100 87.68 100 86.36 100 85 C97.36 85 94.72 85 92 85 C92 83.68 92 82.36 92 81 C89.36 81 86.72 81 84 81 C84 79.68 84 78.36 84 77 C81.69 77 79.38 77 77 77 C77 76.01 77 75.02 77 74 C74.36 74 71.72 74 69 74 C69 72.68 69 71.36 69 70 C67.68 70 66.36 70 65 70 C65 68.68 65 67.36 65 66 C62.36 66 59.72 66 57 66 C57 64.68 57 63.36 57 62 C54.69 62 52.38 62 50 62 C50 60.68 50 59.36 50 58 C47.36 58 44.72 58 42 58 C42 56.68 42 55.36 42 54 C39.36 54 36.72 54 34 54 C34 52.68 34 51.36 34 50 C32.68 50 31.36 50 30 50 C30 49.01 30 48.02 30 47 C27.69 47 25.38 47 23 47 C23 45.68 23 44.36 23 43 C21.68 43 20.36 43 19 43 C19 41.68 19 40.36 19 39 C17.68 39 16.36 39 15 39 C15 37.68 15 36.36 15 35 C12.36 35 9.72 35 7 35 C7 33.68 7 32.36 7 31 C4.69 31 2.38 31 0 31 C0 29.68 0 28.36 0 27 C-1.32 27 -2.64 27 -4 27 C-4 25.68 -4 24.36 -4 23 C-5.32 23 -6.64 23 -8 23 C-8 18.05 -8 13.1 -8 8 C-6.68 8 -5.36 8 -4 8 C-4 6.68 -4 5.36 -4 4 C-2.68 4 -1.36 4 0 4 C0 2.68 0 1.36 0 0 Z " fill="#008000" transform="translate(97,157)"/>
<path d="M0 0 C3.96 0 7.92 0 12 0 C12 1.32 12 2.64 12 4 C12.99 4 13.98 4 15 4 C15 4.99 15 5.98 15 7 C16.32 7 17.64 7 19 7 C19 12.28 19 17.56 19 23 C17.68 23 16.36 23 15 23 C15 24.32 15 25.64 15 27 C14.01 27 13.02 27 12 27 C12 27.99 12 28.98 12 30 C10.68 30 9.36 30 8 30 C8 31.32 8 32.64 8 34 C6.68 34 5.36 34 4 34 C4 35.32 4 36.64 4 38 C2.68 38 1.36 38 0 38 C0 39.32 0 40.64 0 42 C-1.32 42 -2.64 42 -4 42 C-4 43.32 -4 44.64 -4 46 C-6.31 46 -8.62 46 -11 46 C-11 47.32 -11 48.64 -11 50 C-12.32 50 -13.64 50 -15 50 C-15 51.32 -15 52.64 -15 54 C-17.64 54 -20.28 54 -23 54 C-23 54.99 -23 55.98 -23 57 C-24.32 57 -25.64 57 -27 57 C-27 58.32 -27 59.64 -27 61 C-29.64 61 -32.28 61 -35 61 C-35 62.32 -35 63.64 -35 65 C-35.99 65 -36.98 65 -38 65 C-38 66.32 -38 67.64 -38 69 C-40.64 69 -43.28 69 -46 69 C-46 70.32 -46 71.64 -46 73 C-48.64 73 -51.28 73 -54 73 C-54 74.32 -54 75.64 -54 77 C-55.32 77 -56.64 77 -58 77 C-58 78.32 -58 79.64 -58 81 C-60.31 81 -62.62 81 -65 81 C-65 81.99 -65 82.98 -65 84 C-67.64 84 -70.28 84 -73 84 C-73 85.32 -73 86.64 -73 88 C-74.32 88 -75.64 88 -77 88 C-77 89.32 -77 90.64 -77 92 C-79.64 92 -82.28 92 -85 92 C-85 93.32 -85 94.64 -85 96 C-85.99 96 -86.98 96 -88 96 C-88 97.32 -88 98.64 -88 100 C-90.64 100 -93.28 100 -96 100 C-96 101.32 -96 102.64 -96 104 C-93.36 104 -90.72 104 -88 104 C-88 104.99 -88 105.98 -88 107 C-85.69 107 -83.38 107 -81 107 C-81 108.32 -81 109.64 -81 111 C-78.36 111 -75.72 111 -73 111 C-73 112.32 -73 113.64 -73 115 C-69.04 115 -65.08 115 -61 115 C-61 116.32 -61 117.64 -61 119 C-58.69 119 -56.38 119 -54 119 C-54 120.32 -54 121.64 -54 123 C-51.36 123 -48.72 123 -46 123 C-46 124.32 -46 125.64 -46 127 C-43.36 127 -40.72 127 -38 127 C-38 128.32 -38 129.64 -38 131 C-35.69 131 -33.38 131 -31 131 C-31 131.99 -31 132.98 -31 134 C-27.04 134 -23.08 134 -19 134 C-19 135.32 -19 136.64 -19 138 C-16.36 138 -13.72 138 -11 138 C-11 139.32 -11 140.64 -11 142 C-8.69 142 -6.38 142 -4 142 C-4 143.32 -4 144.64 -4 146 C-1.36 146 1.28 146 4 146 C4 147.32 4 148.64 4 150 C5.32 150 6.64 150 8 150 C8 151.32 8 152.64 8 154 C10.31 154 12.62 154 15 154 C15 155.32 15 156.64 15 158 C17.64 158 20.28 158 23 158 C23 158.99 23 159.98 23 161 C24.32 161 25.64 161 27 161 C27 162.32 27 163.64 27 165 C28.32 165 29.64 165 31 165 C31 170.28 31 175.56 31 181 C29.68 181 28.36 181 27 181 C27 181.99 27 182.98 27 184 C25.68 184 24.36 184 23 184 C23 185.32 23 186.64 23 188 C19.37 188 15.74 188 12 188 C12 186.68 12 185.36 12 184 C8.04 184 4.08 184 0 184 C0 183.01 0 182.02 0 181 C-2.64 181 -5.28 181 -8 181 C-8 179.68 -8 178.36 -8 177 C-10.31 177 -12.62 177 -15 177 C-15 175.68 -15 174.36 -15 173 C-16.32 173 -17.64 173 -19 173 C-19 171.68 -19 170.36 -19 169 C-20.32 169 -21.64 169 -23 169 C-23 167.68 -23 166.36 -23 165 C-25.64 165 -28.28 165 -31 165 C-31 163.68 -31 162.36 -31 161 C-33.31 161 -35.62 161 -38 161 C-38 160.01 -38 159.02 -38 158 C-41.96 158 -45.92 158 -50 158 C-50 156.68 -50 155.36 -50 154 C-52.64 154 -55.28 154 -58 154 C-58 152.68 -58 151.36 -58 150 C-60.31 150 -62.62 150 -65 150 C-65 148.68 -65 147.36 -65 146 C-67.64 146 -70.28 146 -73 146 C-73 144.68 -73 143.36 -73 142 C-76.96 142 -80.92 142 -85 142 C-85 140.68 -85 139.36 -85 138 C-87.31 138 -89.62 138 -92 138 C-92 136.68 -92 135.36 -92 134 C-94.64 134 -97.28 134 -100 134 C-100 133.01 -100 132.02 -100 131 C-102.64 131 -105.28 131 -108 131 C-108 129.68 -108 128.36 -108 127 C-110.31 127 -112.62 127 -115 127 C-115 125.68 -115 124.36 -115 123 C-117.64 123 -120.28 123 -123 123 C-123 121.68 -123 120.36 -123 119 C-126.96 119 -130.92 119 -135 119 C-135 117.68 -135 116.36 -135 115 C-135.99 115 -136.98 115 -138 115 C-138 113.68 -138 112.36 -138 111 C-139.32 111 -140.64 111 -142 111 C-142 107.37 -142 103.74 -142 100 C-140.68 100 -139.36 100 -138 100 C-138 98.68 -138 97.36 -138 96 C-137.01 96 -136.02 96 -135 96 C-135 94.68 -135 93.36 -135 92 C-133.68 92 -132.36 92 -131 92 C-131 90.68 -131 89.36 -131 88 C-129.68 88 -128.36 88 -127 88 C-127 86.68 -127 85.36 -127 84 C-124.36 84 -121.72 84 -119 84 C-119 83.01 -119 82.02 -119 81 C-117.68 81 -116.36 81 -115 81 C-115 79.68 -115 78.36 -115 77 C-112.69 77 -110.38 77 -108 77 C-108 75.68 -108 74.36 -108 73 C-105.36 73 -102.72 73 -100 73 C-100 71.68 -100 70.36 -100 69 C-98.68 69 -97.36 69 -96 69 C-96 67.68 -96 66.36 -96 65 C-93.36 65 -90.72 65 -88 65 C-88 63.68 -88 62.36 -88 61 C-87.01 61 -86.02 61 -85 61 C-85 59.68 -85 58.36 -85 57 C-82.36 57 -79.72 57 -77 57 C-77 56.01 -77 55.02 -77 54 C-75.68 54 -74.36 54 -73 54 C-73 52.68 -73 51.36 -73 50 C-70.36 50 -67.72 50 -65 50 C-65 48.68 -65 47.36 -65 46 C-63.68 46 -62.36 46 -61 46 C-61 44.68 -61 43.36 -61 42 C-58.69 42 -56.38 42 -54 42 C-54 40.68 -54 39.36 -54 38 C-51.36 38 -48.72 38 -46 38 C-46 36.68 -46 35.36 -46 34 C-44.68 34 -43.36 34 -42 34 C-42 32.68 -42 31.36 -42 30 C-39.69 30 -37.38 30 -35 30 C-35 29.01 -35 28.02 -35 27 C-33.68 27 -32.36 27 -31 27 C-31 25.68 -31 24.36 -31 23 C-28.36 23 -25.72 23 -23 23 C-23 21.68 -23 20.36 -23 19 C-21.68 19 -20.36 19 -19 19 C-19 17.68 -19 16.36 -19 15 C-16.36 15 -13.72 15 -11 15 C-11 13.68 -11 12.36 -11 11 C-10.01 11 -9.02 11 -8 11 C-8 9.68 -8 8.36 -8 7 C-6.68 7 -5.36 7 -4 7 C-4 6.01 -4 5.02 -4 4 C-2.68 4 -1.36 4 0 4 C0 2.68 0 1.36 0 0 Z " fill="#008000" transform="translate(543,150)"/>
<path d="M0 0 C17.82 0 35.64 0 54 0 C54 1.32 54 2.64 54 4 C56.31 4 58.62 4 61 4 C61 5.32 61 6.64 61 8 C63.64 8 66.28 8 69 8 C69 9.32 69 10.64 69 12 C70.32 12 71.64 12 73 12 C73 12.99 73 13.98 73 15 C74.32 15 75.64 15 77 15 C77 16.32 77 17.64 77 19 C78.32 19 79.64 19 81 19 C81 25.27 81 31.54 81 38 C79.68 38 78.36 38 77 38 C77 39.32 77 40.64 77 42 C75.68 42 74.36 42 73 42 C73 43.32 73 44.64 73 46 C71.68 46 70.36 46 69 46 C69 47.32 69 48.64 69 50 C67.68 50 66.36 50 65 50 C65 51.32 65 52.64 65 54 C62.69 54 60.38 54 58 54 C58 55.32 58 56.64 58 58 C51.4 58 44.8 58 38 58 C38 59.32 38 60.64 38 62 C31.73 62 25.46 62 19 62 C19 60.68 19 59.36 19 58 C14.05 58 9.1 58 4 58 C4 56.68 4 55.36 4 54 C0.04 54 -3.92 54 -8 54 C-8 52.68 -8 51.36 -8 50 C-9.32 50 -10.64 50 -12 50 C-12 48.68 -12 47.36 -12 46 C-13.32 46 -14.64 46 -16 46 C-16 44.68 -16 43.36 -16 42 C-16.99 42 -17.98 42 -19 42 C-19 40.68 -19 39.36 -19 38 C-20.32 38 -21.64 38 -23 38 C-23 33.05 -23 28.1 -23 23 C-21.68 23 -20.36 23 -19 23 C-19 21.68 -19 20.36 -19 19 C-18.01 19 -17.02 19 -16 19 C-16 16.69 -16 14.38 -16 12 C-14.68 12 -13.36 12 -12 12 C-12 10.68 -12 9.36 -12 8 C-10.68 8 -9.36 8 -8 8 C-8 6.68 -8 5.36 -8 4 C-5.36 4 -2.72 4 0 4 C0 2.68 0 1.36 0 0 Z " fill="#008000" transform="translate(62,373)"/>
<path d="M0 0 C16.5 0 33 0 50 0 C50 1.32 50 2.64 50 4 C52.64 4 55.28 4 58 4 C58 5.32 58 6.64 58 8 C60.64 8 63.28 8 66 8 C66 9.32 66 10.64 66 12 C66.99 12 67.98 12 69 12 C69 13.32 69 14.64 69 16 C70.32 16 71.64 16 73 16 C73 16.99 73 17.98 73 19 C74.32 19 75.64 19 77 19 C77 24.28 77 29.56 77 35 C75.68 35 74.36 35 73 35 C73 36.32 73 37.64 73 39 C71.68 39 70.36 39 69 39 C69 39.99 69 40.98 69 42 C68.01 42 67.02 42 66 42 C66 43.32 66 44.64 66 46 C64.68 46 63.36 46 62 46 C62 47.32 62 48.64 62 50 C59.36 50 56.72 50 54 50 C54 51.32 54 52.64 54 54 C52.68 54 51.36 54 50 54 C50 55.32 50 56.64 50 58 C34.82 58 19.64 58 4 58 C4 56.68 4 55.36 4 54 C1.36 54 -1.28 54 -4 54 C-4 52.68 -4 51.36 -4 50 C-6.64 50 -9.28 50 -12 50 C-12 48.68 -12 47.36 -12 46 C-12.99 46 -13.98 46 -15 46 C-15 44.68 -15 43.36 -15 42 C-16.32 42 -17.64 42 -19 42 C-19 41.01 -19 40.02 -19 39 C-20.32 39 -21.64 39 -23 39 C-23 33.72 -23 28.44 -23 23 C-21.68 23 -20.36 23 -19 23 C-19 20.69 -19 18.38 -19 16 C-17.68 16 -16.36 16 -15 16 C-15 14.68 -15 13.36 -15 12 C-14.01 12 -13.02 12 -12 12 C-12 10.68 -12 9.36 -12 8 C-10.68 8 -9.36 8 -8 8 C-8 6.68 -8 5.36 -8 4 C-5.36 4 -2.72 4 0 4 C0 2.68 0 1.36 0 0 Z " fill="#008000" transform="translate(570,369)"/>
<path d="M0 0 C4.95 0 9.9 0 15 0 C15 1.32 15 2.64 15 4 C13.68 4 12.36 4 11 4 C11 4.99 11 5.98 11 7 C10.01 7 9.02 7 8 7 C8 8.32 8 9.64 8 11 C2.72 11 -2.56 11 -8 11 C-8 9.68 -8 8.36 -8 7 C-6.68 7 -5.36 7 -4 7 C-4 6.01 -4 5.02 -4 4 C-2.68 4 -1.36 4 0 4 C0 2.68 0 1.36 0 0 Z " fill="#008000" transform="translate(227,8)"/>
<path d="M0 0 C4.95 0 9.9 0 15 0 C15 1.32 15 2.64 15 4 C13.68 4 12.36 4 11 4 C11 4.99 11 5.98 11 7 C9.68 7 8.36 7 7 7 C7 8.32 7 9.64 7 11 C2.05 11 -2.9 11 -8 11 C-8 9.68 -8 8.36 -8 7 C-6.68 7 -5.36 7 -4 7 C-4 6.01 -4 5.02 -4 4 C-2.68 4 -1.36 4 0 4 C0 2.68 0 1.36 0 0 Z " fill="#008000" transform="translate(204,8)"/>
<path d="M0 0 C4.95 0 9.9 0 15 0 C15 1.32 15 2.64 15 4 C13.68 4 12.36 4 11 4 C11 4.99 11 5.98 11 7 C9.68 7 8.36 7 7 7 C7 8.32 7 9.64 7 11 C2.05 11 -2.9 11 -8 11 C-8 9.68 -8 8.36 -8 7 C-6.68 7 -5.36 7 -4 7 C-4 6.01 -4 5.02 -4 4 C-2.68 4 -1.36 4 0 4 C0 2.68 0 1.36 0 0 Z " fill="#008000" transform="translate(181,8)"/>
<path d="M0 0 C1.32 0 2.64 0 4 0 C4 1.32 4 2.64 4 4 C2.68 4 1.36 4 0 4 C0 2.68 0 1.36 0 0 Z " fill="#008000" transform="translate(242,15)"/>
<path d="M0 0 C1.32 0 2.64 0 4 0 C4 0.99 4 1.98 4 3 C2.68 3 1.36 3 0 3 C0 2.01 0 1.02 0 0 Z " fill="#008000" transform="translate(246,12)"/>
</svg>
