<?xml version="1.0" encoding="UTF-8"?>
<svg version="1.1" xmlns="http://www.w3.org/2000/svg" width="685" height="400">
<path d="M0 0 C1.32 0 2.64 0 4 0 C4 0.66 4 1.32 4 2 C26.44 2 48.88 2 72 2 C72 3.32 72 4.64 72 6 C153.84 6 235.68 6 320 6 C320 9.96 320 13.92 320 18 C321.32 18 322.64 18 324 18 C324 15.36 324 12.72 324 10 C325.32 10 326.64 10 328 10 C328 8.68 328 7.36 328 6 C330.64 6 333.28 6 336 6 C336 8.64 336 11.28 336 14 C337.32 14 338.64 14 340 14 C340 11.36 340 8.72 340 6 C342.64 6 345.28 6 348 6 C348 11.28 348 16.56 348 22 C353.28 22 358.56 22 364 22 C364 24.64 364 27.28 364 30 C365.32 30 366.64 30 368 30 C368 28.68 368 27.36 368 26 C369.32 26 370.64 26 372 26 C372 24.68 372 23.36 372 22 C373.32 22 374.64 22 376 22 C376 27.28 376 32.56 376 38 C377.32 38 378.64 38 380 38 C380 36.68 380 35.36 380 34 C381.32 34 382.64 34 384 34 C384 30.04 384 26.08 384 22 C385.32 22 386.64 22 388 22 C388 25.96 388 29.92 388 34 C389.32 34 390.64 34 392 34 C392 35.32 392 36.64 392 38 C390.68 38 389.36 38 388 38 C388 40.64 388 43.28 388 46 C382.72 46 377.44 46 372 46 C372 44.68 372 43.36 372 42 C370.68 42 369.36 42 368 42 C368 43.32 368 44.64 368 46 C361.4 46 354.8 46 348 46 C348 42.04 348 38.08 348 34 C350.64 34 353.28 34 356 34 C356 32.68 356 31.36 356 30 C353.36 30 350.72 30 348 30 C348 28.68 348 27.36 348 26 C346.68 26 345.36 26 344 26 C344 39.2 344 52.4 344 66 C363.8 66 383.6 66 404 66 C404 68.64 404 71.28 404 74 C400.04 74 396.08 74 392 74 C392 72.68 392 71.36 392 70 C390.68 70 389.36 70 388 70 C388 71.32 388 72.64 388 74 C381.4 74 374.8 74 368 74 C368 72.68 368 71.36 368 70 C366.68 70 365.36 70 364 70 C364 71.32 364 72.64 364 74 C356.08 74 348.16 74 340 74 C340 80.6 340 87.2 340 94 C341.32 94 342.64 94 344 94 C344 91.36 344 88.72 344 86 C350.6 86 357.2 86 364 86 C364 89.96 364 93.92 364 98 C365.32 98 366.64 98 368 98 C368 94.04 368 90.08 368 86 C374.6 86 381.2 86 388 86 C388 88.64 388 91.28 388 94 C386.68 94 385.36 94 384 94 C384 95.32 384 96.64 384 98 C385.32 98 386.64 98 388 98 C388 103.28 388 108.56 388 114 C391.96 114 395.92 114 400 114 C400 116.64 400 119.28 400 122 C396.04 122 392.08 122 388 122 C388 120.68 388 119.36 388 118 C381.4 118 374.8 118 368 118 C368 115.36 368 112.72 368 110 C366.68 110 365.36 110 364 110 C364 112.64 364 115.28 364 118 C354.76 118 345.52 118 336 118 C336 120.64 336 123.28 336 126 C334.68 126 333.36 126 332 126 C332 127.32 332 128.64 332 130 C334.64 130 337.28 130 340 130 C340 131.32 340 132.64 340 134 C341.32 134 342.64 134 344 134 C344 132.68 344 131.36 344 130 C345.32 130 346.64 130 348 130 C348 127.36 348 124.72 348 122 C351.96 122 355.92 122 360 122 C360 129.92 360 137.84 360 146 C361.32 146 362.64 146 364 146 C364 142.04 364 138.08 364 134 C365.32 134 366.64 134 368 134 C368 132.68 368 131.36 368 130 C373.28 130 378.56 130 384 130 C384 131.32 384 132.64 384 134 C385.32 134 386.64 134 388 134 C388 135.32 388 136.64 388 138 C389.32 138 390.64 138 392 138 C392 135.36 392 132.72 392 130 C394.64 130 397.28 130 400 130 C400 137.92 400 145.84 400 154 C397.36 154 394.72 154 392 154 C392 152.68 392 151.36 392 150 C390.68 150 389.36 150 388 150 C388 151.32 388 152.64 388 154 C385.36 154 382.72 154 380 154 C380 150.04 380 146.08 380 142 C378.68 142 377.36 142 376 142 C376 145.96 376 149.92 376 154 C368.08 154 360.16 154 352 154 C352 155.32 352 156.64 352 158 C353.32 158 354.64 158 356 158 C356 159.32 356 160.64 356 162 C357.32 162 358.64 162 360 162 C360 164.64 360 167.28 360 170 C361.32 170 362.64 170 364 170 C364 173.96 364 177.92 364 182 C350.8 182 337.6 182 324 182 C324 183.32 324 184.64 324 186 C325.32 186 326.64 186 328 186 C328 189.96 328 193.92 328 198 C329.32 198 330.64 198 332 198 C332 201.96 332 205.92 332 210 C330.68 210 329.36 210 328 210 C328 212.64 328 215.28 328 218 C325.36 218 322.72 218 320 218 C320 216.68 320 215.36 320 214 C318.68 214 317.36 214 316 214 C316 212.68 316 211.36 316 210 C314.68 210 313.36 210 312 210 C312 208.68 312 207.36 312 206 C310.68 206 309.36 206 308 206 C308 208.64 308 211.28 308 214 C306.68 214 305.36 214 304 214 C304 219.28 304 224.56 304 230 C302.68 230 301.36 230 300 230 C300 235.28 300 240.56 300 246 C298.68 246 297.36 246 296 246 C296 255.24 296 264.48 296 274 C292.04 274 288.08 274 284 274 C284 272.68 284 271.36 284 270 C282.68 270 281.36 270 280 270 C280 267.36 280 264.72 280 262 C278.68 262 277.36 262 276 262 C276 260.68 276 259.36 276 258 C274.68 258 273.36 258 272 258 C272 260.64 272 263.28 272 266 C270.68 266 269.36 266 268 266 C268 267.32 268 268.64 268 270 C266.68 270 265.36 270 264 270 C264 271.32 264 272.64 264 274 C262.68 274 261.36 274 260 274 C260 275.32 260 276.64 260 278 C258.68 278 257.36 278 256 278 C256 279.32 256 280.64 256 282 C254.68 282 253.36 282 252 282 C252 283.32 252 284.64 252 286 C250.68 286 249.36 286 248 286 C248 287.32 248 288.64 248 290 C246.68 290 245.36 290 244 290 C244 291.32 244 292.64 244 294 C242.68 294 241.36 294 240 294 C240 295.32 240 296.64 240 298 C238.68 298 237.36 298 236 298 C236 299.32 236 300.64 236 302 C234.68 302 233.36 302 232 302 C232 303.32 232 304.64 232 306 C230.68 306 229.36 306 228 306 C228 313.92 228 321.84 228 330 C226.68 330 225.36 330 224 330 C224 331.32 224 332.64 224 334 C222.68 334 221.36 334 220 334 C220 335.32 220 336.64 220 338 C222.64 338 225.28 338 228 338 C228 343.28 228 348.56 228 354 C221.4 354 214.8 354 208 354 C208 352.68 208 351.36 208 350 C205.36 350 202.72 350 200 350 C200 353.96 200 357.92 200 362 C196.04 362 192.08 362 188 362 C188 358.04 188 354.08 188 350 C189.32 350 190.64 350 192 350 C192 346.04 192 342.08 192 338 C190.68 338 189.36 338 188 338 C188 340.64 188 343.28 188 346 C186.68 346 185.36 346 184 346 C184 348.64 184 351.28 184 354 C182.68 354 181.36 354 180 354 C180 355.32 180 356.64 180 358 C181.32 358 182.64 358 184 358 C184 359.32 184 360.64 184 362 C182.68 362 181.36 362 180 362 C180 363.32 180 364.64 180 366 C117.96 366 55.92 366 -8 366 C-8 364.68 -8 363.36 -8 362 C-9.32 362 -10.64 362 -12 362 C-12 359.36 -12 356.72 -12 354 C-15.96 354 -19.92 354 -24 354 C-24 352.68 -24 351.36 -24 350 C-22.68 350 -21.36 350 -20 350 C-20 348.68 -20 347.36 -20 346 C-21.32 346 -22.64 346 -24 346 C-24 344.68 -24 343.36 -24 342 C-30.6 342 -37.2 342 -44 342 C-44 340.68 -44 339.36 -44 338 C-49.28 338 -54.56 338 -60 338 C-60 336.68 -60 335.36 -60 334 C-70.56 334 -81.12 334 -92 334 C-92 331.36 -92 328.72 -92 326 C-90.68 326 -89.36 326 -88 326 C-88 320.72 -88 315.44 -88 310 C-89.32 310 -90.64 310 -92 310 C-92 300.76 -92 291.52 -92 282 C-90.68 282 -89.36 282 -88 282 C-88 278.04 -88 274.08 -88 270 C-89.32 270 -90.64 270 -92 270 C-92 267.36 -92 264.72 -92 262 C-90.68 262 -89.36 262 -88 262 C-88 260.68 -88 259.36 -88 258 C-90.64 258 -93.28 258 -96 258 C-96 259.32 -96 260.64 -96 262 C-98.64 262 -101.28 262 -104 262 C-104 263.32 -104 264.64 -104 266 C-102.68 266 -101.36 266 -100 266 C-100 273.92 -100 281.84 -100 290 C-98.68 290 -97.36 290 -96 290 C-96 292.64 -96 295.28 -96 298 C-109.2 298 -122.4 298 -136 298 C-136 295.36 -136 292.72 -136 290 C-134.68 290 -133.36 290 -132 290 C-132 282.08 -132 274.16 -132 266 C-129.36 266 -126.72 266 -124 266 C-124 273.92 -124 281.84 -124 290 C-118.72 290 -113.44 290 -108 290 C-108 283.4 -108 276.8 -108 270 C-109.32 270 -110.64 270 -112 270 C-112 268.68 -112 267.36 -112 266 C-110.68 266 -109.36 266 -108 266 C-108 264.68 -108 263.36 -108 262 C-109.32 262 -110.64 262 -112 262 C-112 260.68 -112 259.36 -112 258 C-113.32 258 -114.64 258 -116 258 C-116 255.36 -116 252.72 -116 250 C-112.04 250 -108.08 250 -104 250 C-104 248.68 -104 247.36 -104 246 C-106.64 246 -109.28 246 -112 246 C-112 243.36 -112 240.72 -112 238 C-108.04 238 -104.08 238 -100 238 C-100 239.32 -100 240.64 -100 242 C-98.68 242 -97.36 242 -96 242 C-96 243.32 -96 244.64 -96 246 C-94.68 246 -93.36 246 -92 246 C-92 244.68 -92 243.36 -92 242 C-90.68 242 -89.36 242 -88 242 C-88 239.36 -88 236.72 -88 234 C-89.32 234 -90.64 234 -92 234 C-92 230.04 -92 226.08 -92 222 C-93.32 222 -94.64 222 -96 222 C-96 223.32 -96 224.64 -96 226 C-107.88 226 -119.76 226 -132 226 C-132 232.6 -132 239.2 -132 246 C-130.68 246 -129.36 246 -128 246 C-128 243.36 -128 240.72 -128 238 C-125.36 238 -122.72 238 -120 238 C-120 245.92 -120 253.84 -120 262 C-121.32 262 -122.64 262 -124 262 C-124 260.68 -124 259.36 -124 258 C-125.32 258 -126.64 258 -128 258 C-128 259.32 -128 260.64 -128 262 C-130.64 262 -133.28 262 -136 262 C-136 260.68 -136 259.36 -136 258 C-138.64 258 -141.28 258 -144 258 C-144 259.32 -144 260.64 -144 262 C-147.96 262 -151.92 262 -156 262 C-156 260.68 -156 259.36 -156 258 C-157.32 258 -158.64 258 -160 258 C-160 252.72 -160 247.44 -160 242 C-158.68 242 -157.36 242 -156 242 C-156 240.68 -156 239.36 -156 238 C-150.72 238 -145.44 238 -140 238 C-140 235.36 -140 232.72 -140 230 C-138.68 230 -137.36 230 -136 230 C-136 226.04 -136 222.08 -136 218 C-134.68 218 -133.36 218 -132 218 C-132 215.36 -132 212.72 -132 210 C-133.32 210 -134.64 210 -136 210 C-136 207.36 -136 204.72 -136 202 C-134.68 202 -133.36 202 -132 202 C-132 199.36 -132 196.72 -132 194 C-130.68 194 -129.36 194 -128 194 C-128 190.04 -128 186.08 -128 182 C-126.68 182 -125.36 182 -124 182 C-124 179.36 -124 176.72 -124 174 C-126.64 174 -129.28 174 -132 174 C-132 179.28 -132 184.56 -132 190 C-133.32 190 -134.64 190 -136 190 C-136 188.68 -136 187.36 -136 186 C-137.32 186 -138.64 186 -140 186 C-140 184.68 -140 183.36 -140 182 C-138.68 182 -137.36 182 -136 182 C-136 180.68 -136 179.36 -136 178 C-137.32 178 -138.64 178 -140 178 C-140 176.68 -140 175.36 -140 174 C-143.96 174 -147.92 174 -152 174 C-152 177.96 -152 181.92 -152 186 C-153.32 186 -154.64 186 -156 186 C-156 187.32 -156 188.64 -156 190 C-157.32 190 -158.64 190 -160 190 C-160 182.08 -160 174.16 -160 166 C-153.4 166 -146.8 166 -140 166 C-140 167.32 -140 168.64 -140 170 C-138.68 170 -137.36 170 -136 170 C-136 168.68 -136 167.36 -136 166 C-130.72 166 -125.44 166 -120 166 C-120 162.04 -120 158.08 -120 154 C-123.96 154 -127.92 154 -132 154 C-132 152.68 -132 151.36 -132 150 C-135.96 150 -139.92 150 -144 150 C-144 151.32 -144 152.64 -144 154 C-149.28 154 -154.56 154 -160 154 C-160 152.68 -160 151.36 -160 150 C-161.32 150 -162.64 150 -164 150 C-164 151.32 -164 152.64 -164 154 C-169.28 154 -174.56 154 -180 154 C-180 152.68 -180 151.36 -180 150 C-182.64 150 -185.28 150 -188 150 C-188 155.28 -188 160.56 -188 166 C-189.32 166 -190.64 166 -192 166 C-192 169.96 -192 173.92 -192 178 C-190.68 178 -189.36 178 -188 178 C-188 181.96 -188 185.92 -188 190 C-189.32 190 -190.64 190 -192 190 C-192 188.68 -192 187.36 -192 186 C-194.64 186 -197.28 186 -200 186 C-200 187.32 -200 188.64 -200 190 C-201.32 190 -202.64 190 -204 190 C-204 188.68 -204 187.36 -204 186 C-205.32 186 -206.64 186 -208 186 C-208 176.76 -208 167.52 -208 158 C-205.36 158 -202.72 158 -200 158 C-200 159.32 -200 160.64 -200 162 C-198.68 162 -197.36 162 -196 162 C-196 160.68 -196 159.36 -196 158 C-194.68 158 -193.36 158 -192 158 C-192 152.72 -192 147.44 -192 142 C-194.64 142 -197.28 142 -200 142 C-200 145.96 -200 149.92 -200 154 C-202.64 154 -205.28 154 -208 154 C-208 143.44 -208 132.88 -208 122 C-206.68 122 -205.36 122 -204 122 C-204 118.04 -204 114.08 -204 110 C-205.32 110 -206.64 110 -208 110 C-208 103.4 -208 96.8 -208 90 C-206.68 90 -205.36 90 -204 90 C-204 88.68 -204 87.36 -204 86 C-202.68 86 -201.36 86 -200 86 C-200 84.68 -200 83.36 -200 82 C-197.36 82 -194.72 82 -192 82 C-192 83.32 -192 84.64 -192 86 C-190.68 86 -189.36 86 -188 86 C-188 87.32 -188 88.64 -188 90 C-186.68 90 -185.36 90 -184 90 C-184 88.68 -184 87.36 -184 86 C-181.36 86 -178.72 86 -176 86 C-176 84.68 -176 83.36 -176 82 C-173.36 82 -170.72 82 -168 82 C-168 83.32 -168 84.64 -168 86 C-166.68 86 -165.36 86 -164 86 C-164 88.64 -164 91.28 -164 94 C-166.64 94 -169.28 94 -172 94 C-172 95.32 -172 96.64 -172 98 C-169.36 98 -166.72 98 -164 98 C-164 103.28 -164 108.56 -164 114 C-165.32 114 -166.64 114 -168 114 C-168 115.32 -168 116.64 -168 118 C-171.96 118 -175.92 118 -180 118 C-180 116.68 -180 115.36 -180 114 C-181.32 114 -182.64 114 -184 114 C-184 111.36 -184 108.72 -184 106 C-185.32 106 -186.64 106 -188 106 C-188 108.64 -188 111.28 -188 114 C-189.32 114 -190.64 114 -192 114 C-192 115.32 -192 116.64 -192 118 C-190.68 118 -189.36 118 -188 118 C-188 119.32 -188 120.64 -188 122 C-186.68 122 -185.36 122 -184 122 C-184 123.32 -184 124.64 -184 126 C-185.32 126 -186.64 126 -188 126 C-188 127.32 -188 128.64 -188 130 C-177.44 130 -166.88 130 -156 130 C-156 128.68 -156 127.36 -156 126 C-154.68 126 -153.36 126 -152 126 C-152 124.68 -152 123.36 -152 122 C-149.36 122 -146.72 122 -144 122 C-144 120.68 -144 119.36 -144 118 C-141.36 118 -138.72 118 -136 118 C-136 116.68 -136 115.36 -136 114 C-134.68 114 -133.36 114 -132 114 C-132 112.68 -132 111.36 -132 110 C-129.36 110 -126.72 110 -124 110 C-124 108.68 -124 107.36 -124 106 C-122.68 106 -121.36 106 -120 106 C-120 104.68 -120 103.36 -120 102 C-118.68 102 -117.36 102 -116 102 C-116 99.36 -116 96.72 -116 94 C-117.32 94 -118.64 94 -120 94 C-120 92.68 -120 91.36 -120 90 C-122.64 90 -125.28 90 -128 90 C-128 88.68 -128 87.36 -128 86 C-131.96 86 -135.92 86 -140 86 C-140 84.68 -140 83.36 -140 82 C-141.32 82 -142.64 82 -144 82 C-144 80.68 -144 79.36 -144 78 C-147.96 78 -151.92 78 -156 78 C-156 76.68 -156 75.36 -156 74 C-157.32 74 -158.64 74 -160 74 C-160 72.68 -160 71.36 -160 70 C-175.84 70 -191.68 70 -208 70 C-208 68.68 -208 67.36 -208 66 C-206.68 66 -205.36 66 -204 66 C-204 64.68 -204 63.36 -204 62 C-198.72 62 -193.44 62 -188 62 C-188 63.32 -188 64.64 -188 66 C-185.36 66 -182.72 66 -180 66 C-180 64.68 -180 63.36 -180 62 C-172.08 62 -164.16 62 -156 62 C-156 60.68 -156 59.36 -156 58 C-153.36 58 -150.72 58 -148 58 C-148 56.68 -148 55.36 -148 54 C-138.76 54 -129.52 54 -120 54 C-120 52.68 -120 51.36 -120 50 C-108.12 50 -96.24 50 -84 50 C-84 47.36 -84 44.72 -84 42 C-85.32 42 -86.64 42 -88 42 C-88 40.68 -88 39.36 -88 38 C-89.32 38 -90.64 38 -92 38 C-92 39.32 -92 40.64 -92 42 C-93.32 42 -94.64 42 -96 42 C-96 43.32 -96 44.64 -96 46 C-101.28 46 -106.56 46 -112 46 C-112 44.68 -112 43.36 -112 42 C-114.64 42 -117.28 42 -120 42 C-120 43.32 -120 44.64 -120 46 C-123.96 46 -127.92 46 -132 46 C-132 44.68 -132 43.36 -132 42 C-133.32 42 -134.64 42 -136 42 C-136 39.36 -136 36.72 -136 34 C-137.32 34 -138.64 34 -140 34 C-140 36.64 -140 39.28 -140 42 C-141.32 42 -142.64 42 -144 42 C-144 43.32 -144 44.64 -144 46 C-147.96 46 -151.92 46 -156 46 C-156 44.68 -156 43.36 -156 42 C-157.32 42 -158.64 42 -160 42 C-160 35.4 -160 28.8 -160 22 C-153.4 22 -146.8 22 -140 22 C-140 24.64 -140 27.28 -140 30 C-138.68 30 -137.36 30 -136 30 C-136 23.4 -136 16.8 -136 10 C-134.68 10 -133.36 10 -132 10 C-132 11.32 -132 12.64 -132 14 C-130.68 14 -129.36 14 -128 14 C-128 16.64 -128 19.28 -128 22 C-125.36 22 -122.72 22 -120 22 C-120 24.64 -120 27.28 -120 30 C-122.64 30 -125.28 30 -128 30 C-128 32.64 -128 35.28 -128 38 C-126.68 38 -125.36 38 -124 38 C-124 36.68 -124 35.36 -124 34 C-122.68 34 -121.36 34 -120 34 C-120 35.32 -120 36.64 -120 38 C-118.68 38 -117.36 38 -116 38 C-116 31.4 -116 24.8 -116 18 C-114.68 18 -113.36 18 -112 18 C-112 15.36 -112 12.72 -112 10 C-109.36 10 -106.72 10 -104 10 C-104 11.32 -104 12.64 -104 14 C-100.04 14 -96.08 14 -92 14 C-92 12.68 -92 11.36 -92 10 C-61.64 10 -31.28 10 0 10 C0 9.01 0 8.02 0 7 C-1.32 7 -2.64 7 -4 7 C-4 5.68 -4 4.36 -4 3 C-2.68 3 -1.36 3 0 3 C0 2.01 0 1.02 0 0 Z M0 3 C0 3.99 0 4.98 0 6 C1.32 6 2.64 6 4 6 C4 5.01 4 4.02 4 3 C2.68 3 1.36 3 0 3 Z M304 10 C304 12.64 304 15.28 304 18 C305.32 18 306.64 18 308 18 C308 24.6 308 31.2 308 38 C309.32 38 310.64 38 312 38 C312 30.08 312 22.16 312 14 C310.68 14 309.36 14 308 14 C308 12.68 308 11.36 308 10 C306.68 10 305.36 10 304 10 Z M-96 18 C-96 19.32 -96 20.64 -96 22 C-94.68 22 -93.36 22 -92 22 C-92 20.68 -92 19.36 -92 18 C-93.32 18 -94.64 18 -96 18 Z M72 18 C72 19.32 72 20.64 72 22 C73.32 22 74.64 22 76 22 C76 20.68 76 19.36 76 18 C74.68 18 73.36 18 72 18 Z M332 18 C332 20.64 332 23.28 332 26 C333.32 26 334.64 26 336 26 C336 23.36 336 20.72 336 18 C334.68 18 333.36 18 332 18 Z M-92 22 C-92 23.32 -92 24.64 -92 26 C-90.68 26 -89.36 26 -88 26 C-88 24.68 -88 23.36 -88 22 C-89.32 22 -90.64 22 -92 22 Z M-88 26 C-88 27.32 -88 28.64 -88 30 C-86.68 30 -85.36 30 -84 30 C-84 28.68 -84 27.36 -84 26 C-85.32 26 -86.64 26 -88 26 Z M328 26 C328 27.32 328 28.64 328 30 C329.32 30 330.64 30 332 30 C332 28.68 332 27.36 332 26 C330.68 26 329.36 26 328 26 Z M-152 30 C-152 31.32 -152 32.64 -152 34 C-150.68 34 -149.36 34 -148 34 C-148 32.68 -148 31.36 -148 30 C-149.32 30 -150.64 30 -152 30 Z M-76 34 C-76 35.32 -76 36.64 -76 38 C-74.68 38 -73.36 38 -72 38 C-72 36.68 -72 35.36 -72 34 C-73.32 34 -74.64 34 -76 34 Z M72 34 C72 35.32 72 36.64 72 38 C73.32 38 74.64 38 76 38 C76 36.68 76 35.36 76 34 C74.68 34 73.36 34 72 34 Z M-72 38 C-72 39.32 -72 40.64 -72 42 C-70.68 42 -69.36 42 -68 42 C-68 40.68 -68 39.36 -68 38 C-69.32 38 -70.64 38 -72 38 Z M332 38 C332 39.32 332 40.64 332 42 C333.32 42 334.64 42 336 42 C336 40.68 336 39.36 336 38 C334.68 38 333.36 38 332 38 Z M64 42 C64 43.32 64 44.64 64 46 C65.32 46 66.64 46 68 46 C68 44.68 68 43.36 68 42 C66.68 42 65.36 42 64 42 Z M320 42 C320 43.32 320 44.64 320 46 C321.32 46 322.64 46 324 46 C324 44.68 324 43.36 324 42 C322.68 42 321.36 42 320 42 Z M-60 46 C-60 48.64 -60 51.28 -60 54 C-62.64 54 -65.28 54 -68 54 C-68 55.32 -68 56.64 -68 58 C-69.32 58 -70.64 58 -72 58 C-72 59.32 -72 60.64 -72 62 C-69.36 62 -66.72 62 -64 62 C-64 60.68 -64 59.36 -64 58 C-60.04 58 -56.08 58 -52 58 C-52 55.36 -52 52.72 -52 50 C-53.32 50 -54.64 50 -56 50 C-56 48.68 -56 47.36 -56 46 C-57.32 46 -58.64 46 -60 46 Z M-16 46 C-16 47.32 -16 48.64 -16 50 C-14.68 50 -13.36 50 -12 50 C-12 48.68 -12 47.36 -12 46 C-13.32 46 -14.64 46 -16 46 Z M220 46 C220 47.32 220 48.64 220 50 C221.32 50 222.64 50 224 50 C224 48.68 224 47.36 224 46 C222.68 46 221.36 46 220 46 Z M304 46 C304 52.6 304 59.2 304 66 C305.32 66 306.64 66 308 66 C308 63.36 308 60.72 308 58 C309.32 58 310.64 58 312 58 C312 56.68 312 55.36 312 54 C313.32 54 314.64 54 316 54 C316 52.68 316 51.36 316 50 C317.32 50 318.64 50 320 50 C320 48.68 320 47.36 320 46 C314.72 46 309.44 46 304 46 Z M20 50 C20 51.32 20 52.64 20 54 C21.32 54 22.64 54 24 54 C24 52.68 24 51.36 24 50 C22.68 50 21.36 50 20 50 Z M-104 58 C-104 59.32 -104 60.64 -104 62 C-94.76 62 -85.52 62 -76 62 C-76 60.68 -76 59.36 -76 58 C-85.24 58 -94.48 58 -104 58 Z M68 58 C68 59.32 68 60.64 68 62 C69.32 62 70.64 62 72 62 C72 60.68 72 59.36 72 58 C70.68 58 69.36 58 68 58 Z M72 62 C72 63.32 72 64.64 72 66 C73.32 66 74.64 66 76 66 C76 64.68 76 63.36 76 62 C74.68 62 73.36 62 72 62 Z M-144 66 C-144 67.32 -144 68.64 -144 70 C-142.68 70 -141.36 70 -140 70 C-140 68.68 -140 67.36 -140 66 C-141.32 66 -142.64 66 -144 66 Z M-136 70 C-136 71.32 -136 72.64 -136 74 C-134.68 74 -133.36 74 -132 74 C-132 72.68 -132 71.36 -132 70 C-133.32 70 -134.64 70 -136 70 Z M92 70 C92 71.32 92 72.64 92 74 C93.32 74 94.64 74 96 74 C96 72.68 96 71.36 96 70 C94.68 70 93.36 70 92 70 Z M-128 74 C-128 75.32 -128 76.64 -128 78 C-125.36 78 -122.72 78 -120 78 C-120 79.32 -120 80.64 -120 82 C-116.04 82 -112.08 82 -108 82 C-108 83.32 -108 84.64 -108 86 C-104.04 86 -100.08 86 -96 86 C-96 87.32 -96 88.64 -96 90 C-94.68 90 -93.36 90 -92 90 C-92 92.64 -92 95.28 -92 98 C-89.36 98 -86.72 98 -84 98 C-84 96.68 -84 95.36 -84 94 C-82.68 94 -81.36 94 -80 94 C-80 92.68 -80 91.36 -80 90 C-78.68 90 -77.36 90 -76 90 C-76 88.68 -76 87.36 -76 86 C-79.96 86 -83.92 86 -88 86 C-88 84.68 -88 83.36 -88 82 C-93.28 82 -98.56 82 -104 82 C-104 80.68 -104 79.36 -104 78 C-107.96 78 -111.92 78 -116 78 C-116 76.68 -116 75.36 -116 74 C-119.96 74 -123.92 74 -128 74 Z M328 74 C328 80.6 328 87.2 328 94 C329.32 94 330.64 94 332 94 C332 87.4 332 80.8 332 74 C330.68 74 329.36 74 328 74 Z M-176 90 C-176 91.32 -176 92.64 -176 94 C-174.68 94 -173.36 94 -172 94 C-172 92.68 -172 91.36 -172 90 C-173.32 90 -174.64 90 -176 90 Z M-200 94 C-200 97.96 -200 101.92 -200 106 C-197.36 106 -194.72 106 -192 106 C-192 102.04 -192 98.08 -192 94 C-194.64 94 -197.28 94 -200 94 Z M-12 94 C-12 95.32 -12 96.64 -12 98 C-10.68 98 -9.36 98 -8 98 C-8 96.68 -8 95.36 -8 94 C-9.32 94 -10.64 94 -12 94 Z M324 94 C324 100.6 324 107.2 324 114 C325.32 114 326.64 114 328 114 C328 107.4 328 100.8 328 94 C326.68 94 325.36 94 324 94 Z M-188 98 C-188 99.32 -188 100.64 -188 102 C-186.68 102 -185.36 102 -184 102 C-184 100.68 -184 99.36 -184 98 C-185.32 98 -186.64 98 -188 98 Z M-96 98 C-96 99.32 -96 100.64 -96 102 C-94.68 102 -93.36 102 -92 102 C-92 100.68 -92 99.36 -92 98 C-93.32 98 -94.64 98 -96 98 Z M112 98 C112 99.32 112 100.64 112 102 C113.32 102 114.64 102 116 102 C116 100.68 116 99.36 116 98 C114.68 98 113.36 98 112 98 Z M-184 102 C-184 103.32 -184 104.64 -184 106 C-181.36 106 -178.72 106 -176 106 C-176 104.68 -176 103.36 -176 102 C-178.64 102 -181.28 102 -184 102 Z M-100 102 C-100 103.32 -100 104.64 -100 106 C-98.68 106 -97.36 106 -96 106 C-96 104.68 -96 103.36 -96 102 C-97.32 102 -98.64 102 -100 102 Z M340 102 C340 105.96 340 109.92 340 114 C341.32 114 342.64 114 344 114 C344 110.04 344 106.08 344 102 C342.68 102 341.36 102 340 102 Z M-176 106 C-176 107.32 -176 108.64 -176 110 C-174.68 110 -173.36 110 -172 110 C-172 108.68 -172 107.36 -172 106 C-173.32 106 -174.64 106 -176 106 Z M-108 106 C-108 107.32 -108 108.64 -108 110 C-105.36 110 -102.72 110 -100 110 C-100 108.68 -100 107.36 -100 106 C-102.64 106 -105.28 106 -108 106 Z M40 106 C40 107.32 40 108.64 40 110 C43.96 110 47.92 110 52 110 C52 108.68 52 107.36 52 106 C48.04 106 44.08 106 40 106 Z M352 106 C352 107.32 352 108.64 352 110 C353.32 110 354.64 110 356 110 C356 108.68 356 107.36 356 106 C354.68 106 353.36 106 352 106 Z M-112 110 C-112 111.32 -112 112.64 -112 114 C-110.68 114 -109.36 114 -108 114 C-108 112.68 -108 111.36 -108 110 C-109.32 110 -110.64 110 -112 110 Z M-20 110 C-20 111.32 -20 112.64 -20 114 C-18.68 114 -17.36 114 -16 114 C-16 112.68 -16 111.36 -16 110 C-17.32 110 -18.64 110 -20 110 Z M16 110 C16 111.32 16 112.64 16 114 C17.32 114 18.64 114 20 114 C20 112.68 20 111.36 20 110 C18.68 110 17.36 110 16 110 Z M-116 114 C-116 115.32 -116 116.64 -116 118 C-114.68 118 -113.36 118 -112 118 C-112 116.68 -112 115.36 -112 114 C-113.32 114 -114.64 114 -116 114 Z M320 114 C320 117.96 320 121.92 320 126 C318.68 126 317.36 126 316 126 C316 128.64 316 131.28 316 134 C314.68 134 313.36 134 312 134 C312 136.64 312 139.28 312 142 C310.68 142 309.36 142 308 142 C308 144.64 308 147.28 308 150 C306.68 150 305.36 150 304 150 C304 152.64 304 155.28 304 158 C311.92 158 319.84 158 328 158 C328 156.68 328 155.36 328 154 C322.72 154 317.44 154 312 154 C312 151.36 312 148.72 312 146 C313.32 146 314.64 146 316 146 C316 143.36 316 140.72 316 138 C317.32 138 318.64 138 320 138 C320 135.36 320 132.72 320 130 C321.32 130 322.64 130 324 130 C324 124.72 324 119.44 324 114 C322.68 114 321.36 114 320 114 Z M-200 118 C-200 121.96 -200 125.92 -200 130 C-197.36 130 -194.72 130 -192 130 C-192 126.04 -192 122.08 -192 118 C-194.64 118 -197.28 118 -200 118 Z M-124 118 C-124 119.32 -124 120.64 -124 122 C-121.36 122 -118.72 122 -116 122 C-116 120.68 -116 119.36 -116 118 C-118.64 118 -121.28 118 -124 118 Z M-132 122 C-132 124.64 -132 127.28 -132 130 C-130.68 130 -129.36 130 -128 130 C-128 127.36 -128 124.72 -128 122 C-129.32 122 -130.64 122 -132 122 Z M-88 122 C-88 123.32 -88 124.64 -88 126 C-86.68 126 -85.36 126 -84 126 C-84 124.68 -84 123.36 -84 122 C-85.32 122 -86.64 122 -88 122 Z M-24 122 C-24 123.32 -24 124.64 -24 126 C-22.68 126 -21.36 126 -20 126 C-20 124.68 -20 123.36 -20 122 C-21.32 122 -22.64 122 -24 122 Z M-100 126 C-100 127.32 -100 128.64 -100 130 C-105.28 130 -110.56 130 -116 130 C-116 131.32 -116 132.64 -116 134 C-112.04 134 -108.08 134 -104 134 C-104 135.32 -104 136.64 -104 138 C-102.68 138 -101.36 138 -100 138 C-100 140.64 -100 143.28 -100 146 C-98.68 146 -97.36 146 -96 146 C-96 142.04 -96 138.08 -96 134 C-94.68 134 -93.36 134 -92 134 C-92 132.68 -92 131.36 -92 130 C-90.68 130 -89.36 130 -88 130 C-88 128.68 -88 127.36 -88 126 C-91.96 126 -95.92 126 -100 126 Z M-44 126 C-44 127.32 -44 128.64 -44 130 C-42.68 130 -41.36 130 -40 130 C-40 128.68 -40 127.36 -40 126 C-41.32 126 -42.64 126 -44 126 Z M-136 134 C-136 135.32 -136 136.64 -136 138 C-130.72 138 -125.44 138 -120 138 C-120 136.68 -120 135.36 -120 134 C-125.28 134 -130.56 134 -136 134 Z M-60 134 C-60 135.32 -60 136.64 -60 138 C-62.64 138 -65.28 138 -68 138 C-68 139.32 -68 140.64 -68 142 C-69.32 142 -70.64 142 -72 142 C-72 143.32 -72 144.64 -72 146 C-74.64 146 -77.28 146 -80 146 C-80 147.32 -80 148.64 -80 150 C-82.64 150 -85.28 150 -88 150 C-88 151.32 -88 152.64 -88 154 C-84.04 154 -80.08 154 -76 154 C-76 160.6 -76 167.2 -76 174 C-73.36 174 -70.72 174 -68 174 C-68 172.68 -68 171.36 -68 170 C-69.32 170 -70.64 170 -72 170 C-72 168.68 -72 167.36 -72 166 C-69.36 166 -66.72 166 -64 166 C-64 164.68 -64 163.36 -64 162 C-65.32 162 -66.64 162 -68 162 C-68 160.68 -68 159.36 -68 158 C-66.68 158 -65.36 158 -64 158 C-64 155.36 -64 152.72 -64 150 C-62.68 150 -61.36 150 -60 150 C-60 148.68 -60 147.36 -60 146 C-58.68 146 -57.36 146 -56 146 C-56 142.04 -56 138.08 -56 134 C-57.32 134 -58.64 134 -60 134 Z M-28 134 C-28 135.32 -28 136.64 -28 138 C-26.68 138 -25.36 138 -24 138 C-24 136.68 -24 135.36 -24 134 C-25.32 134 -26.64 134 -28 134 Z M-176 138 C-176 140.64 -176 143.28 -176 146 C-174.68 146 -173.36 146 -172 146 C-172 143.36 -172 140.72 -172 138 C-173.32 138 -174.64 138 -176 138 Z M-156 138 C-156 139.32 -156 140.64 -156 142 C-154.68 142 -153.36 142 -152 142 C-152 140.68 -152 139.36 -152 138 C-153.32 138 -154.64 138 -156 138 Z M344 138 C344 140.64 344 143.28 344 146 C345.32 146 346.64 146 348 146 C348 143.36 348 140.72 348 138 C346.68 138 345.36 138 344 138 Z M-32 142 C-32 143.32 -32 144.64 -32 146 C-30.68 146 -29.36 146 -28 146 C-28 144.68 -28 143.36 -28 142 C-29.32 142 -30.64 142 -32 142 Z M328 142 C328 143.32 328 144.64 328 146 C329.32 146 330.64 146 332 146 C332 144.68 332 143.36 332 142 C330.68 142 329.36 142 328 142 Z M-120 146 C-120 148.64 -120 151.28 -120 154 C-118.68 154 -117.36 154 -116 154 C-116 151.36 -116 148.72 -116 146 C-117.32 146 -118.64 146 -120 146 Z M-104 146 C-104 147.32 -104 148.64 -104 150 C-102.68 150 -101.36 150 -100 150 C-100 148.68 -100 147.36 -100 146 C-101.32 146 -102.64 146 -104 146 Z M0 150 C0 151.32 0 152.64 0 154 C5.28 154 10.56 154 16 154 C16 152.68 16 151.36 16 150 C10.72 150 5.44 150 0 150 Z M20 150 C20 151.32 20 152.64 20 154 C25.28 154 30.56 154 36 154 C36 152.68 36 151.36 36 150 C30.72 150 25.44 150 20 150 Z M-96 158 C-96 159.32 -96 160.64 -96 162 C-94.68 162 -93.36 162 -92 162 C-92 160.68 -92 159.36 -92 158 C-93.32 158 -94.64 158 -96 158 Z M300 158 C300 159.32 300 160.64 300 162 C301.32 162 302.64 162 304 162 C304 160.68 304 159.36 304 158 C302.68 158 301.36 158 300 158 Z M-112 162 C-112 163.32 -112 164.64 -112 166 C-110.68 166 -109.36 166 -108 166 C-108 164.68 -108 163.36 -108 162 C-109.32 162 -110.64 162 -112 162 Z M-100 162 C-100 163.32 -100 164.64 -100 166 C-98.68 166 -97.36 166 -96 166 C-96 164.68 -96 163.36 -96 162 C-97.32 162 -98.64 162 -100 162 Z M-52 162 C-52 163.32 -52 164.64 -52 166 C-50.68 166 -49.36 166 -48 166 C-48 164.68 -48 163.36 -48 162 C-49.32 162 -50.64 162 -52 162 Z M36 162 C36 163.32 36 164.64 36 166 C37.32 166 38.64 166 40 166 C40 164.68 40 163.36 40 162 C38.68 162 37.36 162 36 162 Z M-104 166 C-104 167.32 -104 168.64 -104 170 C-102.68 170 -101.36 170 -100 170 C-100 168.68 -100 167.36 -100 166 C-101.32 166 -102.64 166 -104 166 Z M324 166 C324 167.32 324 168.64 324 170 C327.96 170 331.92 170 336 170 C336 168.68 336 167.36 336 166 C332.04 166 328.08 166 324 166 Z M-108 170 C-108 171.32 -108 172.64 -108 174 C-106.68 174 -105.36 174 -104 174 C-104 172.68 -104 171.36 -104 170 C-105.32 170 -106.64 170 -108 170 Z M312 170 C312 171.32 312 172.64 312 174 C313.32 174 314.64 174 316 174 C316 172.68 316 171.36 316 170 C314.68 170 313.36 170 312 170 Z M348 170 C348 171.32 348 172.64 348 174 C349.32 174 350.64 174 352 174 C352 172.68 352 171.36 352 170 C350.68 170 349.36 170 348 170 Z M-116 174 C-116 177.96 -116 181.92 -116 186 C-114.68 186 -113.36 186 -112 186 C-112 182.04 -112 178.08 -112 174 C-113.32 174 -114.64 174 -116 174 Z M-80 174 C-80 177.96 -80 181.92 -80 186 C-78.68 186 -77.36 186 -76 186 C-76 182.04 -76 178.08 -76 174 C-77.32 174 -78.64 174 -80 174 Z M304 174 C304 175.32 304 176.64 304 178 C301.36 178 298.72 178 296 178 C296 179.32 296 180.64 296 182 C299.96 182 303.92 182 308 182 C308 179.36 308 176.72 308 174 C306.68 174 305.36 174 304 174 Z M-96 178 C-96 179.32 -96 180.64 -96 182 C-94.68 182 -93.36 182 -92 182 C-92 180.68 -92 179.36 -92 178 C-93.32 178 -94.64 178 -96 178 Z M24 182 C24 183.32 24 184.64 24 186 C25.32 186 26.64 186 28 186 C28 184.68 28 183.36 28 182 C26.68 182 25.36 182 24 182 Z M36 182 C36 183.32 36 184.64 36 186 C37.32 186 38.64 186 40 186 C40 184.68 40 183.36 40 182 C38.68 182 37.36 182 36 182 Z M144 182 C144 183.32 144 184.64 144 186 C146.64 186 149.28 186 152 186 C152 184.68 152 183.36 152 182 C149.36 182 146.72 182 144 182 Z M-84 186 C-84 187.32 -84 188.64 -84 190 C-82.68 190 -81.36 190 -80 190 C-80 188.68 -80 187.36 -80 186 C-81.32 186 -82.64 186 -84 186 Z M300 186 C300 187.32 300 188.64 300 190 C301.32 190 302.64 190 304 190 C304 188.68 304 187.36 304 186 C302.68 186 301.36 186 300 186 Z M-108 190 C-108 192.64 -108 195.28 -108 198 C-106.68 198 -105.36 198 -104 198 C-104 196.68 -104 195.36 -104 194 C-102.68 194 -101.36 194 -100 194 C-100 192.68 -100 191.36 -100 190 C-102.64 190 -105.28 190 -108 190 Z M-88 190 C-88 191.32 -88 192.64 -88 194 C-86.68 194 -85.36 194 -84 194 C-84 192.68 -84 191.36 -84 190 C-85.32 190 -86.64 190 -88 190 Z M-76 190 C-76 191.32 -76 192.64 -76 194 C-74.68 194 -73.36 194 -72 194 C-72 192.68 -72 191.36 -72 190 C-73.32 190 -74.64 190 -76 190 Z M292 190 C292 193.96 292 197.92 292 202 C293.32 202 294.64 202 296 202 C296 198.04 296 194.08 296 190 C294.68 190 293.36 190 292 190 Z M304 190 C304 191.32 304 192.64 304 194 C306.64 194 309.28 194 312 194 C312 192.68 312 191.36 312 190 C309.36 190 306.72 190 304 190 Z M-92 194 C-92 196.64 -92 199.28 -92 202 C-90.68 202 -89.36 202 -88 202 C-88 199.36 -88 196.72 -88 194 C-89.32 194 -90.64 194 -92 194 Z M-112 198 C-112 199.32 -112 200.64 -112 202 C-110.68 202 -109.36 202 -108 202 C-108 200.68 -108 199.36 -108 198 C-109.32 198 -110.64 198 -112 198 Z M-76 198 C-76 199.32 -76 200.64 -76 202 C-78.64 202 -81.28 202 -84 202 C-84 203.32 -84 204.64 -84 206 C-85.32 206 -86.64 206 -88 206 C-88 207.32 -88 208.64 -88 210 C-85.36 210 -82.72 210 -80 210 C-80 216.6 -80 223.2 -80 230 C-78.68 230 -77.36 230 -76 230 C-76 226.04 -76 222.08 -76 218 C-74.68 218 -73.36 218 -72 218 C-72 215.36 -72 212.72 -72 210 C-69.36 210 -66.72 210 -64 210 C-64 208.68 -64 207.36 -64 206 C-65.32 206 -66.64 206 -68 206 C-68 203.36 -68 200.72 -68 198 C-70.64 198 -73.28 198 -76 198 Z M-124 202 C-124 207.28 -124 212.56 -124 218 C-122.68 218 -121.36 218 -120 218 C-120 216.68 -120 215.36 -120 214 C-118.68 214 -117.36 214 -116 214 C-116 210.04 -116 206.08 -116 202 C-118.64 202 -121.28 202 -124 202 Z M-96 202 C-96 203.32 -96 204.64 -96 206 C-94.68 206 -93.36 206 -92 206 C-92 204.68 -92 203.36 -92 202 C-93.32 202 -94.64 202 -96 202 Z M-100 206 C-100 207.32 -100 208.64 -100 210 C-98.68 210 -97.36 210 -96 210 C-96 208.68 -96 207.36 -96 206 C-97.32 206 -98.64 206 -100 206 Z M-104 210 C-104 211.32 -104 212.64 -104 214 C-102.68 214 -101.36 214 -100 214 C-100 212.68 -100 211.36 -100 210 C-101.32 210 -102.64 210 -104 210 Z M292 214 C292 216.64 292 219.28 292 222 C293.32 222 294.64 222 296 222 C296 219.36 296 216.72 296 214 C294.68 214 293.36 214 292 214 Z M160 218 C160 220.64 160 223.28 160 226 C161.32 226 162.64 226 164 226 C164 223.36 164 220.72 164 218 C162.68 218 161.36 218 160 218 Z M136 222 C136 223.32 136 224.64 136 226 C137.32 226 138.64 226 140 226 C140 224.68 140 223.36 140 222 C138.68 222 137.36 222 136 222 Z M276 222 C276 224.64 276 227.28 276 230 C274.68 230 273.36 230 272 230 C272 232.64 272 235.28 272 238 C270.68 238 269.36 238 268 238 C268 240.64 268 243.28 268 246 C269.32 246 270.64 246 272 246 C272 244.68 272 243.36 272 242 C274.64 242 277.28 242 280 242 C280 235.4 280 228.8 280 222 C278.68 222 277.36 222 276 222 Z M156 230 C156 231.32 156 232.64 156 234 C157.32 234 158.64 234 160 234 C160 232.68 160 231.36 160 230 C158.68 230 157.36 230 156 230 Z M-76 234 C-76 236.64 -76 239.28 -76 242 C-74.68 242 -73.36 242 -72 242 C-72 239.36 -72 236.72 -72 234 C-73.32 234 -74.64 234 -76 234 Z M148 238 C148 239.32 148 240.64 148 242 C149.32 242 150.64 242 152 242 C152 240.68 152 239.36 152 238 C150.68 238 149.36 238 148 238 Z M-80 242 C-80 256.52 -80 271.04 -80 286 C-78.68 286 -77.36 286 -76 286 C-76 279.4 -76 272.8 -76 266 C-74.68 266 -73.36 266 -72 266 C-72 264.68 -72 263.36 -72 262 C-73.32 262 -74.64 262 -76 262 C-76 260.68 -76 259.36 -76 258 C-74.68 258 -73.36 258 -72 258 C-72 255.36 -72 252.72 -72 250 C-73.32 250 -74.64 250 -76 250 C-76 247.36 -76 244.72 -76 242 C-77.32 242 -78.64 242 -80 242 Z M280 242 C280 243.32 280 244.64 280 246 C281.32 246 282.64 246 284 246 C284 244.68 284 243.36 284 242 C282.68 242 281.36 242 280 242 Z M-152 246 C-152 248.64 -152 251.28 -152 254 C-150.68 254 -149.36 254 -148 254 C-148 252.68 -148 251.36 -148 250 C-145.36 250 -142.72 250 -140 250 C-140 248.68 -140 247.36 -140 246 C-143.96 246 -147.92 246 -152 246 Z M140 246 C140 247.32 140 248.64 140 250 C141.32 250 142.64 250 144 250 C144 248.68 144 247.36 144 246 C142.68 246 141.36 246 140 246 Z M264 246 C264 247.32 264 248.64 264 250 C265.32 250 266.64 250 268 250 C268 248.68 268 247.36 268 246 C266.68 246 265.36 246 264 246 Z M136 250 C136 251.32 136 252.64 136 254 C137.32 254 138.64 254 140 254 C140 252.68 140 251.36 140 250 C138.68 250 137.36 250 136 250 Z M260 250 C260 251.32 260 252.64 260 254 C261.32 254 262.64 254 264 254 C264 252.68 264 251.36 264 250 C262.68 250 261.36 250 260 250 Z M256 258 C256 259.32 256 260.64 256 262 C257.32 262 258.64 262 260 262 C260 260.68 260 259.36 260 258 C258.68 258 257.36 258 256 258 Z M252 262 C252 263.32 252 264.64 252 266 C253.32 266 254.64 266 256 266 C256 264.68 256 263.36 256 262 C254.68 262 253.36 262 252 262 Z M248 266 C248 267.32 248 268.64 248 270 C249.32 270 250.64 270 252 270 C252 268.68 252 267.36 252 266 C250.68 266 249.36 266 248 266 Z M92 270 C92 271.32 92 272.64 92 274 C93.32 274 94.64 274 96 274 C96 272.68 96 271.36 96 270 C94.68 270 93.36 270 92 270 Z M100 270 C100 271.32 100 272.64 100 274 C103.96 274 107.92 274 112 274 C112 272.68 112 271.36 112 270 C108.04 270 104.08 270 100 270 Z M244 270 C244 271.32 244 272.64 244 274 C245.32 274 246.64 274 248 274 C248 272.68 248 271.36 248 270 C246.68 270 245.36 270 244 270 Z M236 274 C236 275.32 236 276.64 236 278 C234.68 278 233.36 278 232 278 C232 279.32 232 280.64 232 282 C230.68 282 229.36 282 228 282 C228 283.32 228 284.64 228 286 C226.68 286 225.36 286 224 286 C224 287.32 224 288.64 224 290 C222.68 290 221.36 290 220 290 C220 291.32 220 292.64 220 294 C218.68 294 217.36 294 216 294 C216 295.32 216 296.64 216 298 C214.68 298 213.36 298 212 298 C212 300.64 212 303.28 212 306 C213.32 306 214.64 306 216 306 C216 304.68 216 303.36 216 302 C217.32 302 218.64 302 220 302 C220 300.68 220 299.36 220 298 C221.32 298 222.64 298 224 298 C224 296.68 224 295.36 224 294 C225.32 294 226.64 294 228 294 C228 292.68 228 291.36 228 290 C229.32 290 230.64 290 232 290 C232 288.68 232 287.36 232 286 C233.32 286 234.64 286 236 286 C236 284.68 236 283.36 236 282 C237.32 282 238.64 282 240 282 C240 280.68 240 279.36 240 278 C241.32 278 242.64 278 244 278 C244 276.68 244 275.36 244 274 C241.36 274 238.72 274 236 274 Z M-80 302 C-80 304.64 -80 307.28 -80 310 C-78.68 310 -77.36 310 -76 310 C-76 307.36 -76 304.72 -76 302 C-77.32 302 -78.64 302 -80 302 Z M208 306 C208 307.32 208 308.64 208 310 C209.32 310 210.64 310 212 310 C212 308.68 212 307.36 212 306 C210.68 306 209.36 306 208 306 Z M-76 310 C-76 311.32 -76 312.64 -76 314 C-74.68 314 -73.36 314 -72 314 C-72 312.68 -72 311.36 -72 310 C-73.32 310 -74.64 310 -76 310 Z M204 310 C204 311.32 204 312.64 204 314 C205.32 314 206.64 314 208 314 C208 312.68 208 311.36 208 310 C206.68 310 205.36 310 204 310 Z M-72 314 C-72 315.32 -72 316.64 -72 318 C-70.68 318 -69.36 318 -68 318 C-68 316.68 -68 315.36 -68 314 C-69.32 314 -70.64 314 -72 314 Z M200 314 C200 315.32 200 316.64 200 318 C198.68 318 197.36 318 196 318 C196 321.96 196 325.92 196 330 C197.32 330 198.64 330 200 330 C200 327.36 200 324.72 200 322 C201.32 322 202.64 322 204 322 C204 319.36 204 316.72 204 314 C202.68 314 201.36 314 200 314 Z M-68 318 C-68 319.32 -68 320.64 -68 322 C-66.68 322 -65.36 322 -64 322 C-64 323.32 -64 324.64 -64 326 C-61.36 326 -58.72 326 -56 326 C-56 324.68 -56 323.36 -56 322 C-57.32 322 -58.64 322 -60 322 C-60 320.68 -60 319.36 -60 318 C-62.64 318 -65.28 318 -68 318 Z M-52 326 C-52 327.32 -52 328.64 -52 330 C-50.68 330 -49.36 330 -48 330 C-48 328.68 -48 327.36 -48 326 C-49.32 326 -50.64 326 -52 326 Z M-44 326 C-44 327.32 -44 328.64 -44 330 C-41.36 330 -38.72 330 -36 330 C-36 328.68 -36 327.36 -36 326 C-38.64 326 -41.28 326 -44 326 Z M212 326 C212 327.32 212 328.64 212 330 C213.32 330 214.64 330 216 330 C216 328.68 216 327.36 216 326 C214.68 326 213.36 326 212 326 Z M-32 330 C-32 331.32 -32 332.64 -32 334 C-24.08 334 -16.16 334 -8 334 C-8 332.68 -8 331.36 -8 330 C-15.92 330 -23.84 330 -32 330 Z M192 330 C192 332.64 192 335.28 192 338 C193.32 338 194.64 338 196 338 C196 335.36 196 332.72 196 330 C194.68 330 193.36 330 192 330 Z M-8 334 C-8 335.32 -8 336.64 -8 338 C-6.68 338 -5.36 338 -4 338 C-4 340.64 -4 343.28 -4 346 C-2.68 346 -1.36 346 0 346 C0 342.04 0 338.08 0 334 C-2.64 334 -5.28 334 -8 334 Z M204 338 C204 340.64 204 343.28 204 346 C205.32 346 206.64 346 208 346 C208 343.36 208 340.72 208 338 C206.68 338 205.36 338 204 338 Z M0 350 C0 353.96 0 357.92 0 362 C1.32 362 2.64 362 4 362 C4 358.04 4 354.08 4 350 C2.68 350 1.36 350 0 350 Z " fill="#008000" transform="translate(246,12)"/>
<path d="M0 0 C219.78 0 439.56 0 666 0 C666 125.73 666 251.46 666 381 C664.68 381 663.36 381 662 381 C662 382.32 662 383.64 662 385 C660.68 385 659.36 385 658 385 C658 386.32 658 387.64 658 389 C656.68 389 655.36 389 654 389 C654 390.32 654 391.64 654 393 C653.01 393 652.02 393 651 393 C651 394.32 651 395.64 651 397 C649.68 397 648.36 397 647 397 C647 397.99 647 398.98 647 400 C427.22 400 207.44 400 -19 400 C-19 274.27 -19 148.54 -19 19 C-17.68 19 -16.36 19 -15 19 C-15 17.68 -15 16.36 -15 15 C-14.01 15 -13.02 15 -12 15 C-12 14.01 -12 13.02 -12 12 C-10.68 12 -9.36 12 -8 12 C-8 10.68 -8 9.36 -8 8 C-6.68 8 -5.36 8 -4 8 C-4 6.68 -4 5.36 -4 4 C-2.68 4 -1.36 4 0 4 C0 2.68 0 1.36 0 0 Z M23 4 C23 5.32 23 6.64 23 8 C66.23 8 109.46 8 154 8 C154 9.32 154 10.64 154 12 C152.68 12 151.36 12 150 12 C150 12.99 150 13.98 150 15 C148.68 15 147.36 15 146 15 C146 16.32 146 17.64 146 19 C96.5 19 47 19 -4 19 C-4 138.46 -4 257.92 -4 381 C206.87 381 417.74 381 635 381 C635 379.68 635 378.36 635 377 C636.32 377 637.64 377 639 377 C639 375.68 639 374.36 639 373 C640.32 373 641.64 373 643 373 C643 372.01 643 371.02 643 370 C644.32 370 645.64 370 647 370 C647 368.68 647 367.36 647 366 C648.32 366 649.64 366 651 366 C651 364.68 651 363.36 651 362 C651.99 362 652.98 362 654 362 C654 246.5 654 131 654 12 C514.41 12 374.82 12 231 12 C231 10.68 231 9.36 231 8 C369.6 8 508.2 8 651 8 C651 6.68 651 5.36 651 4 C443.76 4 236.52 4 23 4 Z M658 15 C658 130.83 658 246.66 658 366 C656.68 366 655.36 366 654 366 C654 367.32 654 368.64 654 370 C653.01 370 652.02 370 651 370 C651 370.99 651 371.98 651 373 C649.68 373 648.36 373 647 373 C647 374.32 647 375.64 647 377 C645.68 377 644.36 377 643 377 C643 378.32 643 379.64 643 381 C645.64 381 648.28 381 651 381 C651 379.68 651 378.36 651 377 C651.99 377 652.98 377 654 377 C654 375.68 654 374.36 654 373 C655.32 373 656.64 373 658 373 C658 372.01 658 371.02 658 370 C659.32 370 660.64 370 662 370 C662 252.85 662 135.7 662 15 C660.68 15 659.36 15 658 15 Z M-12 31 C-12 32.32 -12 33.64 -12 35 C-12.99 35 -13.98 35 -15 35 C-15 111.23 -15 187.46 -15 266 C-14.01 266 -13.02 266 -12 266 C-12 266.99 -12 267.98 -12 269 C-10.68 269 -9.36 269 -8 269 C-8 190.46 -8 111.92 -8 31 C-9.32 31 -10.64 31 -12 31 Z M-15 273 C-15 275.64 -15 278.28 -15 281 C-14.01 281 -13.02 281 -12 281 C-12 282.32 -12 283.64 -12 285 C-10.68 285 -9.36 285 -8 285 C-8 282.36 -8 279.72 -8 277 C-9.32 277 -10.64 277 -12 277 C-12 275.68 -12 274.36 -12 273 C-12.99 273 -13.98 273 -15 273 Z M-15 289 C-15 291.31 -15 293.62 -15 296 C-14.01 296 -13.02 296 -12 296 C-12 297.32 -12 298.64 -12 300 C-10.68 300 -9.36 300 -8 300 C-8 297.69 -8 295.38 -8 293 C-9.32 293 -10.64 293 -12 293 C-12 291.68 -12 290.36 -12 289 C-12.99 289 -13.98 289 -15 289 Z M23 385 C23 386.32 23 387.64 23 389 C21.68 389 20.36 389 19 389 C19 390.32 19 391.64 19 393 C17.68 393 16.36 393 15 393 C15 394.32 15 395.64 15 397 C166.14 397 317.28 397 473 397 C473 395.68 473 394.36 473 393 C474.32 393 475.64 393 477 393 C477 391.68 477 390.36 477 389 C478.32 389 479.64 389 481 389 C481 387.68 481 386.36 481 385 C329.86 385 178.72 385 23 385 Z " fill="#008000" transform="translate(19,0)"/>
<path d="M0 0 C5.28 0 10.56 0 16 0 C16 2.64 16 5.28 16 8 C13.36 8 10.72 8 8 8 C8 9.32 8 10.64 8 12 C10.64 12 13.28 12 16 12 C16 13.32 16 14.64 16 16 C17.32 16 18.64 16 20 16 C20 10.72 20 5.44 20 0 C22.64 0 25.28 0 28 0 C28 2.64 28 5.28 28 8 C30.64 8 33.28 8 36 8 C36 9.32 36 10.64 36 12 C37.32 12 38.64 12 40 12 C40 18.6 40 25.2 40 32 C37.36 32 34.72 32 32 32 C32 33.32 32 34.64 32 36 C34.64 36 37.28 36 40 36 C40 41.28 40 46.56 40 52 C38.68 52 37.36 52 36 52 C36 53.32 36 54.64 36 56 C33.36 56 30.72 56 28 56 C28 59.96 28 63.92 28 68 C25.36 68 22.72 68 20 68 C20 60.08 20 52.16 20 44 C17.36 44 14.72 44 12 44 C12 42.68 12 41.36 12 40 C10.68 40 9.36 40 8 40 C8 41.32 8 42.64 8 44 C6.68 44 5.36 44 4 44 C4 47.96 4 51.92 4 56 C5.32 56 6.64 56 8 56 C8 57.32 8 58.64 8 60 C9.32 60 10.64 60 12 60 C12 58.68 12 57.36 12 56 C13.32 56 14.64 56 16 56 C16 63.92 16 71.84 16 80 C17.32 80 18.64 80 20 80 C20 81.32 20 82.64 20 84 C21.32 84 22.64 84 24 84 C24 82.68 24 81.36 24 80 C27.96 80 31.92 80 36 80 C36 81.32 36 82.64 36 84 C37.32 84 38.64 84 40 84 C40 85.32 40 86.64 40 88 C25.48 88 10.96 88 -4 88 C-4 82.72 -4 77.44 -4 72 C1.28 72 6.56 72 12 72 C12 70.68 12 69.36 12 68 C8.04 68 4.08 68 0 68 C0 65.36 0 62.72 0 60 C-1.32 60 -2.64 60 -4 60 C-4 53.4 -4 46.8 -4 40 C-2.68 40 -1.36 40 0 40 C0 38.68 0 37.36 0 36 C2.64 36 5.28 36 8 36 C8 34.68 8 33.36 8 32 C5.36 32 2.72 32 0 32 C0 25.4 0 18.8 0 12 C-1.32 12 -2.64 12 -4 12 C-4 9.36 -4 6.72 -4 4 C-2.68 4 -1.36 4 0 4 C0 2.68 0 1.36 0 0 Z M28 16 C28 21.28 28 26.56 28 32 C29.32 32 30.64 32 32 32 C32 26.72 32 21.44 32 16 C30.68 16 29.36 16 28 16 Z M4 20 C4 21.32 4 22.64 4 24 C6.64 24 9.28 24 12 24 C12 22.68 12 21.36 12 20 C9.36 20 6.72 20 4 20 Z M16 24 C16 26.64 16 29.28 16 32 C14.68 32 13.36 32 12 32 C12 33.32 12 34.64 12 36 C13.32 36 14.64 36 16 36 C16 37.32 16 38.64 16 40 C17.32 40 18.64 40 20 40 C20 38.68 20 37.36 20 36 C22.64 36 25.28 36 28 36 C28 34.68 28 33.36 28 32 C25.36 32 22.72 32 20 32 C20 29.36 20 26.72 20 24 C18.68 24 17.36 24 16 24 Z M28 44 C28 45.32 28 46.64 28 48 C29.32 48 30.64 48 32 48 C32 46.68 32 45.36 32 44 C30.68 44 29.36 44 28 44 Z " fill="#008000" transform="translate(42,278)"/>
<path d="M0 0 C2.64 0 5.28 0 8 0 C8 6.6 8 13.2 8 20 C9.32 20 10.64 20 12 20 C12 21.32 12 22.64 12 24 C13.32 24 14.64 24 16 24 C16 16.08 16 8.16 16 0 C17.32 0 18.64 0 20 0 C20 2.64 20 5.28 20 8 C27.92 8 35.84 8 44 8 C44 14.6 44 21.2 44 28 C42.68 28 41.36 28 40 28 C40 29.32 40 30.64 40 32 C37.36 32 34.72 32 32 32 C32 34.64 32 37.28 32 40 C29.36 40 26.72 40 24 40 C24 36.04 24 32.08 24 28 C22.68 28 21.36 28 20 28 C20 29.32 20 30.64 20 32 C16.04 32 12.08 32 8 32 C8 33.32 8 34.64 8 36 C11.96 36 15.92 36 20 36 C20 41.28 20 46.56 20 52 C17.36 52 14.72 52 12 52 C12 53.32 12 54.64 12 56 C10.68 56 9.36 56 8 56 C8 59.96 8 63.92 8 68 C5.36 68 2.72 68 0 68 C0 57.44 0 46.88 0 36 C1.32 36 2.64 36 4 36 C4 32.04 4 28.08 4 24 C2.68 24 1.36 24 0 24 C0 16.08 0 8.16 0 0 Z M32 16 C32 18.64 32 21.28 32 24 C33.32 24 34.64 24 36 24 C36 21.36 36 18.72 36 16 C34.68 16 33.36 16 32 16 Z " fill="#008000" transform="translate(38,206)"/>
<path d="M0 0 C3.96 0 7.92 0 12 0 C12 2.64 12 5.28 12 8 C13.32 8 14.64 8 16 8 C16 5.36 16 2.72 16 0 C22.6 0 29.2 0 36 0 C36 2.64 36 5.28 36 8 C37.32 8 38.64 8 40 8 C40 5.36 40 2.72 40 0 C42.64 0 45.28 0 48 0 C48 6.6 48 13.2 48 20 C45.36 20 42.72 20 40 20 C40 17.36 40 14.72 40 12 C38.68 12 37.36 12 36 12 C36 18.6 36 25.2 36 32 C33.36 32 30.72 32 28 32 C28 28.04 28 24.08 28 20 C24.04 20 20.08 20 16 20 C16 17.36 16 14.72 16 12 C14.68 12 13.36 12 12 12 C12 18.6 12 25.2 12 32 C8.04 32 4.08 32 0 32 C0 28.04 0 24.08 0 20 C-2.64 20 -5.28 20 -8 20 C-8 17.36 -8 14.72 -8 12 C-6.68 12 -5.36 12 -4 12 C-4 9.36 -4 6.72 -4 4 C-2.68 4 -1.36 4 0 4 C0 2.68 0 1.36 0 0 Z " fill="#008000" transform="translate(598,314)"/>
<path d="M0 0 C14.52 0 29.04 0 44 0 C44 1.32 44 2.64 44 4 C45.32 4 46.64 4 48 4 C48 2.68 48 1.36 48 0 C50.64 0 53.28 0 56 0 C56 5.28 56 10.56 56 16 C42.8 16 29.6 16 16 16 C16 14.68 16 13.36 16 12 C17.32 12 18.64 12 20 12 C20 10.68 20 9.36 20 8 C17.36 8 14.72 8 12 8 C12 10.64 12 13.28 12 16 C5.4 16 -1.2 16 -8 16 C-8 13.36 -8 10.72 -8 8 C-6.68 8 -5.36 8 -4 8 C-4 6.68 -4 5.36 -4 4 C-2.68 4 -1.36 4 0 4 C0 2.68 0 1.36 0 0 Z " fill="#008000" transform="translate(486,350)"/>
<path d="M0 0 C6.6 0 13.2 0 20 0 C20 10.56 20 21.12 20 32 C13.4 32 6.8 32 0 32 C0 21.44 0 10.88 0 0 Z " fill="#008000" transform="translate(498,314)"/>
<path d="M0 0 C5.28 0 10.56 0 16 0 C16 1.32 16 2.64 16 4 C18.64 4 21.28 4 24 4 C24 2.68 24 1.36 24 0 C29.28 0 34.56 0 40 0 C40 6.6 40 13.2 40 20 C38.68 20 37.36 20 36 20 C36 21.32 36 22.64 36 24 C33.36 24 30.72 24 28 24 C28 22.68 28 21.36 28 20 C25.36 20 22.72 20 20 20 C20 16.04 20 12.08 20 8 C18.68 8 17.36 8 16 8 C16 9.32 16 10.64 16 12 C14.68 12 13.36 12 12 12 C12 10.68 12 9.36 12 8 C10.68 8 9.36 8 8 8 C8 9.32 8 10.64 8 12 C6.68 12 5.36 12 4 12 C4 15.96 4 19.92 4 24 C2.68 24 1.36 24 0 24 C0 16.08 0 8.16 0 0 Z M28 8 C28 9.32 28 10.64 28 12 C29.32 12 30.64 12 32 12 C32 10.68 32 9.36 32 8 C30.68 8 29.36 8 28 8 Z " fill="#008000" transform="translate(42,34)"/>
<path d="M0 0 C6.6 0 13.2 0 20 0 C20 6.6 20 13.2 20 20 C18.68 20 17.36 20 16 20 C16 21.32 16 22.64 16 24 C14.68 24 13.36 24 12 24 C12 25.32 12 26.64 12 28 C14.64 28 17.28 28 20 28 C20 29.32 20 30.64 20 32 C12.08 32 4.16 32 -4 32 C-4 30.68 -4 29.36 -4 28 C-2.68 28 -1.36 28 0 28 C0 26.68 0 25.36 0 24 C1.32 24 2.64 24 4 24 C4 21.36 4 18.72 4 16 C5.32 16 6.64 16 8 16 C8 14.68 8 13.36 8 12 C4.04 12 0.08 12 -4 12 C-4 9.36 -4 6.72 -4 4 C-2.68 4 -1.36 4 0 4 C0 2.68 0 1.36 0 0 Z " fill="#008000" transform="translate(546,314)"/>
<path d="M0 0 C2.64 0 5.28 0 8 0 C8 7.92 8 15.84 8 24 C9.32 24 10.64 24 12 24 C12 16.08 12 8.16 12 0 C14.64 0 17.28 0 20 0 C20 10.56 20 21.12 20 32 C14.72 32 9.44 32 4 32 C4 30.68 4 29.36 4 28 C2.68 28 1.36 28 0 28 C0 18.76 0 9.52 0 0 Z " fill="#008000" transform="translate(86,314)"/>
<path d="M0 0 C5.28 0 10.56 0 16 0 C16 1.32 16 2.64 16 4 C17.32 4 18.64 4 20 4 C20 10.6 20 17.2 20 24 C13.4 24 6.8 24 0 24 C0 16.08 0 8.16 0 0 Z " fill="#008000" transform="translate(86,286)"/>
<path d="M0 0 C5.28 0 10.56 0 16 0 C16 7.92 16 15.84 16 24 C10.72 24 5.44 24 0 24 C0 22.68 0 21.36 0 20 C-1.32 20 -2.64 20 -4 20 C-4 14.72 -4 9.44 -4 4 C-2.68 4 -1.36 4 0 4 C0 2.68 0 1.36 0 0 Z " fill="#008000" transform="translate(66,178)"/>
<path d="M0 0 C3.96 0 7.92 0 12 0 C12 1.32 12 2.64 12 4 C13.32 4 14.64 4 16 4 C16 10.6 16 17.2 16 24 C10.72 24 5.44 24 0 24 C0 22.68 0 21.36 0 20 C-1.32 20 -2.64 20 -4 20 C-4 17.36 -4 14.72 -4 12 C-1.36 12 1.28 12 4 12 C4 10.68 4 9.36 4 8 C1.36 8 -1.28 8 -4 8 C-4 6.68 -4 5.36 -4 4 C-2.68 4 -1.36 4 0 4 C0 2.68 0 1.36 0 0 Z " fill="#008000" transform="translate(66,250)"/>
<path d="M0 0 C2.64 0 5.28 0 8 0 C8 2.64 8 5.28 8 8 C10.64 8 13.28 8 16 8 C16 10.64 16 13.28 16 16 C13.36 16 10.72 16 8 16 C8 18.64 8 21.28 8 24 C11.96 24 15.92 24 20 24 C20 25.32 20 26.64 20 28 C18.68 28 17.36 28 16 28 C16 29.32 16 30.64 16 32 C12.04 32 8.08 32 4 32 C4 30.68 4 29.36 4 28 C2.68 28 1.36 28 0 28 C0 18.76 0 9.52 0 0 Z " fill="#008000" transform="translate(86,206)"/>
<path d="M0 0 C6.6 0 13.2 0 20 0 C20 1.32 20 2.64 20 4 C21.32 4 22.64 4 24 4 C24 6.64 24 9.28 24 12 C22.68 12 21.36 12 20 12 C20 13.32 20 14.64 20 16 C13.4 16 6.8 16 0 16 C0 10.72 0 5.44 0 0 Z " fill="#008000" transform="translate(566,350)"/>
<path d="M0 0 C5.28 0 10.56 0 16 0 C16 1.32 16 2.64 16 4 C18.64 4 21.28 4 24 4 C24 2.68 24 1.36 24 0 C29.28 0 34.56 0 40 0 C40 2.64 40 5.28 40 8 C26.8 8 13.6 8 0 8 C0 5.36 0 2.72 0 0 Z " fill="#008000" transform="translate(110,358)"/>
<path d="M0 0 C2.64 0 5.28 0 8 0 C8 1.32 8 2.64 8 4 C9.32 4 10.64 4 12 4 C12 5.32 12 6.64 12 8 C10.68 8 9.36 8 8 8 C8 10.64 8 13.28 8 16 C9.32 16 10.64 16 12 16 C12 18.64 12 21.28 12 24 C6.72 24 1.44 24 -4 24 C-4 21.36 -4 18.72 -4 16 C-2.68 16 -1.36 16 0 16 C0 13.36 0 10.72 0 8 C-1.32 8 -2.64 8 -4 8 C-4 6.68 -4 5.36 -4 4 C-2.68 4 -1.36 4 0 4 C0 2.68 0 1.36 0 0 Z " fill="#008000" transform="translate(114,322)"/>
<path d="M0 0 C3.96 0 7.92 0 12 0 C12 2.64 12 5.28 12 8 C10.68 8 9.36 8 8 8 C8 9.32 8 10.64 8 12 C9.32 12 10.64 12 12 12 C12 15.96 12 19.92 12 24 C8.04 24 4.08 24 0 24 C0 16.08 0 8.16 0 0 Z " fill="#008000" transform="translate(90,106)"/>
<path d="M0 0 C2.64 0 5.28 0 8 0 C8 10.56 8 21.12 8 32 C4.04 32 0.08 32 -4 32 C-4 29.36 -4 26.72 -4 24 C-1.36 24 1.28 24 4 24 C4 18.72 4 13.44 4 8 C2.68 8 1.36 8 0 8 C0 5.36 0 2.72 0 0 Z " fill="#008000" transform="translate(642,26)"/>
<path d="M0 0 C4.95 0 9.9 0 15 0 C15 1.32 15 2.64 15 4 C13.68 4 12.36 4 11 4 C11 4.99 11 5.98 11 7 C10.01 7 9.02 7 8 7 C8 8.32 8 9.64 8 11 C2.72 11 -2.56 11 -8 11 C-8 9.68 -8 8.36 -8 7 C-6.68 7 -5.36 7 -4 7 C-4 6.01 -4 5.02 -4 4 C-2.68 4 -1.36 4 0 4 C0 2.68 0 1.36 0 0 Z " fill="#008000" transform="translate(227,8)"/>
<path d="M0 0 C4.95 0 9.9 0 15 0 C15 1.32 15 2.64 15 4 C13.68 4 12.36 4 11 4 C11 4.99 11 5.98 11 7 C9.68 7 8.36 7 7 7 C7 8.32 7 9.64 7 11 C2.05 11 -2.9 11 -8 11 C-8 9.68 -8 8.36 -8 7 C-6.68 7 -5.36 7 -4 7 C-4 6.01 -4 5.02 -4 4 C-2.68 4 -1.36 4 0 4 C0 2.68 0 1.36 0 0 Z " fill="#008000" transform="translate(204,8)"/>
<path d="M0 0 C4.95 0 9.9 0 15 0 C15 1.32 15 2.64 15 4 C13.68 4 12.36 4 11 4 C11 4.99 11 5.98 11 7 C9.68 7 8.36 7 7 7 C7 8.32 7 9.64 7 11 C2.05 11 -2.9 11 -8 11 C-8 9.68 -8 8.36 -8 7 C-6.68 7 -5.36 7 -4 7 C-4 6.01 -4 5.02 -4 4 C-2.68 4 -1.36 4 0 4 C0 2.68 0 1.36 0 0 Z " fill="#008000" transform="translate(181,8)"/>
<path d="M0 0 C6.6 0 13.2 0 20 0 C20 2.64 20 5.28 20 8 C13.4 8 6.8 8 0 8 C0 5.36 0 2.72 0 0 Z " fill="#008000" transform="translate(86,358)"/>
<path d="M0 0 C2.64 0 5.28 0 8 0 C8 5.28 8 10.56 8 16 C4.04 16 0.08 16 -4 16 C-4 13.36 -4 10.72 -4 8 C-2.68 8 -1.36 8 0 8 C0 5.36 0 2.72 0 0 Z " fill="#008000" transform="translate(550,350)"/>
<path d="M0 0 C2.64 0 5.28 0 8 0 C8 1.32 8 2.64 8 4 C9.32 4 10.64 4 12 4 C12 2.68 12 1.36 12 0 C14.64 0 17.28 0 20 0 C20 2.64 20 5.28 20 8 C13.4 8 6.8 8 0 8 C0 5.36 0 2.72 0 0 Z " fill="#008000" transform="translate(154,358)"/>
<path d="M0 0 C5.28 0 10.56 0 16 0 C16 2.64 16 5.28 16 8 C10.72 8 5.44 8 0 8 C0 5.36 0 2.72 0 0 Z " fill="#008000" transform="translate(570,338)"/>
<path d="M0 0 C3.96 0 7.92 0 12 0 C12 2.64 12 5.28 12 8 C8.04 8 4.08 8 0 8 C0 5.36 0 2.72 0 0 Z " fill="#008000" transform="translate(182,358)"/>
<path d="M0 0 C1.32 0 2.64 0 4 0 C4 1.32 4 2.64 4 4 C2.68 4 1.36 4 0 4 C0 2.68 0 1.36 0 0 Z " fill="#008000" transform="translate(602,358)"/>
</svg>
