<?xml version="1.0" standalone="no"?>
<!DOCTYPE svg PUBLIC "-//W3C//DTD SVG 20010904//EN"
 "http://www.w3.org/TR/2001/REC-SVG-20010904/DTD/svg10.dtd">
<svg version="1.0" xmlns="http://www.w3.org/2000/svg"
 width="203.000000pt" height="56.000000pt" viewBox="0 0 203.000000 56.000000"
 preserveAspectRatio="xMidYMid meet">

<g transform="translate(0.000000,56.000000) scale(0.100000,-0.100000)"
fill="#000000" stroke="none">
<path d="M0 280 l0 -280 1015 0 1015 0 0 280 0 280 -1015 0 -1015 0 0 -280z
m520 0 l0 -250 -250 0 -250 0 0 250 0 250 250 0 250 0 0 -250z m530 0 l0 -250
-250 0 -250 0 0 250 0 250 250 0 250 0 0 -250z m475 110 c9 -16 19 -30 24 -30
5 0 14 14 21 30 11 27 17 30 56 30 24 0 44 -4 44 -10 0 -5 -14 -33 -31 -62
-18 -29 -32 -57 -32 -63 0 -5 17 -38 37 -72 20 -34 36 -64 36 -67 0 -3 -20 -6
-45 -6 -42 0 -47 3 -62 35 -9 19 -20 35 -25 35 -5 0 -16 -16 -25 -35 -15 -32
-20 -35 -60 -35 -24 0 -43 4 -43 9 0 6 16 36 35 68 19 32 35 63 35 68 0 6 -16
36 -35 68 -19 32 -35 60 -35 63 0 2 20 4 45 4 39 0 46 -3 60 -30z"/>
<path d="M84 206 c-3 -7 -4 -33 -2 -57 l3 -44 185 0 185 0 0 55 0 55 -183 3
c-149 2 -183 0 -188 -12z m346 -46 l0 -30 -160 0 -160 0 0 30 0 30 160 0 160
0 0 -30z"/>
<path d="M624 407 c-2 -7 -3 -74 -2 -148 l3 -134 175 0 175 0 0 145 0 145
-173 3 c-136 2 -174 0 -178 -11z m306 -137 l0 -100 -130 0 -130 0 0 100 0 100
130 0 130 0 0 -100z"/>
</g>
</svg>
