<?xml version="1.0" encoding="UTF-8"?>
<svg version="1.1" xmlns="http://www.w3.org/2000/svg" width="232" height="188">
<path d="M0 0 C1.98 0 3.96 0 6 0 C6 0.66 6 1.32 6 2 C6.66 2 7.32 2 8 2 C8 3.32 8 4.64 8 6 C8.66 6 9.32 6 10 6 C10 6.66 10 7.32 10 8 C10.66 8 11.32 8 12 8 C12 10.64 12 13.28 12 16 C12.66 16 13.32 16 14 16 C14 30.52 14 45.04 14 60 C14.66 60 15.32 60 16 60 C16 66.6 16 73.2 16 80 C18.64 80 21.28 80 24 80 C24 80.66 24 81.32 24 82 C24.66 82 25.32 82 26 82 C26 82.66 26 83.32 26 84 C26.66 84 27.32 84 28 84 C28 84.66 28 85.32 28 86 C28.66 86 29.32 86 30 86 C30 88.64 30 91.28 30 94 C29.34 94 28.68 94 28 94 C28 94.66 28 95.32 28 96 C27.34 96 26.68 96 26 96 C26 97.32 26 98.64 26 100 C24.68 100 23.36 100 22 100 C22 101.32 22 102.64 22 104 C22.66 104 23.32 104 24 104 C24 104.66 24 105.32 24 106 C24.66 106 25.32 106 26 106 C26 106.66 26 107.32 26 108 C26.66 108 27.32 108 28 108 C28 109.32 28 110.64 28 112 C28.66 112 29.32 112 30 112 C30 113.98 30 115.96 30 118 C29.34 118 28.68 118 28 118 C28 119.32 28 120.64 28 122 C27.34 122 26.68 122 26 122 C26 122.66 26 123.32 26 124 C24.68 124 23.36 124 22 124 C22 124.66 22 125.32 22 126 C18.7 126 15.4 126 12 126 C12 127.98 12 129.96 12 132 C12.66 132 13.32 132 14 132 C14 135.96 14 139.92 14 144 C8.72 144 3.44 144 -2 144 C-2 142.02 -2 140.04 -2 138 C-2.66 138 -3.32 138 -4 138 C-4 139.98 -4 141.96 -4 144 C-10.6 144 -17.2 144 -24 144 C-24 143.34 -24 142.68 -24 142 C-24.66 142 -25.32 142 -26 142 C-26 142.66 -26 143.32 -26 144 C-35.9 144 -45.8 144 -56 144 C-56 142.68 -56 141.36 -56 140 C-56.66 140 -57.32 140 -58 140 C-58 141.32 -58 142.64 -58 144 C-58.66 144 -59.32 144 -60 144 C-60 143.34 -60 142.68 -60 142 C-60.66 142 -61.32 142 -62 142 C-62 142.66 -62 143.32 -62 144 C-64.64 144 -67.28 144 -70 144 C-70 141.36 -70 138.72 -70 136 C-70.66 136 -71.32 136 -72 136 C-72 138.64 -72 141.28 -72 144 C-74.64 144 -77.28 144 -80 144 C-80 141.36 -80 138.72 -80 136 C-80.66 136 -81.32 136 -82 136 C-82 138.64 -82 141.28 -82 144 C-85.3 144 -88.6 144 -92 144 C-92 142.02 -92 140.04 -92 138 C-91.34 138 -90.68 138 -90 138 C-90 134.04 -90 130.08 -90 126 C-92.64 126 -95.28 126 -98 126 C-98 125.34 -98 124.68 -98 124 C-98.66 124 -99.32 124 -100 124 C-100 123.34 -100 122.68 -100 122 C-100.66 122 -101.32 122 -102 122 C-102 118.7 -102 115.4 -102 112 C-101.34 112 -100.68 112 -100 112 C-100 110.68 -100 109.36 -100 108 C-100.66 108 -101.32 108 -102 108 C-102 107.34 -102 106.68 -102 106 C-102.66 106 -103.32 106 -104 106 C-104 105.34 -104 104.68 -104 104 C-104.66 104 -105.32 104 -106 104 C-106 100.04 -106 96.08 -106 92 C-104.68 92 -103.36 92 -102 92 C-102 91.34 -102 90.68 -102 90 C-101.34 90 -100.68 90 -100 90 C-100 89.34 -100 88.68 -100 88 C-98.68 88 -97.36 88 -96 88 C-96 87.34 -96 86.68 -96 86 C-94.02 86 -92.04 86 -90 86 C-90 86.66 -90 87.32 -90 88 C-88.68 88 -87.36 88 -86 88 C-86 64.9 -86 41.8 -86 18 C-85.34 18 -84.68 18 -84 18 C-84 16.68 -84 15.36 -84 14 C-81.36 14 -78.72 14 -76 14 C-76 14.66 -76 15.32 -76 16 C-75.34 16 -74.68 16 -74 16 C-74 16.66 -74 17.32 -74 18 C-72.68 18 -71.36 18 -70 18 C-70 18.66 -70 19.32 -70 20 C-69.34 20 -68.68 20 -68 20 C-68 21.32 -68 22.64 -68 24 C-66.68 24 -65.36 24 -64 24 C-64 25.32 -64 26.64 -64 28 C-63.34 28 -62.68 28 -62 28 C-62 28.66 -62 29.32 -62 30 C-60.68 30 -59.36 30 -58 30 C-58 30.66 -58 31.32 -58 32 C-54.7 32 -51.4 32 -48 32 C-48 31.34 -48 30.68 -48 30 C-38.76 30 -29.52 30 -20 30 C-20 29.34 -20 28.68 -20 28 C-19.34 28 -18.68 28 -18 28 C-18 26.02 -18 24.04 -18 22 C-17.34 22 -16.68 22 -16 22 C-16 20.68 -16 19.36 -16 18 C-15.34 18 -14.68 18 -14 18 C-14 16.68 -14 15.36 -14 14 C-13.34 14 -12.68 14 -12 14 C-12 13.34 -12 12.68 -12 12 C-10.68 12 -9.36 12 -8 12 C-8 10.02 -8 8.04 -8 6 C-6.68 6 -5.36 6 -4 6 C-4 5.34 -4 4.68 -4 4 C-3.34 4 -2.68 4 -2 4 C-2 3.34 -2 2.68 -2 2 C-1.34 2 -0.68 2 0 2 C0 1.34 0 0.68 0 0 Z M0 12 C0 12.66 0 13.32 0 14 C-0.66 14 -1.32 14 -2 14 C-2 15.32 -2 16.64 -2 18 C-3.32 18 -4.64 18 -6 18 C-6 19.32 -6 20.64 -6 22 C-6.66 22 -7.32 22 -8 22 C-8 24.64 -8 27.28 -8 30 C-8.66 30 -9.32 30 -10 30 C-10 31.98 -10 33.96 -10 36 C-7.36 36 -4.72 36 -2 36 C-2 36.66 -2 37.32 -2 38 C-0.68 38 0.64 38 2 38 C2 38.66 2 39.32 2 40 C3.32 40 4.64 40 6 40 C6 36.7 6 33.4 6 30 C5.34 30 4.68 30 4 30 C4 25.38 4 20.76 4 16 C3.34 16 2.68 16 2 16 C2 14.68 2 13.36 2 12 C1.34 12 0.68 12 0 12 Z M-78 26 C-78 33.26 -78 40.52 -78 48 C-77.34 48 -76.68 48 -76 48 C-76 49.98 -76 51.96 -76 54 C-75.34 54 -74.68 54 -74 54 C-74 53.34 -74 52.68 -74 52 C-73.34 52 -72.68 52 -72 52 C-72 51.34 -72 50.68 -72 50 C-71.34 50 -70.68 50 -70 50 C-70 49.34 -70 48.68 -70 48 C-68.68 48 -67.36 48 -66 48 C-66 47.34 -66 46.68 -66 46 C-65.34 46 -64.68 46 -64 46 C-64 45.34 -64 44.68 -64 44 C-63.34 44 -62.68 44 -62 44 C-62 42.68 -62 41.36 -62 40 C-62.66 40 -63.32 40 -64 40 C-64 39.34 -64 38.68 -64 38 C-64.66 38 -65.32 38 -66 38 C-66 37.34 -66 36.68 -66 36 C-66.66 36 -67.32 36 -68 36 C-68 34.68 -68 33.36 -68 32 C-68.66 32 -69.32 32 -70 32 C-70 31.34 -70 30.68 -70 30 C-70.66 30 -71.32 30 -72 30 C-72 29.34 -72 28.68 -72 28 C-72.66 28 -73.32 28 -74 28 C-74 27.34 -74 26.68 -74 26 C-75.32 26 -76.64 26 -78 26 Z M-54 62 C-54 62.66 -54 63.32 -54 64 C-54.66 64 -55.32 64 -56 64 C-56 64.66 -56 65.32 -56 66 C-56.66 66 -57.32 66 -58 66 C-58 68.64 -58 71.28 -58 74 C-57.34 74 -56.68 74 -56 74 C-56 74.66 -56 75.32 -56 76 C-54.68 76 -53.36 76 -52 76 C-52 75.34 -52 74.68 -52 74 C-51.34 74 -50.68 74 -50 74 C-50 70.04 -50 66.08 -50 62 C-51.32 62 -52.64 62 -54 62 Z M-20 62 C-20 65.3 -20 68.6 -20 72 C-20.66 72 -21.32 72 -22 72 C-22 72.66 -22 73.32 -22 74 C-21.34 74 -20.68 74 -20 74 C-20 74.66 -20 75.32 -20 76 C-18.68 76 -17.36 76 -16 76 C-16 75.34 -16 74.68 -16 74 C-15.34 74 -14.68 74 -14 74 C-14 73.34 -14 72.68 -14 72 C-13.34 72 -12.68 72 -12 72 C-12 70.02 -12 68.04 -12 66 C-12.66 66 -13.32 66 -14 66 C-14 64.68 -14 63.36 -14 62 C-15.98 62 -17.96 62 -20 62 Z M-6 74 C-6 74.66 -6 75.32 -6 76 C-6.66 76 -7.32 76 -8 76 C-8 77.98 -8 79.96 -8 82 C-7.34 82 -6.68 82 -6 82 C-6 82.66 -6 83.32 -6 84 C-3.36 84 -0.72 84 2 84 C2 81.36 2 78.72 2 76 C1.34 76 0.68 76 0 76 C0 75.34 0 74.68 0 74 C-1.98 74 -3.96 74 -6 74 Z M-74 78 C-74 78.66 -74 79.32 -74 80 C-75.32 80 -76.64 80 -78 80 C-78 81.98 -78 83.96 -78 86 C-77.34 86 -76.68 86 -76 86 C-76 86.66 -76 87.32 -76 88 C-73.36 88 -70.72 88 -68 88 C-68 87.34 -68 86.68 -68 86 C-67.34 86 -66.68 86 -66 86 C-66 84.02 -66 82.04 -66 80 C-66.66 80 -67.32 80 -68 80 C-68 79.34 -68 78.68 -68 78 C-69.98 78 -71.96 78 -74 78 Z M10 80 C10 80.66 10 81.32 10 82 C9.34 82 8.68 82 8 82 C8 82.66 8 83.32 8 84 C7.34 84 6.68 84 6 84 C6 84.66 6 85.32 6 86 C5.34 86 4.68 86 4 86 C4 86.66 4 87.32 4 88 C3.34 88 2.68 88 2 88 C2 88.66 2 89.32 2 90 C-3.28 90 -8.56 90 -14 90 C-14 88.02 -14 86.04 -14 84 C-15.32 84 -16.64 84 -18 84 C-18 84.66 -18 85.32 -18 86 C-17.34 86 -16.68 86 -16 86 C-16 89.3 -16 92.6 -16 96 C-16.66 96 -17.32 96 -18 96 C-18 97.98 -18 99.96 -18 102 C-17.34 102 -16.68 102 -16 102 C-16 100.68 -16 99.36 -16 98 C-15.34 98 -14.68 98 -14 98 C-14 96.02 -14 94.04 -14 92 C-8.06 92 -2.12 92 4 92 C4 91.34 4 90.68 4 90 C4.66 90 5.32 90 6 90 C6 89.34 6 88.68 6 88 C6.66 88 7.32 88 8 88 C8 87.34 8 86.68 8 86 C8.66 86 9.32 86 10 86 C10 85.34 10 84.68 10 84 C10.66 84 11.32 84 12 84 C12 82.68 12 81.36 12 80 C11.34 80 10.68 80 10 80 Z M-40 86 C-40 87.32 -40 88.64 -40 90 C-39.34 90 -38.68 90 -38 90 C-38 90.66 -38 91.32 -38 92 C-37.34 92 -36.68 92 -36 92 C-36 93.98 -36 95.96 -36 98 C-36.66 98 -37.32 98 -38 98 C-38 99.32 -38 100.64 -38 102 C-38.66 102 -39.32 102 -40 102 C-40 102.66 -40 103.32 -40 104 C-38.68 104 -37.36 104 -36 104 C-36 102.68 -36 101.36 -36 100 C-35.34 100 -34.68 100 -34 100 C-34 100.66 -34 101.32 -34 102 C-33.34 102 -32.68 102 -32 102 C-32 102.66 -32 103.32 -32 104 C-31.34 104 -30.68 104 -30 104 C-30 104.66 -30 105.32 -30 106 C-26.7 106 -23.4 106 -20 106 C-20 105.34 -20 104.68 -20 104 C-22.64 104 -25.28 104 -28 104 C-28 103.34 -28 102.68 -28 102 C-28.66 102 -29.32 102 -30 102 C-30 101.34 -30 100.68 -30 100 C-30.66 100 -31.32 100 -32 100 C-32 99.34 -32 98.68 -32 98 C-32.66 98 -33.32 98 -34 98 C-34 96.02 -34 94.04 -34 92 C-33.34 92 -32.68 92 -32 92 C-32 90.02 -32 88.04 -32 86 C-34.64 86 -37.28 86 -40 86 Z M-86 88 C-86 88.66 -86 89.32 -86 90 C-85.34 90 -84.68 90 -84 90 C-84 89.34 -84 88.68 -84 88 C-84.66 88 -85.32 88 -86 88 Z M-84 90 C-84 90.66 -84 91.32 -84 92 C-83.34 92 -82.68 92 -82 92 C-82 91.34 -82 90.68 -82 90 C-82.66 90 -83.32 90 -84 90 Z M-82 92 C-82 92.66 -82 93.32 -82 94 C-80.68 94 -79.36 94 -78 94 C-78 93.34 -78 92.68 -78 92 C-79.32 92 -80.64 92 -82 92 Z M-56 86 C-56 88.64 -56 91.28 -56 94 C-63.26 94 -70.52 94 -78 94 C-78 94.66 -78 95.32 -78 96 C-70.74 96 -63.48 96 -56 96 C-56 96.66 -56 97.32 -56 98 C-55.34 98 -54.68 98 -54 98 C-54 98.66 -54 99.32 -54 100 C-53.34 100 -52.68 100 -52 100 C-52 101.32 -52 102.64 -52 104 C-50.68 104 -49.36 104 -48 104 C-48 103.34 -48 102.68 -48 102 C-48.66 102 -49.32 102 -50 102 C-50 100.68 -50 99.36 -50 98 C-50.66 98 -51.32 98 -52 98 C-52 97.34 -52 96.68 -52 96 C-52.66 96 -53.32 96 -54 96 C-54 93.36 -54 90.72 -54 88 C-53.34 88 -52.68 88 -52 88 C-52 87.34 -52 86.68 -52 86 C-53.32 86 -54.64 86 -56 86 Z M-20 102 C-20 102.66 -20 103.32 -20 104 C-19.34 104 -18.68 104 -18 104 C-18 103.34 -18 102.68 -18 102 C-18.66 102 -19.32 102 -20 102 Z M-48 104 C-48 104.66 -48 105.32 -48 106 C-45.36 106 -42.72 106 -40 106 C-40 105.34 -40 104.68 -40 104 C-42.64 104 -45.28 104 -48 104 Z M-72 110 C-72 110.66 -72 111.32 -72 112 C-75.3 112 -78.6 112 -82 112 C-82 112.66 -82 113.32 -82 114 C-82.66 114 -83.32 114 -84 114 C-84 115.32 -84 116.64 -84 118 C-83.34 118 -82.68 118 -82 118 C-82 117.34 -82 116.68 -82 116 C-81.34 116 -80.68 116 -80 116 C-80 116.66 -80 117.32 -80 118 C-79.34 118 -78.68 118 -78 118 C-78 118.66 -78 119.32 -78 120 C-77.34 120 -76.68 120 -76 120 C-76 120.66 -76 121.32 -76 122 C-73.36 122 -70.72 122 -68 122 C-68 122.66 -68 123.32 -68 124 C-60.74 124 -53.48 124 -46 124 C-46 124.66 -46 125.32 -46 126 C-45.34 126 -44.68 126 -44 126 C-44 125.34 -44 124.68 -44 124 C-42.02 124 -40.04 124 -38 124 C-38 124.66 -38 125.32 -38 126 C-36.68 126 -35.36 126 -34 126 C-34 125.34 -34 124.68 -34 124 C-28.06 124 -22.12 124 -16 124 C-16 123.34 -16 122.68 -16 122 C-14.68 122 -13.36 122 -12 122 C-12 121.34 -12 120.68 -12 120 C-10.02 120 -8.04 120 -6 120 C-6 119.34 -6 118.68 -6 118 C-4.68 118 -3.36 118 -2 118 C-2 118.66 -2 119.32 -2 120 C-1.34 120 -0.68 120 0 120 C0 120.66 0 121.32 0 122 C0.66 122 1.32 122 2 122 C2 122.66 2 123.32 2 124 C3.32 124 4.64 124 6 124 C6 123.34 6 122.68 6 122 C5.34 122 4.68 122 4 122 C4 121.34 4 120.68 4 120 C3.34 120 2.68 120 2 120 C2 119.34 2 118.68 2 118 C1.34 118 0.68 118 0 118 C0 116.68 0 115.36 0 114 C-1.98 114 -3.96 114 -6 114 C-6 113.34 -6 112.68 -6 112 C-7.32 112 -8.64 112 -10 112 C-10 111.34 -10 110.68 -10 110 C-30.46 110 -50.92 110 -72 110 Z M-86 120 C-86 120.66 -86 121.32 -86 122 C-85.34 122 -84.68 122 -84 122 C-84 121.34 -84 120.68 -84 120 C-84.66 120 -85.32 120 -86 120 Z M-90 122 C-90 123.32 -90 124.64 -90 126 C-89.34 126 -88.68 126 -88 126 C-88 125.34 -88 124.68 -88 124 C-87.34 124 -86.68 124 -86 124 C-86 123.34 -86 122.68 -86 122 C-87.32 122 -88.64 122 -90 122 Z M6 124 C6 124.66 6 125.32 6 126 C7.98 126 9.96 126 12 126 C12 125.34 12 124.68 12 124 C10.02 124 8.04 124 6 124 Z M-48 126 C-48 126.66 -48 127.32 -48 128 C-47.34 128 -46.68 128 -46 128 C-46 127.34 -46 126.68 -46 126 C-46.66 126 -47.32 126 -48 126 Z M-10 126 C-10 126.66 -10 127.32 -10 128 C-9.34 128 -8.68 128 -8 128 C-8 127.34 -8 126.68 -8 126 C-8.66 126 -9.32 126 -10 126 Z M-74 128 C-74 128.66 -74 129.32 -74 130 C-70.04 130 -66.08 130 -62 130 C-62 129.34 -62 128.68 -62 128 C-65.96 128 -69.92 128 -74 128 Z M-44 128 C-44 130.64 -44 133.28 -44 136 C-43.34 136 -42.68 136 -42 136 C-42 134.02 -42 132.04 -42 130 C-40.68 130 -39.36 130 -38 130 C-38 129.34 -38 128.68 -38 128 C-39.98 128 -41.96 128 -44 128 Z M-34 128 C-34 128.66 -34 129.32 -34 130 C-33.34 130 -32.68 130 -32 130 C-32 129.34 -32 128.68 -32 128 C-32.66 128 -33.32 128 -34 128 Z M-14 128 C-14 128.66 -14 129.32 -14 130 C-12.68 130 -11.36 130 -10 130 C-10 129.34 -10 128.68 -10 128 C-11.32 128 -12.64 128 -14 128 Z M-8 128 C-8 128.66 -8 129.32 -8 130 C-6.68 130 -5.36 130 -4 130 C-4 129.34 -4 128.68 -4 128 C-5.32 128 -6.64 128 -8 128 Z M-78 130 C-78 130.66 -78 131.32 -78 132 C-78.66 132 -79.32 132 -80 132 C-80 133.32 -80 134.64 -80 136 C-79.34 136 -78.68 136 -78 136 C-78 135.34 -78 134.68 -78 134 C-77.34 134 -76.68 134 -76 134 C-76 133.34 -76 132.68 -76 132 C-75.34 132 -74.68 132 -74 132 C-74 131.34 -74 130.68 -74 130 C-75.32 130 -76.64 130 -78 130 Z M-62 130 C-62 130.66 -62 131.32 -62 132 C-61.34 132 -60.68 132 -60 132 C-60 132.66 -60 133.32 -60 134 C-59.34 134 -58.68 134 -58 134 C-58 132.68 -58 131.36 -58 130 C-59.32 130 -60.64 130 -62 130 Z M-18 130 C-18 130.66 -18 131.32 -18 132 C-17.34 132 -16.68 132 -16 132 C-16 131.34 -16 130.68 -16 130 C-16.66 130 -17.32 130 -18 130 Z M-2 130 C-2 130.66 -2 131.32 -2 132 C-1.34 132 -0.68 132 0 132 C0 131.34 0 130.68 0 130 C-0.66 130 -1.32 130 -2 130 Z M-20 132 C-20 132.66 -20 133.32 -20 134 C-19.34 134 -18.68 134 -18 134 C-18 133.34 -18 132.68 -18 132 C-18.66 132 -19.32 132 -20 132 Z M0 132 C0 132.66 0 133.32 0 134 C0.66 134 1.32 134 2 134 C2 133.34 2 132.68 2 132 C1.34 132 0.68 132 0 132 Z M-58 134 C-58 135.32 -58 136.64 -58 138 C-57.34 138 -56.68 138 -56 138 C-56 136.68 -56 135.36 -56 134 C-56.66 134 -57.32 134 -58 134 Z M-22 134 C-22 134.66 -22 135.32 -22 136 C-21.34 136 -20.68 136 -20 136 C-20 135.34 -20 134.68 -20 134 C-20.66 134 -21.32 134 -22 134 Z M2 134 C2 134.66 2 135.32 2 136 C2.66 136 3.32 136 4 136 C4 135.34 4 134.68 4 134 C3.34 134 2.68 134 2 134 Z M-64 136 C-64 136.66 -64 137.32 -64 138 C-63.34 138 -62.68 138 -62 138 C-62 137.34 -62 136.68 -62 136 C-62.66 136 -63.32 136 -64 136 Z M-38 136 C-38 136.66 -38 137.32 -38 138 C-37.34 138 -36.68 138 -36 138 C-36 137.34 -36 136.68 -36 136 C-36.66 136 -37.32 136 -38 136 Z M-46 138 C-46 138.66 -46 139.32 -46 140 C-45.34 140 -44.68 140 -44 140 C-44 139.34 -44 138.68 -44 138 C-44.66 138 -45.32 138 -46 138 Z M-34 138 C-34 138.66 -34 139.32 -34 140 C-33.34 140 -32.68 140 -32 140 C-32 139.34 -32 138.68 -32 138 C-32.66 138 -33.32 138 -34 138 Z M-24 138 C-24 139.32 -24 140.64 -24 142 C-23.34 142 -22.68 142 -22 142 C-22 140.68 -22 139.36 -22 138 C-22.66 138 -23.32 138 -24 138 Z M-16 138 C-16 139.32 -16 140.64 -16 142 C-15.34 142 -14.68 142 -14 142 C-14 140.68 -14 139.36 -14 138 C-14.66 138 -15.32 138 -16 138 Z M4 138 C4 139.32 4 140.64 4 142 C4.66 142 5.32 142 6 142 C6 140.68 6 139.36 6 138 C5.34 138 4.68 138 4 138 Z M-42 140 C-42 140.66 -42 141.32 -42 142 C-40.68 142 -39.36 142 -38 142 C-38 141.34 -38 140.68 -38 140 C-39.32 140 -40.64 140 -42 140 Z M-10 140 C-10 140.66 -10 141.32 -10 142 C-9.34 142 -8.68 142 -8 142 C-8 141.34 -8 140.68 -8 140 C-8.66 140 -9.32 140 -10 140 Z " fill="#008000" transform="translate(153,23)"/>
<path d="M0 0 C70.29 0 140.58 0 213 0 C213 55.77 213 111.54 213 169 C211.68 169 210.36 169 209 169 C209 170.32 209 171.64 209 173 C207.68 173 206.36 173 205 173 C205 174.32 205 175.64 205 177 C203.68 177 202.36 177 201 177 C201 178.32 201 179.64 201 181 C200.01 181 199.02 181 198 181 C198 182.32 198 183.64 198 185 C196.68 185 195.36 185 194 185 C194 185.99 194 186.98 194 188 C123.71 188 53.42 188 -19 188 C-19 132.23 -19 76.46 -19 19 C-17.68 19 -16.36 19 -15 19 C-15 17.68 -15 16.36 -15 15 C-14.01 15 -13.02 15 -12 15 C-12 14.01 -12 13.02 -12 12 C-10.68 12 -9.36 12 -8 12 C-8 10.68 -8 9.36 -8 8 C-6.68 8 -5.36 8 -4 8 C-4 6.68 -4 5.36 -4 4 C-2.68 4 -1.36 4 0 4 C0 2.68 0 1.36 0 0 Z M23 4 C23 5.32 23 6.64 23 8 C46.76 8 70.52 8 95 8 C95 9.32 95 10.64 95 12 C93.68 12 92.36 12 91 12 C91 12.99 91 13.98 91 15 C89.68 15 88.36 15 87 15 C87 16.32 87 17.64 87 19 C56.97 19 26.94 19 -4 19 C-4 68.5 -4 118 -4 169 C57.38 169 118.76 169 182 169 C182 167.68 182 166.36 182 165 C183.32 165 184.64 165 186 165 C186 163.68 186 162.36 186 161 C187.32 161 188.64 161 190 161 C190 160.01 190 159.02 190 158 C191.32 158 192.64 158 194 158 C194 156.68 194 155.36 194 154 C195.32 154 196.64 154 198 154 C198 152.68 198 151.36 198 150 C198.99 150 199.98 150 201 150 C201 104.46 201 58.92 201 12 C183.84 12 166.68 12 149 12 C149 12.99 149 13.98 149 15 C147.68 15 146.36 15 145 15 C145 14.01 145 13.02 145 12 C146.32 11.67 147.64 11.34 149 11 C149 10.01 149 9.02 149 8 C165.17 8 181.34 8 198 8 C198 6.68 198 5.36 198 4 C140.25 4 82.5 4 23 4 Z M205 15 C205 60.87 205 106.74 205 154 C203.68 154 202.36 154 201 154 C201 155.32 201 156.64 201 158 C200.01 158 199.02 158 198 158 C198 158.99 198 159.98 198 161 C196.68 161 195.36 161 194 161 C194 162.32 194 163.64 194 165 C192.68 165 191.36 165 190 165 C190 166.32 190 167.64 190 169 C192.64 169 195.28 169 198 169 C198 167.68 198 166.36 198 165 C198.99 165 199.98 165 201 165 C201 163.68 201 162.36 201 161 C202.32 161 203.64 161 205 161 C205 160.01 205 159.02 205 158 C206.32 158 207.64 158 209 158 C209 110.81 209 63.62 209 15 C207.68 15 206.36 15 205 15 Z M-12 31 C-12 32.32 -12 33.64 -12 35 C-12.99 35 -13.98 35 -15 35 C-15 41.27 -15 47.54 -15 54 C-14.01 54 -13.02 54 -12 54 C-12 54.99 -12 55.98 -12 57 C-10.68 57 -9.36 57 -8 57 C-8 48.42 -8 39.84 -8 31 C-9.32 31 -10.64 31 -12 31 Z M-15 61 C-15 63.64 -15 66.28 -15 69 C-14.01 69 -13.02 69 -12 69 C-12 70.32 -12 71.64 -12 73 C-10.68 73 -9.36 73 -8 73 C-8 70.36 -8 67.72 -8 65 C-9.32 65 -10.64 65 -12 65 C-12 63.68 -12 62.36 -12 61 C-12.99 61 -13.98 61 -15 61 Z M-15 77 C-15 79.31 -15 81.62 -15 84 C-14.01 84 -13.02 84 -12 84 C-12 85.32 -12 86.64 -12 88 C-10.68 88 -9.36 88 -8 88 C-8 85.69 -8 83.38 -8 81 C-9.32 81 -10.64 81 -12 81 C-12 79.68 -12 78.36 -12 77 C-12.99 77 -13.98 77 -15 77 Z M23 173 C23 174.32 23 175.64 23 177 C21.68 177 20.36 177 19 177 C19 178.32 19 179.64 19 181 C17.68 181 16.36 181 15 181 C15 182.32 15 183.64 15 185 C34.14 185 53.28 185 73 185 C73 183.68 73 182.36 73 181 C74.32 181 75.64 181 77 181 C77 179.68 77 178.36 77 177 C78.32 177 79.64 177 81 177 C81 175.68 81 174.36 81 173 C61.86 173 42.72 173 23 173 Z " fill="#008000" transform="translate(19,0)"/>
<path d="M0 0 C4.95 0 9.9 0 15 0 C15 1.32 15 2.64 15 4 C13.68 4 12.36 4 11 4 C11 4.99 11 5.98 11 7 C10.01 7 9.02 7 8 7 C8 8.32 8 9.64 8 11 C2.72 11 -2.56 11 -8 11 C-8 9.68 -8 8.36 -8 7 C-6.68 7 -5.36 7 -4 7 C-4 6.01 -4 5.02 -4 4 C-2.68 4 -1.36 4 0 4 C0 2.68 0 1.36 0 0 Z " fill="#008000" transform="translate(145,8)"/>
<path d="M0 0 C4.95 0 9.9 0 15 0 C15 1.32 15 2.64 15 4 C13.68 4 12.36 4 11 4 C11 4.99 11 5.98 11 7 C9.68 7 8.36 7 7 7 C7 8.32 7 9.64 7 11 C2.05 11 -2.9 11 -8 11 C-8 9.68 -8 8.36 -8 7 C-6.68 7 -5.36 7 -4 7 C-4 6.01 -4 5.02 -4 4 C-2.68 4 -1.36 4 0 4 C0 2.68 0 1.36 0 0 Z " fill="#008000" transform="translate(122,8)"/>
<path d="M0 0 C1.32 0 2.64 0 4 0 C4 0.66 4 1.32 4 2 C4.66 2 5.32 2 6 2 C6 3.32 6 4.64 6 6 C4.02 6 2.04 6 0 6 C0 5.34 0 4.68 0 4 C-0.66 4 -1.32 4 -2 4 C-2 3.34 -2 2.68 -2 2 C-1.34 2 -0.68 2 0 2 C0 1.34 0 0.68 0 0 Z " fill="#008000" transform="translate(79,103)"/>
<path d="M0 0 C1.32 0 2.64 0 4 0 C4 1.98 4 3.96 4 6 C2.68 6 1.36 6 0 6 C0 5.34 0 4.68 0 4 C-0.66 4 -1.32 4 -2 4 C-2 3.34 -2 2.68 -2 2 C-1.34 2 -0.68 2 0 2 C0 1.34 0 0.68 0 0 Z " fill="#008000" transform="translate(149,99)"/>
<path d="M0 0 C1.32 0 2.64 0 4 0 C4 1.32 4 2.64 4 4 C2.68 4 1.36 4 0 4 C0 2.68 0 1.36 0 0 Z " fill="#008000" transform="translate(160,15)"/>
<path d="M0 0 C0.66 0 1.32 0 2 0 C2 0.66 2 1.32 2 2 C1.34 2 0.68 2 0 2 C0 1.34 0 0.68 0 0 Z " fill="#008000" transform="translate(111,139)"/>
<path d="M0 0 C0.66 0 1.32 0 2 0 C2 0.66 2 1.32 2 2 C1.34 2 0.68 2 0 2 C0 1.34 0 0.68 0 0 Z " fill="#008000" transform="translate(97,139)"/>
<path d="M0 0 C0.66 0 1.32 0 2 0 C2 0.66 2 1.32 2 2 C1.34 2 0.68 2 0 2 C0 1.34 0 0.68 0 0 Z " fill="#008000" transform="translate(87,139)"/>
</svg>
