<?xml version="1.0" encoding="UTF-8"?>
<svg version="1.1" xmlns="http://www.w3.org/2000/svg" width="232" height="188">
<path d="M0 0 C70.29 0 140.58 0 213 0 C213 55.77 213 111.54 213 169 C211.68 169 210.36 169 209 169 C209 170.32 209 171.64 209 173 C207.68 173 206.36 173 205 173 C205 174.32 205 175.64 205 177 C203.68 177 202.36 177 201 177 C201 178.32 201 179.64 201 181 C200.01 181 199.02 181 198 181 C198 182.32 198 183.64 198 185 C196.68 185 195.36 185 194 185 C194 185.99 194 186.98 194 188 C123.71 188 53.42 188 -19 188 C-19 132.23 -19 76.46 -19 19 C-17.68 19 -16.36 19 -15 19 C-15 17.68 -15 16.36 -15 15 C-14.01 15 -13.02 15 -12 15 C-12 14.01 -12 13.02 -12 12 C-10.68 12 -9.36 12 -8 12 C-8 10.68 -8 9.36 -8 8 C-6.68 8 -5.36 8 -4 8 C-4 6.68 -4 5.36 -4 4 C-2.68 4 -1.36 4 0 4 C0 2.68 0 1.36 0 0 Z M23 4 C23 5.32 23 6.64 23 8 C46.76 8 70.52 8 95 8 C95 9.32 95 10.64 95 12 C93.68 12 92.36 12 91 12 C91 12.99 91 13.98 91 15 C89.68 15 88.36 15 87 15 C87 16.32 87 17.64 87 19 C89.64 19 92.28 19 95 19 C95 17.68 95 16.36 95 15 C96.32 15 97.64 15 99 15 C99 14.01 99 13.02 99 12 C100.32 12 101.64 12 103 12 C103 10.68 103 9.36 103 8 C107.95 8 112.9 8 118 8 C118 9.32 118 10.64 118 12 C116.68 12 115.36 12 114 12 C114 12.99 114 13.98 114 15 C112.68 15 111.36 15 110 15 C110 16.32 110 17.64 110 19 C105.38 19 100.76 19 96 19 C96 19.66 96 20.32 96 21 C99.96 21 103.92 21 108 21 C108 21.66 108 22.32 108 23 C108.66 23 109.32 23 110 23 C110 22.34 110 21.68 110 21 C110.66 21 111.32 21 112 21 C112 21.66 112 22.32 112 23 C112.66 23 113.32 23 114 23 C114 23.66 114 24.32 114 25 C114.66 25 115.32 25 116 25 C116 25.66 116 26.32 116 27 C115.34 27 114.68 27 114 27 C114 27.66 114 28.32 114 29 C113.34 29 112.68 29 112 29 C112 29.66 112 30.32 112 31 C110.68 31 109.36 31 108 31 C108 32.32 108 33.64 108 35 C107.34 35 106.68 35 106 35 C106 36.32 106 37.64 106 39 C105.34 39 104.68 39 104 39 C104 40.32 104 41.64 104 43 C103.34 43 102.68 43 102 43 C102 44.32 102 45.64 102 47 C101.34 47 100.68 47 100 47 C100 47.66 100 48.32 100 49 C97.36 49 94.72 49 92 49 C92 48.34 92 47.68 92 47 C90.68 47 89.36 47 88 47 C88 46.34 88 45.68 88 45 C86.02 45 84.04 45 82 45 C82 44.34 82 43.68 82 43 C83.32 43 84.64 43 86 43 C86 42.34 86 41.68 86 41 C85.34 41 84.68 41 84 41 C84 40.34 84 39.68 84 39 C82.68 39 81.36 39 80 39 C80 40.32 80 41.64 80 43 C79.34 43 78.68 43 78 43 C78 44.32 78 45.64 78 47 C78.66 47 79.32 47 80 47 C80 48.98 80 50.96 80 53 C80.66 53 81.32 53 82 53 C82 53.66 82 54.32 82 55 C80.68 55 79.36 55 78 55 C78 54.34 78 53.68 78 53 C77.34 53 76.68 53 76 53 C76 54.32 76 55.64 76 57 C75.34 57 74.68 57 74 57 C74 56.34 74 55.68 74 55 C72.68 55 71.36 55 70 55 C70 55.66 70 56.32 70 57 C70.66 57 71.32 57 72 57 C72 57.66 72 58.32 72 59 C72.66 59 73.32 59 74 59 C74 60.32 74 61.64 74 63 C74.66 63 75.32 63 76 63 C76 64.32 76 65.64 76 67 C76.66 67 77.32 67 78 67 C78 68.98 78 70.96 78 73 C78.66 73 79.32 73 80 73 C80 76.3 80 79.6 80 83 C80.66 83 81.32 83 82 83 C82 83.66 82 84.32 82 85 C82.66 85 83.32 85 84 85 C84 85.66 84 86.32 84 87 C82.02 87 80.04 87 78 87 C78 89.64 78 92.28 78 95 C77.34 95 76.68 95 76 95 C76 95.66 76 96.32 76 97 C75.34 97 74.68 97 74 97 C74 98.98 74 100.96 74 103 C73.34 103 72.68 103 72 103 C72 103.66 72 104.32 72 105 C71.34 105 70.68 105 70 105 C70 105.66 70 106.32 70 107 C69.34 107 68.68 107 68 107 C68 107.66 68 108.32 68 109 C67.34 109 66.68 109 66 109 C66 109.66 66 110.32 66 111 C64.68 111 63.36 111 62 111 C62 111.66 62 112.32 62 113 C60.68 113 59.36 113 58 113 C58 114.32 58 115.64 58 117 C59.32 117 60.64 117 62 117 C62 118.32 62 119.64 62 121 C62.66 121 63.32 121 64 121 C64 120.34 64 119.68 64 119 C64.66 119 65.32 119 66 119 C66 118.34 66 117.68 66 117 C66.66 117 67.32 117 68 117 C68 115.68 68 114.36 68 113 C68.66 113 69.32 113 70 113 C70 112.34 70 111.68 70 111 C70.66 111 71.32 111 72 111 C72 112.32 72 113.64 72 115 C71.34 115 70.68 115 70 115 C70 116.32 70 117.64 70 119 C69.34 119 68.68 119 68 119 C68 119.66 68 120.32 68 121 C67.34 121 66.68 121 66 121 C66 122.32 66 123.64 66 125 C64.02 125 62.04 125 60 125 C60 126.32 60 127.64 60 129 C59.34 129 58.68 129 58 129 C58 130.98 58 132.96 58 135 C56.68 135 55.36 135 54 135 C54 135.66 54 136.32 54 137 C53.34 137 52.68 137 52 137 C52 138.32 52 139.64 52 141 C47.38 141 42.76 141 38 141 C38 140.34 38 139.68 38 139 C36.68 139 35.36 139 34 139 C34 142.3 34 145.6 34 149 C34.66 149 35.32 149 36 149 C36 154.94 36 160.88 36 167 C34.02 167 32.04 167 30 167 C30 160.4 30 153.8 30 147 C29.34 147 28.68 147 28 147 C28 145.68 28 144.36 28 143 C27.34 143 26.68 143 26 143 C26 142.34 26 141.68 26 141 C26.66 141 27.32 141 28 141 C28 140.34 28 139.68 28 139 C27.34 139 26.68 139 26 139 C26 138.34 26 137.68 26 137 C25.34 137 24.68 137 24 137 C24 135.68 24 134.36 24 133 C23.34 133 22.68 133 22 133 C22 130.36 22 127.72 22 125 C21.34 125 20.68 125 20 125 C20 124.34 20 123.68 20 123 C19.34 123 18.68 123 18 123 C18 121.02 18 119.04 18 117 C17.34 117 16.68 117 16 117 C16 113.04 16 109.08 16 105 C15.34 105 14.68 105 14 105 C14 103.68 14 102.36 14 101 C14.66 101 15.32 101 16 101 C16 99.68 16 98.36 16 97 C15.34 97 14.68 97 14 97 C14 94.36 14 91.72 14 89 C13.34 89 12.68 89 12 89 C12 84.38 12 79.76 12 75 C12.66 75 13.32 75 14 75 C14 71.7 14 68.4 14 65 C13.34 65 12.68 65 12 65 C12 67.64 12 70.28 12 73 C11.34 73 10.68 73 10 73 C10 71.02 10 69.04 10 67 C9.34 67 8.68 67 8 67 C8 66.34 8 65.68 8 65 C6.68 65 5.36 65 4 65 C4 64.34 4 63.68 4 63 C3.34 63 2.68 63 2 63 C2 62.34 2 61.68 2 61 C0.68 61 -0.64 61 -2 61 C-2 60.34 -2 59.68 -2 59 C-2.66 59 -3.32 59 -4 59 C-4 95.3 -4 131.6 -4 169 C33.62 169 71.24 169 110 169 C110 168.34 110 167.68 110 167 C108.68 167 107.36 167 106 167 C106 166.34 106 165.68 106 165 C105.34 165 104.68 165 104 165 C104 164.34 104 163.68 104 163 C101.36 163 98.72 163 96 163 C96 162.34 96 161.68 96 161 C98.64 161 101.28 161 104 161 C104 159.02 104 157.04 104 155 C104.66 155 105.32 155 106 155 C106 154.34 106 153.68 106 153 C106.66 153 107.32 153 108 153 C108 151.02 108 149.04 108 147 C108.66 147 109.32 147 110 147 C110 146.34 110 145.68 110 145 C110.66 145 111.32 145 112 145 C112 144.34 112 143.68 112 143 C112.66 143 113.32 143 114 143 C114 144.32 114 145.64 114 147 C113.34 147 112.68 147 112 147 C112 147.66 112 148.32 112 149 C111.34 149 110.68 149 110 149 C110 150.98 110 152.96 110 155 C109.34 155 108.68 155 108 155 C108 156.32 108 157.64 108 159 C107.34 159 106.68 159 106 159 C106 159.66 106 160.32 106 161 C106.66 161 107.32 161 108 161 C108 162.32 108 163.64 108 165 C109.32 165 110.64 165 112 165 C112 166.32 112 167.64 112 169 C114.64 169 117.28 169 120 169 C120 168.34 120 167.68 120 167 C122.64 167 125.28 167 128 167 C128 167.66 128 168.32 128 169 C130.64 169 133.28 169 136 169 C136 168.34 136 167.68 136 167 C135.34 167 134.68 167 134 167 C134 165.68 134 164.36 134 163 C134.66 163 135.32 163 136 163 C136 162.34 136 161.68 136 161 C137.32 161 138.64 161 140 161 C140 160.34 140 159.68 140 159 C141.32 159 142.64 159 144 159 C144 158.34 144 157.68 144 157 C145.32 157 146.64 157 148 157 C148 153.7 148 150.4 148 147 C147.34 147 146.68 147 146 147 C146 145.68 146 144.36 146 143 C145.34 143 144.68 143 144 143 C144 142.34 144 141.68 144 141 C143.34 141 142.68 141 142 141 C142 140.34 142 139.68 142 139 C141.34 139 140.68 139 140 139 C140 138.34 140 137.68 140 137 C139.34 137 138.68 137 138 137 C138 142.94 138 148.88 138 155 C137.34 155 136.68 155 136 155 C136 152.36 136 149.72 136 147 C135.34 147 134.68 147 134 147 C134 146.34 134 145.68 134 145 C134.66 145 135.32 145 136 145 C136 143.68 136 142.36 136 141 C135.34 141 134.68 141 134 141 C134 140.34 134 139.68 134 139 C133.34 139 132.68 139 132 139 C132 137.68 132 136.36 132 135 C132.66 135 133.32 135 134 135 C134 135.66 134 136.32 134 137 C134.66 137 135.32 137 136 137 C136 135.02 136 133.04 136 131 C135.34 131 134.68 131 134 131 C134 129.02 134 127.04 134 125 C133.34 125 132.68 125 132 125 C132 125.66 132 126.32 132 127 C131.34 127 130.68 127 130 127 C130 126.34 130 125.68 130 125 C129.34 125 128.68 125 128 125 C128 124.34 128 123.68 128 123 C127.34 123 126.68 123 126 123 C126 122.34 126 121.68 126 121 C125.34 121 124.68 121 124 121 C124 120.34 124 119.68 124 119 C123.34 119 122.68 119 122 119 C122 118.34 122 117.68 122 117 C121.34 117 120.68 117 120 117 C120 116.34 120 115.68 120 115 C120.66 115 121.32 115 122 115 C122 114.34 122 113.68 122 113 C122.66 113 123.32 113 124 113 C124 113.66 124 114.32 124 115 C124.66 115 125.32 115 126 115 C126 115.66 126 116.32 126 117 C127.32 117 128.64 117 130 117 C130 117.66 130 118.32 130 119 C130.66 119 131.32 119 132 119 C132 119.66 132 120.32 132 121 C132.66 121 133.32 121 134 121 C134 121.66 134 122.32 134 123 C134.66 123 135.32 123 136 123 C136 123.66 136 124.32 136 125 C137.32 125 138.64 125 140 125 C140 124.34 140 123.68 140 123 C140.66 123 141.32 123 142 123 C142 122.34 142 121.68 142 121 C142.66 121 143.32 121 144 121 C144 120.34 144 119.68 144 119 C145.32 119 146.64 119 148 119 C148 118.34 148 117.68 148 117 C149.98 117 151.96 117 154 117 C154 116.34 154 115.68 154 115 C157.96 115 161.92 115 166 115 C166 114.34 166 113.68 166 113 C165.34 113 164.68 113 164 113 C164 112.34 164 111.68 164 111 C163.34 111 162.68 111 162 111 C162 110.34 162 109.68 162 109 C161.34 109 160.68 109 160 109 C160 107.02 160 105.04 160 103 C159.34 103 158.68 103 158 103 C158 93.76 158 84.52 158 75 C158.66 75 159.32 75 160 75 C160 74.34 160 73.68 160 73 C163.3 73 166.6 73 170 73 C170 72.34 170 71.68 170 71 C170.66 71 171.32 71 172 71 C172 70.34 172 69.68 172 69 C177.28 69 182.56 69 188 69 C188 69.66 188 70.32 188 71 C188.66 71 189.32 71 190 71 C190 71.66 190 72.32 190 73 C191.32 73 192.64 73 194 73 C194 73.66 194 74.32 194 75 C194.66 75 195.32 75 196 75 C196 75.66 196 76.32 196 77 C196.66 77 197.32 77 198 77 C198 79.64 198 82.28 198 85 C198.66 85 199.32 85 200 85 C200 88.3 200 91.6 200 95 C200.33 95 200.66 95 201 95 C201 67.61 201 40.22 201 12 C183.84 12 166.68 12 149 12 C149 12.99 149 13.98 149 15 C147.68 15 146.36 15 145 15 C145 14.01 145 13.02 145 12 C146.32 11.67 147.64 11.34 149 11 C149 10.01 149 9.02 149 8 C165.17 8 181.34 8 198 8 C198 6.68 198 5.36 198 4 C140.25 4 82.5 4 23 4 Z M205 15 C205 60.87 205 106.74 205 154 C203.68 154 202.36 154 201 154 C201 155.32 201 156.64 201 158 C200.01 158 199.02 158 198 158 C198 158.99 198 159.98 198 161 C196.68 161 195.36 161 194 161 C194 162.32 194 163.64 194 165 C192.68 165 191.36 165 190 165 C190 166.32 190 167.64 190 169 C192.64 169 195.28 169 198 169 C198 167.68 198 166.36 198 165 C198.99 165 199.98 165 201 165 C201 163.68 201 162.36 201 161 C202.32 161 203.64 161 205 161 C205 160.01 205 159.02 205 158 C206.32 158 207.64 158 209 158 C209 110.81 209 63.62 209 15 C207.68 15 206.36 15 205 15 Z M-4 19 C-4 30.88 -4 42.76 -4 55 C-3.34 55 -2.68 55 -2 55 C-2 54.34 -2 53.68 -2 53 C-1.34 53 -0.68 53 0 53 C0 52.34 0 51.68 0 51 C0.66 51 1.32 51 2 51 C2 50.34 2 49.68 2 49 C2.66 49 3.32 49 4 49 C4 48.34 4 47.68 4 47 C2.68 47 1.36 47 0 47 C0 46.34 0 45.68 0 45 C0.66 45 1.32 45 2 45 C2 43.68 2 42.36 2 41 C2.66 41 3.32 41 4 41 C4 40.34 4 39.68 4 39 C4.66 39 5.32 39 6 39 C6 38.34 6 37.68 6 37 C6.66 37 7.32 37 8 37 C8 36.34 8 35.68 8 35 C8.66 35 9.32 35 10 35 C10 34.34 10 33.68 10 33 C10.66 33 11.32 33 12 33 C12 32.34 12 31.68 12 31 C14.64 31 17.28 31 20 31 C20 31.66 20 32.32 20 33 C21.32 33 22.64 33 24 33 C24 33.66 24 34.32 24 35 C25.32 35 26.64 35 28 35 C28 35.66 28 36.32 28 37 C31.3 37 34.6 37 38 37 C38 37.66 38 38.32 38 39 C39.32 39 40.64 39 42 39 C42 37.68 42 36.36 42 35 C43.32 35 44.64 35 46 35 C46 33.68 46 32.36 46 31 C45.34 31 44.68 31 44 31 C44 29.02 44 27.04 44 25 C44.66 25 45.32 25 46 25 C46 23.02 46 21.04 46 19 C29.5 19 13 19 -4 19 Z M48 19 C48 19.66 48 20.32 48 21 C48.66 21 49.32 21 50 21 C50 20.34 50 19.68 50 19 C49.34 19 48.68 19 48 19 Z M46 27 C46 28.32 46 29.64 46 31 C46.66 31 47.32 31 48 31 C48 29.68 48 28.36 48 27 C47.34 27 46.68 27 46 27 Z M110 27 C110 27.66 110 28.32 110 29 C110.66 29 111.32 29 112 29 C112 28.34 112 27.68 112 27 C111.34 27 110.68 27 110 27 Z M-12 31 C-12 32.32 -12 33.64 -12 35 C-12.99 35 -13.98 35 -15 35 C-15 41.27 -15 47.54 -15 54 C-14.01 54 -13.02 54 -12 54 C-12 54.99 -12 55.98 -12 57 C-10.68 57 -9.36 57 -8 57 C-8 48.42 -8 39.84 -8 31 C-9.32 31 -10.64 31 -12 31 Z M14 33 C14 33.66 14 34.32 14 35 C15.32 35 16.64 35 18 35 C18 35.66 18 36.32 18 37 C19.32 37 20.64 37 22 37 C22 36.34 22 35.68 22 35 C21.34 35 20.68 35 20 35 C20 34.34 20 33.68 20 33 C18.02 33 16.04 33 14 33 Z M62 33 C62 34.32 62 35.64 62 37 C62.66 37 63.32 37 64 37 C64 35.68 64 34.36 64 33 C63.34 33 62.68 33 62 33 Z M102 35 C102 35.66 102 36.32 102 37 C102.66 37 103.32 37 104 37 C104 36.34 104 35.68 104 35 C103.34 35 102.68 35 102 35 Z M64 37 C64 38.32 64 39.64 64 41 C64.66 41 65.32 41 66 41 C66 39.68 66 38.36 66 37 C65.34 37 64.68 37 64 37 Z M16 39 C16 39.66 16 40.32 16 41 C14.68 41 13.36 41 12 41 C12 41.66 12 42.32 12 43 C12.66 43 13.32 43 14 43 C14 43.66 14 44.32 14 45 C14.66 45 15.32 45 16 45 C16 45.66 16 46.32 16 47 C17.98 47 19.96 47 22 47 C22 47.66 22 48.32 22 49 C22.66 49 23.32 49 24 49 C24 50.32 24 51.64 24 53 C24.66 53 25.32 53 26 53 C26 52.34 26 51.68 26 51 C26.66 51 27.32 51 28 51 C28 50.34 28 49.68 28 49 C29.32 49 30.64 49 32 49 C32 48.34 32 47.68 32 47 C33.98 47 35.96 47 38 47 C38 46.34 38 45.68 38 45 C37.34 45 36.68 45 36 45 C36 44.34 36 43.68 36 43 C32.7 43 29.4 43 26 43 C26 42.34 26 41.68 26 41 C25.34 41 24.68 41 24 41 C24 40.34 24 39.68 24 39 C21.36 39 18.72 39 16 39 Z M32 39 C32 39.66 32 40.32 32 41 C33.32 41 34.64 41 36 41 C36 40.34 36 39.68 36 39 C34.68 39 33.36 39 32 39 Z M42 39 C42 39.66 42 40.32 42 41 C42.66 41 43.32 41 44 41 C44 40.34 44 39.68 44 39 C43.34 39 42.68 39 42 39 Z M36 41 C36 41.66 36 42.32 36 43 C37.98 43 39.96 43 42 43 C42 42.34 42 41.68 42 41 C40.02 41 38.04 41 36 41 Z M66 41 C66 42.32 66 43.64 66 45 C66.66 45 67.32 45 68 45 C68 45.66 68 46.32 68 47 C68.66 47 69.32 47 70 47 C70 45.68 70 44.36 70 43 C69.34 43 68.68 43 68 43 C68 42.34 68 41.68 68 41 C67.34 41 66.68 41 66 41 Z M98 41 C98 42.32 98 43.64 98 45 C96.68 45 95.36 45 94 45 C94 45.66 94 46.32 94 47 C95.98 47 97.96 47 100 47 C100 45.02 100 43.04 100 41 C99.34 41 98.68 41 98 41 Z M4 43 C4 43.66 4 44.32 4 45 C4.66 45 5.32 45 6 45 C6 44.34 6 43.68 6 43 C5.34 43 4.68 43 4 43 Z M46 43 C46 43.66 46 44.32 46 45 C47.32 45 48.64 45 50 45 C50 44.34 50 43.68 50 43 C48.68 43 47.36 43 46 43 Z M90 43 C90 43.66 90 44.32 90 45 C91.32 45 92.64 45 94 45 C94 44.34 94 43.68 94 43 C92.68 43 91.36 43 90 43 Z M6 45 C6 45.66 6 46.32 6 47 C7.32 47 8.64 47 10 47 C10 46.34 10 45.68 10 45 C8.68 45 7.36 45 6 45 Z M54 45 C54 45.66 54 46.32 54 47 C54.66 47 55.32 47 56 47 C56 46.34 56 45.68 56 45 C55.34 45 54.68 45 54 45 Z M4 49 C4 49.66 4 50.32 4 51 C5.98 51 7.96 51 10 51 C10 51.66 10 52.32 10 53 C11.98 53 13.96 53 16 53 C16 52.34 16 51.68 16 51 C15.34 51 14.68 51 14 51 C14 50.34 14 49.68 14 49 C10.7 49 7.4 49 4 49 Z M16 49 C16 49.66 16 50.32 16 51 C17.32 51 18.64 51 20 51 C20 50.34 20 49.68 20 49 C18.68 49 17.36 49 16 49 Z M38 49 C38 49.66 38 50.32 38 51 C37.34 51 36.68 51 36 51 C36 51.66 36 52.32 36 53 C34.68 53 33.36 53 32 53 C32 53.66 32 54.32 32 55 C30.68 55 29.36 55 28 55 C28 55.66 28 56.32 28 57 C27.34 57 26.68 57 26 57 C26 57.66 26 58.32 26 59 C25.34 59 24.68 59 24 59 C24 59.66 24 60.32 24 61 C23.34 61 22.68 61 22 61 C22 62.32 22 63.64 22 65 C21.34 65 20.68 65 20 65 C20 65.66 20 66.32 20 67 C19.34 67 18.68 67 18 67 C18 68.98 18 70.96 18 73 C17.34 73 16.68 73 16 73 C16 78.94 16 84.88 16 91 C16.66 91 17.32 91 18 91 C18 93.64 18 96.28 18 99 C19.32 99 20.64 99 22 99 C22 100.32 22 101.64 22 103 C22.66 103 23.32 103 24 103 C24 103.66 24 104.32 24 105 C24.66 105 25.32 105 26 105 C26 105.66 26 106.32 26 107 C27.32 107 28.64 107 30 107 C30 107.66 30 108.32 30 109 C31.32 109 32.64 109 34 109 C34 109.66 34 110.32 34 111 C39.94 111 45.88 111 52 111 C52 110.34 52 109.68 52 109 C53.32 109 54.64 109 56 109 C56 108.34 56 107.68 56 107 C57.32 107 58.64 107 60 107 C60 106.34 60 105.68 60 105 C60.66 105 61.32 105 62 105 C62 104.34 62 103.68 62 103 C62.66 103 63.32 103 64 103 C64 102.34 64 101.68 64 101 C64.66 101 65.32 101 66 101 C66 100.34 66 99.68 66 99 C66.66 99 67.32 99 68 99 C68 98.34 68 97.68 68 97 C68.66 97 69.32 97 70 97 C70 96.34 70 95.68 70 95 C70.66 95 71.32 95 72 95 C72 94.34 72 93.68 72 93 C72.66 93 73.32 93 74 93 C74 86.4 74 79.8 74 73 C73.34 73 72.68 73 72 73 C72 71.02 72 69.04 72 67 C71.34 67 70.68 67 70 67 C70 66.34 70 65.68 70 65 C69.34 65 68.68 65 68 65 C68 63.68 68 62.36 68 61 C67.34 61 66.68 61 66 61 C66 59.68 66 58.36 66 57 C65.34 57 64.68 57 64 57 C64 56.34 64 55.68 64 55 C62.68 55 61.36 55 60 55 C60 54.34 60 53.68 60 53 C59.34 53 58.68 53 58 53 C58 52.34 58 51.68 58 51 C56.68 51 55.36 51 54 51 C54 50.34 54 49.68 54 49 C48.72 49 43.44 49 38 49 Z M64 49 C64 49.66 64 50.32 64 51 C64.66 51 65.32 51 66 51 C66 50.34 66 49.68 66 49 C65.34 49 64.68 49 64 49 Z M20 51 C20 51.66 20 52.32 20 53 C19.34 53 18.68 53 18 53 C18 53.66 18 54.32 18 55 C19.32 55 20.64 55 22 55 C22 53.68 22 52.36 22 51 C21.34 51 20.68 51 20 51 Z M6 53 C6 53.66 6 54.32 6 55 C5.34 55 4.68 55 4 55 C4 55.66 4 56.32 4 57 C4.66 57 5.32 57 6 57 C6 57.66 6 58.32 6 59 C7.32 59 8.64 59 10 59 C10 59.66 10 60.32 10 61 C10.66 61 11.32 61 12 61 C12 61.66 12 62.32 12 63 C13.98 63 15.96 63 18 63 C18 61.02 18 59.04 18 57 C16.68 57 15.36 57 14 57 C14 56.34 14 55.68 14 55 C12.02 55 10.04 55 8 55 C8 54.34 8 53.68 8 53 C7.34 53 6.68 53 6 53 Z M-15 61 C-15 63.64 -15 66.28 -15 69 C-14.01 69 -13.02 69 -12 69 C-12 70.32 -12 71.64 -12 73 C-10.68 73 -9.36 73 -8 73 C-8 70.36 -8 67.72 -8 65 C-9.32 65 -10.64 65 -12 65 C-12 63.68 -12 62.36 -12 61 C-12.99 61 -13.98 61 -15 61 Z M6 61 C6 61.66 6 62.32 6 63 C6.66 63 7.32 63 8 63 C8 62.34 8 61.68 8 61 C7.34 61 6.68 61 6 61 Z M174 71 C174 71.66 174 72.32 174 73 C177.96 73 181.92 73 186 73 C186 72.34 186 71.68 186 71 C182.04 71 178.08 71 174 71 Z M170 75 C170 75.66 170 76.32 170 77 C170.66 77 171.32 77 172 77 C172 76.34 172 75.68 172 75 C171.34 75 170.68 75 170 75 Z M-15 77 C-15 79.31 -15 81.62 -15 84 C-14.01 84 -13.02 84 -12 84 C-12 85.32 -12 86.64 -12 88 C-10.68 88 -9.36 88 -8 88 C-8 85.69 -8 83.38 -8 81 C-9.32 81 -10.64 81 -12 81 C-12 79.68 -12 78.36 -12 77 C-12.99 77 -13.98 77 -15 77 Z M176 77 C176 77.66 176 78.32 176 79 C175.34 79 174.68 79 174 79 C174 79.66 174 80.32 174 81 C175.98 81 177.96 81 180 81 C180 81.66 180 82.32 180 83 C183.96 83 187.92 83 192 83 C192 81.68 192 80.36 192 79 C190.02 79 188.04 79 186 79 C186 78.34 186 77.68 186 77 C182.7 77 179.4 77 176 77 Z M160 79 C160 80.98 160 82.96 160 85 C160.66 85 161.32 85 162 85 C162 83.02 162 81.04 162 79 C161.34 79 160.68 79 160 79 Z M194 79 C194 80.32 194 81.64 194 83 C194.66 83 195.32 83 196 83 C196 81.68 196 80.36 196 79 C195.34 79 194.68 79 194 79 Z M168 81 C168 81.66 168 82.32 168 83 C167.34 83 166.68 83 166 83 C166 85.64 166 88.28 166 91 C166.66 91 167.32 91 168 91 C168 91.66 168 92.32 168 93 C168.66 93 169.32 93 170 93 C170 92.34 170 91.68 170 91 C170.66 91 171.32 91 172 91 C172 88.36 172 85.72 172 83 C171.34 83 170.68 83 170 83 C170 82.34 170 81.68 170 81 C169.34 81 168.68 81 168 81 Z M176 83 C176 83.66 176 84.32 176 85 C175.34 85 174.68 85 174 85 C174 86.32 174 87.64 174 89 C174.66 89 175.32 89 176 89 C176 90.98 176 92.96 176 95 C177.98 95 179.96 95 182 95 C182 93.68 182 92.36 182 91 C184.64 91 187.28 91 190 91 C190 90.34 190 89.68 190 89 C187.36 89 184.72 89 182 89 C182 87.68 182 86.36 182 85 C181.34 85 180.68 85 180 85 C180 84.34 180 83.68 180 83 C178.68 83 177.36 83 176 83 Z M196 87 C196 92.94 196 98.88 196 105 C196.66 105 197.32 105 198 105 C198 99.06 198 93.12 198 87 C197.34 87 196.68 87 196 87 Z M160 89 C160 90.98 160 92.96 160 95 C160.66 95 161.32 95 162 95 C162 93.02 162 91.04 162 89 C161.34 89 160.68 89 160 89 Z M192 89 C192 90.98 192 92.96 192 95 C191.34 95 190.68 95 190 95 C190 96.32 190 97.64 190 99 C189.34 99 188.68 99 188 99 C188 100.98 188 102.96 188 105 C187.34 105 186.68 105 186 105 C186 106.32 186 107.64 186 109 C185.34 109 184.68 109 184 109 C184 112.3 184 115.6 184 119 C184.66 119 185.32 119 186 119 C186 120.32 186 121.64 186 123 C185.34 123 184.68 123 184 123 C184 124.98 184 126.96 184 129 C185.32 129 186.64 129 188 129 C188 127.68 188 126.36 188 125 C188.66 125 189.32 125 190 125 C190 123.02 190 121.04 190 119 C190.66 119 191.32 119 192 119 C192 118.34 192 117.68 192 117 C192.66 117 193.32 117 194 117 C194 115.02 194 113.04 194 111 C193.34 111 192.68 111 192 111 C192 109.68 192 108.36 192 107 C192.66 107 193.32 107 194 107 C194 105.02 194 103.04 194 101 C193.34 101 192.68 101 192 101 C192 100.34 192 99.68 192 99 C192.66 99 193.32 99 194 99 C194 95.7 194 92.4 194 89 C193.34 89 192.68 89 192 89 Z M164 93 C164 93.66 164 94.32 164 95 C164.66 95 165.32 95 166 95 C166 94.34 166 93.68 166 93 C165.34 93 164.68 93 164 93 Z M172 93 C172 93.66 172 94.32 172 95 C170.68 95 169.36 95 168 95 C168 95.66 168 96.32 168 97 C168.66 97 169.32 97 170 97 C170 97.66 170 98.32 170 99 C169.34 99 168.68 99 168 99 C168 100.98 168 102.96 168 105 C169.32 105 170.64 105 172 105 C172 105.66 172 106.32 172 107 C173.32 107 174.64 107 176 107 C176 106.34 176 105.68 176 105 C175.34 105 174.68 105 174 105 C174 104.34 174 103.68 174 103 C175.32 103 176.64 103 178 103 C178 101.02 178 99.04 178 97 C177.34 97 176.68 97 176 97 C176 96.34 176 95.68 176 95 C175.34 95 174.68 95 174 95 C174 94.34 174 93.68 174 93 C173.34 93 172.68 93 172 93 Z M182 95 C182 96.32 182 97.64 182 99 C181.34 99 180.68 99 180 99 C180 101.64 180 104.28 180 107 C179.34 107 178.68 107 178 107 C178 108.98 178 110.96 178 113 C179.32 113 180.64 113 182 113 C182 111.02 182 109.04 182 107 C182.66 107 183.32 107 184 107 C184 105.68 184 104.36 184 103 C184.66 103 185.32 103 186 103 C186 101.02 186 99.04 186 97 C186.66 97 187.32 97 188 97 C188 96.34 188 95.68 188 95 C186.02 95 184.04 95 182 95 Z M162 97 C162 98.32 162 99.64 162 101 C163.32 101 164.64 101 166 101 C166 99.68 166 98.36 166 97 C164.68 97 163.36 97 162 97 Z M200 97 C200 99.64 200 102.28 200 105 C199.34 105 198.68 105 198 105 C198 105.66 198 106.32 198 107 C198.66 107 199.32 107 200 107 C200 109.64 200 112.28 200 115 C199.34 115 198.68 115 198 115 C198 116.32 198 117.64 198 119 C197.34 119 196.68 119 196 119 C196 121.64 196 124.28 196 127 C195.34 127 194.68 127 194 127 C194 127.66 194 128.32 194 129 C193.34 129 192.68 129 192 129 C192 130.32 192 131.64 192 133 C191.34 133 190.68 133 190 133 C190 133.66 190 134.32 190 135 C188.02 135 186.04 135 184 135 C184 136.32 184 137.64 184 139 C182.68 139 181.36 139 180 139 C180 140.98 180 142.96 180 145 C179.34 145 178.68 145 178 145 C178 146.32 178 147.64 178 149 C176.68 149 175.36 149 174 149 C174 149.66 174 150.32 174 151 C172.68 151 171.36 151 170 151 C170 151.66 170 152.32 170 153 C169.34 153 168.68 153 168 153 C168 153.66 168 154.32 168 155 C167.34 155 166.68 155 166 155 C166 155.66 166 156.32 166 157 C165.34 157 164.68 157 164 157 C164 157.66 164 158.32 164 159 C162.68 159 161.36 159 160 159 C160 159.66 160 160.32 160 161 C158.68 161 157.36 161 156 161 C156 161.66 156 162.32 156 163 C154.68 163 153.36 163 152 163 C152 163.66 152 164.32 152 165 C148.7 165 145.4 165 142 165 C142 165.66 142 166.32 142 167 C140.68 167 139.36 167 138 167 C138 167.66 138 168.32 138 169 C152.52 169 167.04 169 182 169 C182 167.68 182 166.36 182 165 C183.32 165 184.64 165 186 165 C186 163.68 186 162.36 186 161 C187.32 161 188.64 161 190 161 C190 160.01 190 159.02 190 158 C191.32 158 192.64 158 194 158 C194 156.68 194 155.36 194 154 C195.32 154 196.64 154 198 154 C198 152.68 198 151.36 198 150 C198.99 150 199.98 150 201 150 C201 132.51 201 115.02 201 97 C200.67 97 200.34 97 200 97 Z M16 103 C16 103.66 16 104.32 16 105 C16.66 105 17.32 105 18 105 C18 104.34 18 103.68 18 103 C17.34 103 16.68 103 16 103 Z M162 105 C162 105.66 162 106.32 162 107 C162.66 107 163.32 107 164 107 C164 106.34 164 105.68 164 105 C163.34 105 162.68 105 162 105 Z M20 107 C20 107.66 20 108.32 20 109 C20.66 109 21.32 109 22 109 C22 108.34 22 107.68 22 107 C21.34 107 20.68 107 20 107 Z M164 107 C164 107.66 164 108.32 164 109 C164.66 109 165.32 109 166 109 C166 108.34 166 107.68 166 107 C165.34 107 164.68 107 164 107 Z M168 107 C168 107.66 168 108.32 168 109 C168.66 109 169.32 109 170 109 C170 108.34 170 107.68 170 107 C169.34 107 168.68 107 168 107 Z M194 107 C194 107.66 194 108.32 194 109 C194.66 109 195.32 109 196 109 C196 108.34 196 107.68 196 107 C195.34 107 194.68 107 194 107 Z M170 109 C170 109.66 170 110.32 170 111 C171.98 111 173.96 111 176 111 C176 110.34 176 109.68 176 109 C174.02 109 172.04 109 170 109 Z M18 111 C18 112.98 18 114.96 18 117 C18.66 117 19.32 117 20 117 C20 115.02 20 113.04 20 111 C19.34 111 18.68 111 18 111 Z M196 111 C196 111.66 196 112.32 196 113 C196.66 113 197.32 113 198 113 C198 112.34 198 111.68 198 111 C197.34 111 196.68 111 196 111 Z M30 113 C30 114.32 30 115.64 30 117 C30.66 117 31.32 117 32 117 C32 115.68 32 114.36 32 113 C31.34 113 30.68 113 30 113 Z M168 113 C168 113.66 168 114.32 168 115 C169.32 115 170.64 115 172 115 C172 115.66 172 116.32 172 117 C172.66 117 173.32 117 174 117 C174 116.34 174 115.68 174 115 C174.66 115 175.32 115 176 115 C176 114.34 176 113.68 176 113 C173.36 113 170.72 113 168 113 Z M34 115 C34 115.66 34 116.32 34 117 C34.66 117 35.32 117 36 117 C36 116.34 36 115.68 36 115 C35.34 115 34.68 115 34 115 Z M38 115 C38 115.66 38 116.32 38 117 C38.66 117 39.32 117 40 117 C40 116.34 40 115.68 40 115 C39.34 115 38.68 115 38 115 Z M52 115 C52 116.32 52 117.64 52 119 C53.32 119 54.64 119 56 119 C56 118.34 56 117.68 56 117 C55.34 117 54.68 117 54 117 C54 116.34 54 115.68 54 115 C53.34 115 52.68 115 52 115 Z M178 115 C178 116.32 178 117.64 178 119 C178.66 119 179.32 119 180 119 C180 120.32 180 121.64 180 123 C180.66 123 181.32 123 182 123 C182 120.36 182 117.72 182 115 C180.68 115 179.36 115 178 115 Z M20 117 C20 118.32 20 119.64 20 121 C20.66 121 21.32 121 22 121 C22 119.68 22 118.36 22 117 C21.34 117 20.68 117 20 117 Z M24 117 C24 118.98 24 120.96 24 123 C24.66 123 25.32 123 26 123 C26 122.34 26 121.68 26 121 C26.66 121 27.32 121 28 121 C28 120.34 28 119.68 28 119 C27.34 119 26.68 119 26 119 C26 118.34 26 117.68 26 117 C25.34 117 24.68 117 24 117 Z M46 117 C46 117.66 46 118.32 46 119 C46.66 119 47.32 119 48 119 C48 118.34 48 117.68 48 117 C47.34 117 46.68 117 46 117 Z M154 117 C154 117.66 154 118.32 154 119 C157.3 119 160.6 119 164 119 C164 118.34 164 117.68 164 117 C160.7 117 157.4 117 154 117 Z M168 117 C168 117.66 168 118.32 168 119 C169.32 119 170.64 119 172 119 C172 118.34 172 117.68 172 117 C170.68 117 169.36 117 168 117 Z M194 117 C194 117.66 194 118.32 194 119 C194.66 119 195.32 119 196 119 C196 118.34 196 117.68 196 117 C195.34 117 194.68 117 194 117 Z M42 119 C42 119.66 42 120.32 42 121 C41.34 121 40.68 121 40 121 C40 121.66 40 122.32 40 123 C41.32 123 42.64 123 44 123 C44 122.34 44 121.68 44 121 C44.66 121 45.32 121 46 121 C46 120.34 46 119.68 46 119 C44.68 119 43.36 119 42 119 Z M56 119 C56 119.66 56 120.32 56 121 C57.32 121 58.64 121 60 121 C60 120.34 60 119.68 60 119 C58.68 119 57.36 119 56 119 Z M172 119 C172 119.66 172 120.32 172 121 C171.34 121 170.68 121 170 121 C170 122.32 170 123.64 170 125 C170.66 125 171.32 125 172 125 C172 126.98 172 128.96 172 131 C172.66 131 173.32 131 174 131 C174 132.32 174 133.64 174 135 C175.32 135 176.64 135 178 135 C178 134.34 178 133.68 178 133 C178.66 133 179.32 133 180 133 C180 132.34 180 131.68 180 131 C180.66 131 181.32 131 182 131 C182 130.34 182 129.68 182 129 C181.34 129 180.68 129 180 129 C180 127.68 180 126.36 180 125 C179.34 125 178.68 125 178 125 C178 123.68 178 122.36 178 121 C177.34 121 176.68 121 176 121 C176 120.34 176 119.68 176 119 C174.68 119 173.36 119 172 119 Z M60 121 C60 121.66 60 122.32 60 123 C60.66 123 61.32 123 62 123 C62 122.34 62 121.68 62 121 C61.34 121 60.68 121 60 121 Z M158 121 C158 121.66 158 122.32 158 123 C158.66 123 159.32 123 160 123 C160 123.66 160 124.32 160 125 C160.66 125 161.32 125 162 125 C162 125.66 162 126.32 162 127 C162.66 127 163.32 127 164 127 C164 127.66 164 128.32 164 129 C164.66 129 165.32 129 166 129 C166 129.66 166 130.32 166 131 C166.66 131 167.32 131 168 131 C168 132.98 168 134.96 168 137 C166.68 137 165.36 137 164 137 C164 135.68 164 134.36 164 133 C163.34 133 162.68 133 162 133 C162 138.94 162 144.88 162 151 C162.66 151 163.32 151 164 151 C164 150.34 164 149.68 164 149 C164.66 149 165.32 149 166 149 C166 148.34 166 147.68 166 147 C167.32 147 168.64 147 170 147 C170 146.34 170 145.68 170 145 C170.66 145 171.32 145 172 145 C172 144.34 172 143.68 172 143 C172.66 143 173.32 143 174 143 C174 140.36 174 137.72 174 135 C173.34 135 172.68 135 172 135 C172 134.34 172 133.68 172 133 C171.34 133 170.68 133 170 133 C170 131.02 170 129.04 170 127 C169.34 127 168.68 127 168 127 C168 126.34 168 125.68 168 125 C167.34 125 166.68 125 166 125 C166 124.34 166 123.68 166 123 C164.68 123 163.36 123 162 123 C162 122.34 162 121.68 162 121 C160.68 121 159.36 121 158 121 Z M22 123 C22 123.66 22 124.32 22 125 C22.66 125 23.32 125 24 125 C24 124.34 24 123.68 24 123 C23.34 123 22.68 123 22 123 Z M36 123 C36 123.66 36 124.32 36 125 C36.66 125 37.32 125 38 125 C38 124.34 38 123.68 38 123 C37.34 123 36.68 123 36 123 Z M52 123 C52 123.66 52 124.32 52 125 C52.66 125 53.32 125 54 125 C54 124.34 54 123.68 54 123 C53.34 123 52.68 123 52 123 Z M152 123 C152 123.66 152 124.32 152 125 C153.32 125 154.64 125 156 125 C156 124.34 156 123.68 156 123 C154.68 123 153.36 123 152 123 Z M192 123 C192 123.66 192 124.32 192 125 C192.66 125 193.32 125 194 125 C194 124.34 194 123.68 194 123 C193.34 123 192.68 123 192 123 Z M34 125 C34 125.66 34 126.32 34 127 C34.66 127 35.32 127 36 127 C36 126.34 36 125.68 36 125 C35.34 125 34.68 125 34 125 Z M48 125 C48 125.66 48 126.32 48 127 C49.32 127 50.64 127 52 127 C52 126.34 52 125.68 52 125 C50.68 125 49.36 125 48 125 Z M140 125 C140 125.66 140 126.32 140 127 C140.66 127 141.32 127 142 127 C142 126.34 142 125.68 142 125 C141.34 125 140.68 125 140 125 Z M146 125 C146 125.66 146 126.32 146 127 C146.66 127 147.32 127 148 127 C148 126.34 148 125.68 148 125 C147.34 125 146.68 125 146 125 Z M156 125 C156 125.66 156 126.32 156 127 C155.34 127 154.68 127 154 127 C154 127.66 154 128.32 154 129 C152.68 129 151.36 129 150 129 C150 129.66 150 130.32 150 131 C149.34 131 148.68 131 148 131 C148 131.66 148 132.32 148 133 C148.66 133 149.32 133 150 133 C150 133.66 150 134.32 150 135 C150.66 135 151.32 135 152 135 C152 135.66 152 136.32 152 137 C152.66 137 153.32 137 154 137 C154 136.34 154 135.68 154 135 C155.32 135 156.64 135 158 135 C158 134.34 158 133.68 158 133 C158.66 133 159.32 133 160 133 C160 132.34 160 131.68 160 131 C160.66 131 161.32 131 162 131 C162 130.34 162 129.68 162 129 C161.34 129 160.68 129 160 129 C160 128.34 160 127.68 160 127 C159.34 127 158.68 127 158 127 C158 126.34 158 125.68 158 125 C157.34 125 156.68 125 156 125 Z M24 127 C24 128.32 24 129.64 24 131 C24.66 131 25.32 131 26 131 C26 129.68 26 128.36 26 127 C25.34 127 24.68 127 24 127 Z M44 127 C44 127.66 44 128.32 44 129 C45.32 129 46.64 129 48 129 C48 128.34 48 127.68 48 127 C46.68 127 45.36 127 44 127 Z M144 127 C144 128.32 144 129.64 144 131 C145.32 131 146.64 131 148 131 C148 130.34 148 129.68 148 129 C147.34 129 146.68 129 146 129 C146 128.34 146 127.68 146 127 C145.34 127 144.68 127 144 127 Z M40 129 C40 129.66 40 130.32 40 131 C41.32 131 42.64 131 44 131 C44 130.34 44 129.68 44 129 C42.68 129 41.36 129 40 129 Z M26 131 C26 132.32 26 133.64 26 135 C26.66 135 27.32 135 28 135 C28 133.68 28 132.36 28 131 C27.34 131 26.68 131 26 131 Z M36 131 C36 131.66 36 132.32 36 133 C37.32 133 38.64 133 40 133 C40 132.34 40 131.68 40 131 C38.68 131 37.36 131 36 131 Z M138 131 C138 132.32 138 133.64 138 135 C139.32 135 140.64 135 142 135 C142 135.66 142 136.32 142 137 C142.66 137 143.32 137 144 137 C144 137.66 144 138.32 144 139 C144.66 139 145.32 139 146 139 C146 139.66 146 140.32 146 141 C146.66 141 147.32 141 148 141 C148 142.32 148 143.64 148 145 C148.66 145 149.32 145 150 145 C150 146.98 150 148.96 150 151 C150.66 151 151.32 151 152 151 C152 152.98 152 154.96 152 157 C152.66 157 153.32 157 154 157 C154 156.34 154 155.68 154 155 C155.32 155 156.64 155 158 155 C158 154.34 158 153.68 158 153 C158.66 153 159.32 153 160 153 C160 147.72 160 142.44 160 137 C158.68 137 157.36 137 156 137 C156 139.64 156 142.28 156 145 C155.34 145 154.68 145 154 145 C154 143.68 154 142.36 154 141 C153.34 141 152.68 141 152 141 C152 140.34 152 139.68 152 139 C151.34 139 150.68 139 150 139 C150 137.68 150 136.36 150 135 C148.68 135 147.36 135 146 135 C146 134.34 146 133.68 146 133 C144.68 133 143.36 133 142 133 C142 132.34 142 131.68 142 131 C140.68 131 139.36 131 138 131 Z M32 133 C32 133.66 32 134.32 32 135 C33.32 135 34.64 135 36 135 C36 134.34 36 133.68 36 133 C34.68 133 33.36 133 32 133 Z M32 137 C32 137.66 32 138.32 32 139 C32.66 139 33.32 139 34 139 C34 138.34 34 137.68 34 137 C33.34 137 32.68 137 32 137 Z M30 141 C30 142.32 30 143.64 30 145 C30.66 145 31.32 145 32 145 C32 143.68 32 142.36 32 141 C31.34 141 30.68 141 30 141 Z M162 153 C162 153.66 162 154.32 162 155 C162.66 155 163.32 155 164 155 C164 154.34 164 153.68 164 153 C163.34 153 162.68 153 162 153 Z M150 157 C150 157.66 150 158.32 150 159 C150.66 159 151.32 159 152 159 C152 158.34 152 157.68 152 157 C151.34 157 150.68 157 150 157 Z M23 173 C23 174.32 23 175.64 23 177 C21.68 177 20.36 177 19 177 C19 178.32 19 179.64 19 181 C17.68 181 16.36 181 15 181 C15 182.32 15 183.64 15 185 C34.14 185 53.28 185 73 185 C73 183.68 73 182.36 73 181 C74.32 181 75.64 181 77 181 C77 179.68 77 178.36 77 177 C78.32 177 79.64 177 81 177 C81 175.68 81 174.36 81 173 C61.86 173 42.72 173 23 173 Z " fill="#008000" transform="translate(19,0)"/>
<path d="M0 0 C1.98 0 3.96 0 6 0 C6 0.66 6 1.32 6 2 C7.32 2 8.64 2 10 2 C10 3.32 10 4.64 10 6 C11.32 6 12.64 6 14 6 C14 6.66 14 7.32 14 8 C14.66 8 15.32 8 16 8 C16 8.66 16 9.32 16 10 C16.66 10 17.32 10 18 10 C18 10.66 18 11.32 18 12 C18.66 12 19.32 12 20 12 C20 12.66 20 13.32 20 14 C20.66 14 21.32 14 22 14 C22 16.64 22 19.28 22 22 C22.66 22 23.32 22 24 22 C24 26.62 24 31.24 24 36 C24.66 36 25.32 36 26 36 C26 38.64 26 41.28 26 44 C26.66 44 27.32 44 28 44 C28 44.66 28 45.32 28 46 C28.66 46 29.32 46 30 46 C30 47.98 30 49.96 30 52 C30.66 52 31.32 52 32 52 C32 52.66 32 53.32 32 54 C33.32 54 34.64 54 36 54 C36 55.32 36 56.64 36 58 C35.34 58 34.68 58 34 58 C34 58.66 34 59.32 34 60 C32.68 60 31.36 60 30 60 C30 60.66 30 61.32 30 62 C30.66 62 31.32 62 32 62 C32 62.66 32 63.32 32 64 C32.66 64 33.32 64 34 64 C34 64.66 34 65.32 34 66 C34.66 66 35.32 66 36 66 C36 66.66 36 67.32 36 68 C36.66 68 37.32 68 38 68 C38 68.66 38 69.32 38 70 C38.66 70 39.32 70 40 70 C40 70.66 40 71.32 40 72 C40.66 72 41.32 72 42 72 C42 72.66 42 73.32 42 74 C42.66 74 43.32 74 44 74 C44 74.66 44 75.32 44 76 C44.66 76 45.32 76 46 76 C46 77.32 46 78.64 46 80 C45.34 80 44.68 80 44 80 C44 79.34 44 78.68 44 78 C43.34 78 42.68 78 42 78 C42 78.66 42 79.32 42 80 C40.68 80 39.36 80 38 80 C38 80.66 38 81.32 38 82 C37.34 82 36.68 82 36 82 C36 82.66 36 83.32 36 84 C34.68 84 33.36 84 32 84 C32 84.66 32 85.32 32 86 C31.34 86 30.68 86 30 86 C30 86.66 30 87.32 30 88 C29.34 88 28.68 88 28 88 C28 86.68 28 85.36 28 84 C27.34 84 26.68 84 26 84 C26 84.66 26 85.32 26 86 C25.34 86 24.68 86 24 86 C24 87.32 24 88.64 24 90 C23.34 90 22.68 90 22 90 C22 90.66 22 91.32 22 92 C21.34 92 20.68 92 20 92 C20 92.66 20 93.32 20 94 C19.34 94 18.68 94 18 94 C18 95.32 18 96.64 18 98 C17.34 98 16.68 98 16 98 C16 97.34 16 96.68 16 96 C15.34 96 14.68 96 14 96 C14 95.34 14 94.68 14 94 C14.66 94 15.32 94 16 94 C16 92.68 16 91.36 16 90 C16.66 90 17.32 90 18 90 C18 88.68 18 87.36 18 86 C18.66 86 19.32 86 20 86 C20 85.34 20 84.68 20 84 C20.66 84 21.32 84 22 84 C22 83.34 22 82.68 22 82 C22.66 82 23.32 82 24 82 C24 81.34 24 80.68 24 80 C24.66 80 25.32 80 26 80 C26 79.34 26 78.68 26 78 C26.66 78 27.32 78 28 78 C28 77.34 28 76.68 28 76 C28.66 76 29.32 76 30 76 C30 75.34 30 74.68 30 74 C30.66 74 31.32 74 32 74 C32 73.34 32 72.68 32 72 C31.34 72 30.68 72 30 72 C30 71.34 30 70.68 30 70 C29.34 70 28.68 70 28 70 C28 69.34 28 68.68 28 68 C27.34 68 26.68 68 26 68 C26 67.34 26 66.68 26 66 C25.34 66 24.68 66 24 66 C24 64.68 24 63.36 24 62 C24.66 62 25.32 62 26 62 C26 61.34 26 60.68 26 60 C25.34 60 24.68 60 24 60 C24 59.34 24 58.68 24 58 C24.66 58 25.32 58 26 58 C26 56.68 26 55.36 26 54 C25.34 54 24.68 54 24 54 C24 53.34 24 52.68 24 52 C22.68 52 21.36 52 20 52 C20 52.66 20 53.32 20 54 C19.34 54 18.68 54 18 54 C18 54.66 18 55.32 18 56 C17.34 56 16.68 56 16 56 C16 56.66 16 57.32 16 58 C15.34 58 14.68 58 14 58 C14 58.66 14 59.32 14 60 C12.68 60 11.36 60 10 60 C10 59.34 10 58.68 10 58 C7.36 58 4.72 58 2 58 C2 58.66 2 59.32 2 60 C1.34 60 0.68 60 0 60 C0 58.68 0 57.36 0 56 C4.62 56 9.24 56 14 56 C14 55.34 14 54.68 14 54 C11.36 54 8.72 54 6 54 C6 53.34 6 52.68 6 52 C5.34 52 4.68 52 4 52 C4 51.34 4 50.68 4 50 C2.68 50 1.36 50 0 50 C0 50.66 0 51.32 0 52 C-1.32 52 -2.64 52 -4 52 C-4 53.32 -4 54.64 -4 56 C-4.66 56 -5.32 56 -6 56 C-6 56.66 -6 57.32 -6 58 C-6.66 58 -7.32 58 -8 58 C-8 59.32 -8 60.64 -8 62 C-8.66 62 -9.32 62 -10 62 C-10 62.66 -10 63.32 -10 64 C-10.66 64 -11.32 64 -12 64 C-12 65.32 -12 66.64 -12 68 C-12.66 68 -13.32 68 -14 68 C-14 68.66 -14 69.32 -14 70 C-15.32 70 -16.64 70 -18 70 C-18 68.68 -18 67.36 -18 66 C-17.34 66 -16.68 66 -16 66 C-16 65.34 -16 64.68 -16 64 C-15.34 64 -14.68 64 -14 64 C-14 62.68 -14 61.36 -14 60 C-13.34 60 -12.68 60 -12 60 C-12 58.68 -12 57.36 -12 56 C-10.68 56 -9.36 56 -8 56 C-8 55.34 -8 54.68 -8 54 C-7.34 54 -6.68 54 -6 54 C-6 52.68 -6 51.36 -6 50 C-6.66 50 -7.32 50 -8 50 C-8 48.68 -8 47.36 -8 46 C-7.34 46 -6.68 46 -6 46 C-6 45.34 -6 44.68 -6 44 C-5.34 44 -4.68 44 -4 44 C-4 43.34 -4 42.68 -4 42 C-3.34 42 -2.68 42 -2 42 C-2 41.34 -2 40.68 -2 40 C-1.34 40 -0.68 40 0 40 C0 39.34 0 38.68 0 38 C0.66 38 1.32 38 2 38 C2 37.34 2 36.68 2 36 C2.66 36 3.32 36 4 36 C4 36.66 4 37.32 4 38 C5.32 38 6.64 38 8 38 C8 36.68 8 35.36 8 34 C8.66 34 9.32 34 10 34 C10 34.66 10 35.32 10 36 C10.66 36 11.32 36 12 36 C12 36.66 12 37.32 12 38 C12.66 38 13.32 38 14 38 C14 39.32 14 40.64 14 42 C13.34 42 12.68 42 12 42 C12 42.66 12 43.32 12 44 C12.66 44 13.32 44 14 44 C14 44.66 14 45.32 14 46 C14.66 46 15.32 46 16 46 C16 45.34 16 44.68 16 44 C17.32 44 18.64 44 20 44 C20 44.66 20 45.32 20 46 C20.66 46 21.32 46 22 46 C22 44.68 22 43.36 22 42 C21.34 42 20.68 42 20 42 C20 40.02 20 38.04 20 36 C19.34 36 18.68 36 18 36 C18 35.34 18 34.68 18 34 C17.34 34 16.68 34 16 34 C16 33.34 16 32.68 16 32 C15.34 32 14.68 32 14 32 C14 30.68 14 29.36 14 28 C13.34 28 12.68 28 12 28 C12 26.68 12 25.36 12 24 C13.32 24 14.64 24 16 24 C16 25.32 16 26.64 16 28 C16.66 28 17.32 28 18 28 C18 29.32 18 30.64 18 32 C18.66 32 19.32 32 20 32 C20 30.02 20 28.04 20 26 C19.34 26 18.68 26 18 26 C18 24.02 18 22.04 18 20 C17.34 20 16.68 20 16 20 C16 18.68 16 17.36 16 16 C15.34 16 14.68 16 14 16 C14 14.68 14 13.36 14 12 C13.34 12 12.68 12 12 12 C12 11.34 12 10.68 12 10 C10.68 10 9.36 10 8 10 C8 8.68 8 7.36 8 6 C5.36 6 2.72 6 0 6 C0 5.34 0 4.68 0 4 C-1.32 4 -2.64 4 -4 4 C-4 4.66 -4 5.32 -4 6 C-3.34 6 -2.68 6 -2 6 C-2 6.66 -2 7.32 -2 8 C-3.32 8 -4.64 8 -6 8 C-6 7.34 -6 6.68 -6 6 C-6.66 6 -7.32 6 -8 6 C-8 5.34 -8 4.68 -8 4 C-8.66 4 -9.32 4 -10 4 C-10 3.34 -10 2.68 -10 2 C-6.7 2 -3.4 2 0 2 C0 1.34 0 0.68 0 0 Z M2 2 C2 2.66 2 3.32 2 4 C2.66 4 3.32 4 4 4 C4 3.34 4 2.68 4 2 C3.34 2 2.68 2 2 2 Z M20 22 C20 22.66 20 23.32 20 24 C20.66 24 21.32 24 22 24 C22 23.34 22 22.68 22 22 C21.34 22 20.68 22 20 22 Z M10 38 C10 38.66 10 39.32 10 40 C10.66 40 11.32 40 12 40 C12 39.34 12 38.68 12 38 C11.34 38 10.68 38 10 38 Z M22 38 C22 39.32 22 40.64 22 42 C22.66 42 23.32 42 24 42 C24 40.68 24 39.36 24 38 C23.34 38 22.68 38 22 38 Z M0 40 C0 40.66 0 41.32 0 42 C0.66 42 1.32 42 2 42 C2 41.34 2 40.68 2 40 C1.34 40 0.68 40 0 40 Z M-2 44 C-2 44.66 -2 45.32 -2 46 C-1.34 46 -0.68 46 0 46 C0 45.34 0 44.68 0 44 C-0.66 44 -1.32 44 -2 44 Z M24 44 C24 45.32 24 46.64 24 48 C24.66 48 25.32 48 26 48 C26 46.68 26 45.36 26 44 C25.34 44 24.68 44 24 44 Z M-4 46 C-4 46.66 -4 47.32 -4 48 C-3.34 48 -2.68 48 -2 48 C-2 47.34 -2 46.68 -2 46 C-2.66 46 -3.32 46 -4 46 Z M16 46 C16 47.32 16 48.64 16 50 C17.32 50 18.64 50 20 50 C20 49.34 20 48.68 20 48 C19.34 48 18.68 48 18 48 C18 47.34 18 46.68 18 46 C17.34 46 16.68 46 16 46 Z M-6 48 C-6 48.66 -6 49.32 -6 50 C-5.34 50 -4.68 50 -4 50 C-4 49.34 -4 48.68 -4 48 C-4.66 48 -5.32 48 -6 48 Z M26 48 C26 48.66 26 49.32 26 50 C26.66 50 27.32 50 28 50 C28 49.34 28 48.68 28 48 C27.34 48 26.68 48 26 48 Z M32 56 C32 56.66 32 57.32 32 58 C32.66 58 33.32 58 34 58 C34 57.34 34 56.68 34 56 C33.34 56 32.68 56 32 56 Z M28 58 C28 58.66 28 59.32 28 60 C28.66 60 29.32 60 30 60 C30 59.34 30 58.68 30 58 C29.34 58 28.68 58 28 58 Z M34 76 C34 76.66 34 77.32 34 78 C33.34 78 32.68 78 32 78 C32 78.66 32 79.32 32 80 C31.34 80 30.68 80 30 80 C30 80.66 30 81.32 30 82 C31.32 82 32.64 82 34 82 C34 81.34 34 80.68 34 80 C34.66 80 35.32 80 36 80 C36 79.34 36 78.68 36 78 C37.32 78 38.64 78 40 78 C40 77.34 40 76.68 40 76 C38.02 76 36.04 76 34 76 Z M28 82 C28 82.66 28 83.32 28 84 C28.66 84 29.32 84 30 84 C30 83.34 30 82.68 30 82 C29.34 82 28.68 82 28 82 Z " fill="#008000" transform="translate(105,55)"/>
<path d="M0 0 C3.3 0 6.6 0 10 0 C10 0.66 10 1.32 10 2 C11.32 2 12.64 2 14 2 C14 2.66 14 3.32 14 4 C14.66 4 15.32 4 16 4 C16 4.66 16 5.32 16 6 C16.66 6 17.32 6 18 6 C18 6.66 18 7.32 18 8 C18.66 8 19.32 8 20 8 C20 8.66 20 9.32 20 10 C20.66 10 21.32 10 22 10 C22 12.64 22 15.28 22 18 C22.66 18 23.32 18 24 18 C24 22.62 24 27.24 24 32 C23.34 32 22.68 32 22 32 C22 33.32 22 34.64 22 36 C21.34 36 20.68 36 20 36 C20 36.66 20 37.32 20 38 C19.34 38 18.68 38 18 38 C18 38.66 18 39.32 18 40 C17.34 40 16.68 40 16 40 C16 40.66 16 41.32 16 42 C14.68 42 13.36 42 12 42 C12 42.66 12 43.32 12 44 C10.02 44 8.04 44 6 44 C6 44.66 6 45.32 6 46 C4.02 46 2.04 46 0 46 C0 45.34 0 44.68 0 44 C-1.98 44 -3.96 44 -6 44 C-6 43.34 -6 42.68 -6 42 C-7.32 42 -8.64 42 -10 42 C-10 41.34 -10 40.68 -10 40 C-10.66 40 -11.32 40 -12 40 C-12 39.34 -12 38.68 -12 38 C-12.66 38 -13.32 38 -14 38 C-14 35.36 -14 32.72 -14 30 C-14.66 30 -15.32 30 -16 30 C-16 26.04 -16 22.08 -16 18 C-15.34 18 -14.68 18 -14 18 C-14 16.02 -14 14.04 -14 12 C-13.34 12 -12.68 12 -12 12 C-12 10.68 -12 9.36 -12 8 C-11.34 8 -10.68 8 -10 8 C-10 7.34 -10 6.68 -10 6 C-9.34 6 -8.68 6 -8 6 C-8 5.34 -8 4.68 -8 4 C-6.68 4 -5.36 4 -4 4 C-4 3.34 -4 2.68 -4 2 C-2.68 2 -1.36 2 0 2 C0 1.34 0 0.68 0 0 Z M-2 6 C-2 6.66 -2 7.32 -2 8 C-2.66 8 -3.32 8 -4 8 C-4 8.66 -4 9.32 -4 10 C-4.66 10 -5.32 10 -6 10 C-6 10.66 -6 11.32 -6 12 C-6.66 12 -7.32 12 -8 12 C-8 12.66 -8 13.32 -8 14 C-8.66 14 -9.32 14 -10 14 C-10 15.32 -10 16.64 -10 18 C-10.66 18 -11.32 18 -12 18 C-12 21.96 -12 25.92 -12 30 C-11.34 30 -10.68 30 -10 30 C-10 31.32 -10 32.64 -10 34 C-9.34 34 -8.68 34 -8 34 C-8 34.66 -8 35.32 -8 36 C-7.34 36 -6.68 36 -6 36 C-6 36.66 -6 37.32 -6 38 C-5.34 38 -4.68 38 -4 38 C-4 38.66 -4 39.32 -4 40 C0.62 40 5.24 40 10 40 C10 39.34 10 38.68 10 38 C11.32 38 12.64 38 14 38 C14 37.34 14 36.68 14 36 C15.32 36 16.64 36 18 36 C18 34.68 18 33.36 18 32 C18.66 32 19.32 32 20 32 C20 26.72 20 21.44 20 16 C19.34 16 18.68 16 18 16 C18 14.68 18 13.36 18 12 C16.68 12 15.36 12 14 12 C14 10.68 14 9.36 14 8 C12.68 8 11.36 8 10 8 C10 7.34 10 6.68 10 6 C6.04 6 2.08 6 -2 6 Z " fill="#008000" transform="translate(59,59)"/>
<path d="M0 0 C0.66 0 1.32 0 2 0 C2 1.98 2 3.96 2 6 C1.34 6 0.68 6 0 6 C0 7.32 0 8.64 0 10 C-0.66 10 -1.32 10 -2 10 C-2 10.66 -2 11.32 -2 12 C-1.34 12 -0.68 12 0 12 C0 12.66 0 13.32 0 14 C0.66 14 1.32 14 2 14 C2 14.66 2 15.32 2 16 C2.66 16 3.32 16 4 16 C4 14.68 4 13.36 4 12 C4.66 12 5.32 12 6 12 C6 11.34 6 10.68 6 10 C6.66 10 7.32 10 8 10 C8 9.34 8 8.68 8 8 C8.66 8 9.32 8 10 8 C10 7.34 10 6.68 10 6 C10.66 6 11.32 6 12 6 C12 7.32 12 8.64 12 10 C11.34 10 10.68 10 10 10 C10 10.66 10 11.32 10 12 C9.34 12 8.68 12 8 12 C8 12.66 8 13.32 8 14 C7.34 14 6.68 14 6 14 C6 15.98 6 17.96 6 20 C6.66 20 7.32 20 8 20 C8 20.66 8 21.32 8 22 C8.66 22 9.32 22 10 22 C10 22.66 10 23.32 10 24 C10.66 24 11.32 24 12 24 C12 24.66 12 25.32 12 26 C12.66 26 13.32 26 14 26 C14 26.66 14 27.32 14 28 C14.66 28 15.32 28 16 28 C16 29.32 16 30.64 16 32 C14.68 32 13.36 32 12 32 C12 31.34 12 30.68 12 30 C6.06 30 0.12 30 -6 30 C-6 29.34 -6 28.68 -6 28 C-6.66 28 -7.32 28 -8 28 C-8 26.68 -8 25.36 -8 24 C-10.64 24 -13.28 24 -16 24 C-16 24.66 -16 25.32 -16 26 C-16.66 26 -17.32 26 -18 26 C-18 26.66 -18 27.32 -18 28 C-22.62 28 -27.24 28 -32 28 C-32 27.34 -32 26.68 -32 26 C-32.66 26 -33.32 26 -34 26 C-34 25.34 -34 24.68 -34 24 C-32.68 24 -31.36 24 -30 24 C-30 24.66 -30 25.32 -30 26 C-26.7 26 -23.4 26 -20 26 C-20 25.34 -20 24.68 -20 24 C-19.34 24 -18.68 24 -18 24 C-18 23.34 -18 22.68 -18 22 C-16.68 22 -15.36 22 -14 22 C-14 20.68 -14 19.36 -14 18 C-15.32 18 -16.64 18 -18 18 C-18 14.7 -18 11.4 -18 8 C-17.34 8 -16.68 8 -16 8 C-16 8.66 -16 9.32 -16 10 C-14.68 10 -13.36 10 -12 10 C-12 10.66 -12 11.32 -12 12 C-11.34 12 -10.68 12 -10 12 C-10 13.32 -10 14.64 -10 16 C-9.34 16 -8.68 16 -8 16 C-8 16.66 -8 17.32 -8 18 C-8.66 18 -9.32 18 -10 18 C-10 18.66 -10 19.32 -10 20 C-9.34 20 -8.68 20 -8 20 C-8 20.66 -8 21.32 -8 22 C-7.34 22 -6.68 22 -6 22 C-6 22.66 -6 23.32 -6 24 C-5.34 24 -4.68 24 -4 24 C-4 23.34 -4 22.68 -4 22 C-2.02 22 -0.04 22 2 22 C2 22.66 2 23.32 2 24 C3.32 24 4.64 24 6 24 C6 23.34 6 22.68 6 22 C5.34 22 4.68 22 4 22 C4 21.34 4 20.68 4 20 C3.34 20 2.68 20 2 20 C2 19.34 2 18.68 2 18 C1.34 18 0.68 18 0 18 C0 17.34 0 16.68 0 16 C-0.66 16 -1.32 16 -2 16 C-2 15.34 -2 14.68 -2 14 C-2.66 14 -3.32 14 -4 14 C-4 13.34 -4 12.68 -4 12 C-4.66 12 -5.32 12 -6 12 C-6 11.34 -6 10.68 -6 10 C-5.34 10 -4.68 10 -4 10 C-4 9.34 -4 8.68 -4 8 C-3.34 8 -2.68 8 -2 8 C-2 6.68 -2 5.36 -2 4 C-1.34 4 -0.68 4 0 4 C0 2.68 0 1.36 0 0 Z M-16 12 C-16 13.32 -16 14.64 -16 16 C-14.68 16 -13.36 16 -12 16 C-12 15.34 -12 14.68 -12 14 C-12.66 14 -13.32 14 -14 14 C-14 13.34 -14 12.68 -14 12 C-14.66 12 -15.32 12 -16 12 Z M-4 24 C-4 25.32 -4 26.64 -4 28 C0.62 28 5.24 28 10 28 C10 27.34 10 26.68 10 26 C6.04 26 2.08 26 -2 26 C-2 25.34 -2 24.68 -2 24 C-2.66 24 -3.32 24 -4 24 Z " fill="#008000" transform="translate(99,129)"/>
<path d="M0 0 C1.32 0 2.64 0 4 0 C4 0.66 4 1.32 4 2 C5.32 2 6.64 2 8 2 C8 1.34 8 0.68 8 0 C8.66 0 9.32 0 10 0 C10 1.32 10 2.64 10 4 C9.34 4 8.68 4 8 4 C8 4.66 8 5.32 8 6 C8.66 6 9.32 6 10 6 C10 7.32 10 8.64 10 10 C10.66 10 11.32 10 12 10 C12 10.66 12 11.32 12 12 C11.34 12 10.68 12 10 12 C10 12.66 10 13.32 10 14 C9.34 14 8.68 14 8 14 C8 14.66 8 15.32 8 16 C7.34 16 6.68 16 6 16 C6 16.66 6 17.32 6 18 C7.32 18 8.64 18 10 18 C10 17.34 10 16.68 10 16 C10.66 16 11.32 16 12 16 C12 15.34 12 14.68 12 14 C12.66 14 13.32 14 14 14 C14 13.34 14 12.68 14 12 C14.66 12 15.32 12 16 12 C16 10.68 16 9.36 16 8 C16.66 8 17.32 8 18 8 C18 9.98 18 11.96 18 14 C17.34 14 16.68 14 16 14 C16 14.66 16 15.32 16 16 C15.34 16 14.68 16 14 16 C14 16.66 14 17.32 14 18 C13.34 18 12.68 18 12 18 C12 18.66 12 19.32 12 20 C9.36 20 6.72 20 4 20 C4 19.34 4 18.68 4 18 C3.34 18 2.68 18 2 18 C2 17.34 2 16.68 2 16 C2.66 16 3.32 16 4 16 C4 15.34 4 14.68 4 14 C3.34 14 2.68 14 2 14 C2 13.34 2 12.68 2 12 C1.34 12 0.68 12 0 12 C0 11.34 0 10.68 0 10 C-0.66 10 -1.32 10 -2 10 C-2 9.34 -2 8.68 -2 8 C-2.66 8 -3.32 8 -4 8 C-4 7.34 -4 6.68 -4 6 C-3.34 6 -2.68 6 -2 6 C-2 4.68 -2 3.36 -2 2 C-1.34 2 -0.68 2 0 2 C0 1.34 0 0.68 0 0 Z " fill="#008000" transform="translate(111,115)"/>
<path d="M0 0 C4.95 0 9.9 0 15 0 C15 1.32 15 2.64 15 4 C13.68 4 12.36 4 11 4 C11 4.99 11 5.98 11 7 C10.01 7 9.02 7 8 7 C8 8.32 8 9.64 8 11 C2.72 11 -2.56 11 -8 11 C-8 9.68 -8 8.36 -8 7 C-6.68 7 -5.36 7 -4 7 C-4 6.01 -4 5.02 -4 4 C-2.68 4 -1.36 4 0 4 C0 2.68 0 1.36 0 0 Z " fill="#008000" transform="translate(145,8)"/>
<path d="M0 0 C3.96 0 7.92 0 12 0 C12 3.96 12 7.92 12 12 C11.34 12 10.68 12 10 12 C10 12.66 10 13.32 10 14 C7.36 14 4.72 14 2 14 C2 13.34 2 12.68 2 12 C1.34 12 0.68 12 0 12 C0 10.02 0 8.04 0 6 C-0.66 6 -1.32 6 -2 6 C-2 4.68 -2 3.36 -2 2 C-1.34 2 -0.68 2 0 2 C0 1.34 0 0.68 0 0 Z M4 4 C4 4.66 4 5.32 4 6 C3.34 6 2.68 6 2 6 C2 6.66 2 7.32 2 8 C2.66 8 3.32 8 4 8 C4 8.66 4 9.32 4 10 C5.98 10 7.96 10 10 10 C10 8.68 10 7.36 10 6 C9.34 6 8.68 6 8 6 C8 5.34 8 4.68 8 4 C6.68 4 5.36 4 4 4 Z " fill="#008000" transform="translate(57,77)"/>
<path d="M0 0 C2.64 0 5.28 0 8 0 C8 0.66 8 1.32 8 2 C9.32 2 10.64 2 12 2 C12 2.66 12 3.32 12 4 C10.02 4 8.04 4 6 4 C6 3.34 6 2.68 6 2 C4.68 2 3.36 2 2 2 C2 3.32 2 4.64 2 6 C2.66 6 3.32 6 4 6 C4 7.32 4 8.64 4 10 C4.66 10 5.32 10 6 10 C6 11.32 6 12.64 6 14 C7.32 14 8.64 14 10 14 C10 14.66 10 15.32 10 16 C10.66 16 11.32 16 12 16 C12 15.34 12 14.68 12 14 C12.66 14 13.32 14 14 14 C14 15.32 14 16.64 14 18 C13.34 18 12.68 18 12 18 C12 19.32 12 20.64 12 22 C11.34 22 10.68 22 10 22 C10 22.66 10 23.32 10 24 C9.34 24 8.68 24 8 24 C8 21.36 8 18.72 8 16 C6.68 16 5.36 16 4 16 C4 15.34 4 14.68 4 14 C3.34 14 2.68 14 2 14 C2 12.02 2 10.04 2 8 C1.34 8 0.68 8 0 8 C0 5.36 0 2.72 0 0 Z " fill="#008000" transform="translate(141,141)"/>
<path d="M0 0 C0.66 0 1.32 0 2 0 C2 5.28 2 10.56 2 16 C2.66 16 3.32 16 4 16 C4 18.64 4 21.28 4 24 C4.66 24 5.32 24 6 24 C6 25.32 6 26.64 6 28 C5.34 28 4.68 28 4 28 C4 27.34 4 26.68 4 26 C3.34 26 2.68 26 2 26 C2 23.36 2 20.72 2 18 C1.34 18 0.68 18 0 18 C0 12.06 0 6.12 0 0 Z " fill="#008000" transform="translate(27,73)"/>
<path d="M0 0 C0.66 0 1.32 0 2 0 C2 0.66 2 1.32 2 2 C3.32 2 4.64 2 6 2 C6 2.66 6 3.32 6 4 C6.66 4 7.32 4 8 4 C8 4.66 8 5.32 8 6 C8.66 6 9.32 6 10 6 C10 6.66 10 7.32 10 8 C7.36 8 4.72 8 2 8 C2 7.34 2 6.68 2 6 C1.34 6 0.68 6 0 6 C0 4.02 0 2.04 0 0 Z " fill="#008000" transform="translate(129,157)"/>
<path d="M0 0 C0.66 0 1.32 0 2 0 C2 1.32 2 2.64 2 4 C1.34 4 0.68 4 0 4 C0 4.66 0 5.32 0 6 C0.66 6 1.32 6 2 6 C2 8.64 2 11.28 2 14 C0.68 14 -0.64 14 -2 14 C-2 13.34 -2 12.68 -2 12 C-1.34 12 -0.68 12 0 12 C0 10.68 0 9.36 0 8 C-0.66 8 -1.32 8 -2 8 C-2 6.02 -2 4.04 -2 2 C-1.34 2 -0.68 2 0 2 C0 1.34 0 0.68 0 0 Z " fill="#008000" transform="translate(103,115)"/>
<path d="M0 0 C1.32 0 2.64 0 4 0 C4 0.66 4 1.32 4 2 C3.34 2 2.68 2 2 2 C2 2.66 2 3.32 2 4 C1.34 4 0.68 4 0 4 C0 4.66 0 5.32 0 6 C0.66 6 1.32 6 2 6 C2 6.66 2 7.32 2 8 C0.68 8 -0.64 8 -2 8 C-2 6.02 -2 4.04 -2 2 C-1.34 2 -0.68 2 0 2 C0 1.34 0 0.68 0 0 Z " fill="#008000" transform="translate(125,115)"/>
<path d="M0 0 C0.66 0 1.32 0 2 0 C2 0.66 2 1.32 2 2 C2.66 2 3.32 2 4 2 C4 2.66 4 3.32 4 4 C4.66 4 5.32 4 6 4 C6 5.32 6 6.64 6 8 C5.34 8 4.68 8 4 8 C4 7.34 4 6.68 4 6 C3.34 6 2.68 6 2 6 C2 5.34 2 4.68 2 4 C1.34 4 0.68 4 0 4 C0 2.68 0 1.36 0 0 Z " fill="#008000" transform="translate(87,127)"/>
<path d="M0 0 C1.32 0 2.64 0 4 0 C4 1.32 4 2.64 4 4 C4.66 4 5.32 4 6 4 C6 5.32 6 6.64 6 8 C5.34 8 4.68 8 4 8 C4 7.34 4 6.68 4 6 C3.34 6 2.68 6 2 6 C2 4.68 2 3.36 2 2 C1.34 2 0.68 2 0 2 C0 1.34 0 0.68 0 0 Z " fill="#008000" transform="translate(111,71)"/>
<path d="M0 0 C1.32 0 2.64 0 4 0 C4 1.32 4 2.64 4 4 C3.34 4 2.68 4 2 4 C2 4.66 2 5.32 2 6 C1.34 6 0.68 6 0 6 C0 4.02 0 2.04 0 0 Z " fill="#008000" transform="translate(109,85)"/>
<path d="M0 0 C1.98 0 3.96 0 6 0 C6 1.32 6 2.64 6 4 C5.34 4 4.68 4 4 4 C4 3.34 4 2.68 4 2 C2.68 2 1.36 2 0 2 C0 1.34 0 0.68 0 0 Z " fill="#008000" transform="translate(103,65)"/>
<path d="M0 0 C1.32 0 2.64 0 4 0 C4 1.32 4 2.64 4 4 C2.68 4 1.36 4 0 4 C0 2.68 0 1.36 0 0 Z " fill="#008000" transform="translate(160,15)"/>
<path d="M0 0 C1.32 0 2.64 0 4 0 C4 1.32 4 2.64 4 4 C3.34 4 2.68 4 2 4 C2 3.34 2 2.68 2 2 C1.34 2 0.68 2 0 2 C0 1.34 0 0.68 0 0 Z " fill="#008000" transform="translate(111,151)"/>
<path d="M0 0 C1.32 0 2.64 0 4 0 C4 1.32 4 2.64 4 4 C3.34 4 2.68 4 2 4 C2 3.34 2 2.68 2 2 C1.34 2 0.68 2 0 2 C0 1.34 0 0.68 0 0 Z " fill="#008000" transform="translate(91,147)"/>
<path d="M0 0 C0.66 0 1.32 0 2 0 C2 0.66 2 1.32 2 2 C2.66 2 3.32 2 4 2 C4 2.66 4 3.32 4 4 C2.68 4 1.36 4 0 4 C0 2.68 0 1.36 0 0 Z " fill="#008000" transform="translate(87,133)"/>
<path d="M0 0 C1.32 0 2.64 0 4 0 C4 0.66 4 1.32 4 2 C3.34 2 2.68 2 2 2 C2 2.66 2 3.32 2 4 C1.34 4 0.68 4 0 4 C0 2.68 0 1.36 0 0 Z " fill="#008000" transform="translate(107,127)"/>
<path d="M0 0 C0.66 0 1.32 0 2 0 C2 0.66 2 1.32 2 2 C2.66 2 3.32 2 4 2 C4 2.66 4 3.32 4 4 C2.68 4 1.36 4 0 4 C0 2.68 0 1.36 0 0 Z " fill="#008000" transform="translate(189,99)"/>
<path d="M0 0 C1.32 0 2.64 0 4 0 C4 0.66 4 1.32 4 2 C2.68 2 1.36 2 0 2 C0 1.34 0 0.68 0 0 Z " fill="#008000" transform="translate(115,155)"/>
<path d="M0 0 C0.66 0 1.32 0 2 0 C2 1.32 2 2.64 2 4 C1.34 4 0.68 4 0 4 C0 2.68 0 1.36 0 0 Z " fill="#008000" transform="translate(105,131)"/>
<path d="M0 0 C0.66 0 1.32 0 2 0 C2 0.66 2 1.32 2 2 C1.34 2 0.68 2 0 2 C0 1.34 0 0.68 0 0 Z " fill="#008000" transform="translate(147,147)"/>
<path d="M0 0 C0.66 0 1.32 0 2 0 C2 0.66 2 1.32 2 2 C1.34 2 0.68 2 0 2 C0 1.34 0 0.68 0 0 Z " fill="#008000" transform="translate(109,147)"/>
<path d="M0 0 C0.66 0 1.32 0 2 0 C2 0.66 2 1.32 2 2 C1.34 2 0.68 2 0 2 C0 1.34 0 0.68 0 0 Z " fill="#008000" transform="translate(107,145)"/>
<path d="M0 0 C0.66 0 1.32 0 2 0 C2 0.66 2 1.32 2 2 C1.34 2 0.68 2 0 2 C0 1.34 0 0.68 0 0 Z " fill="#008000" transform="translate(91,137)"/>
<path d="M0 0 C0.66 0 1.32 0 2 0 C2 0.66 2 1.32 2 2 C1.34 2 0.68 2 0 2 C0 1.34 0 0.68 0 0 Z " fill="#008000" transform="translate(111,133)"/>
<path d="M0 0 C0.66 0 1.32 0 2 0 C2 0.66 2 1.32 2 2 C1.34 2 0.68 2 0 2 C0 1.34 0 0.68 0 0 Z " fill="#008000" transform="translate(85,131)"/>
<path d="M0 0 C0.66 0 1.32 0 2 0 C2 0.66 2 1.32 2 2 C1.34 2 0.68 2 0 2 C0 1.34 0 0.68 0 0 Z " fill="#008000" transform="translate(83,129)"/>
<path d="M0 0 C0.66 0 1.32 0 2 0 C2 0.66 2 1.32 2 2 C1.34 2 0.68 2 0 2 C0 1.34 0 0.68 0 0 Z " fill="#008000" transform="translate(81,127)"/>
<path d="M0 0 C0.66 0 1.32 0 2 0 C2 0.66 2 1.32 2 2 C1.34 2 0.68 2 0 2 C0 1.34 0 0.68 0 0 Z " fill="#008000" transform="translate(205,123)"/>
<path d="M0 0 C0.66 0 1.32 0 2 0 C2 0.66 2 1.32 2 2 C1.34 2 0.68 2 0 2 C0 1.34 0 0.68 0 0 Z " fill="#008000" transform="translate(81,115)"/>
<path d="M0 0 C0.66 0 1.32 0 2 0 C2 0.66 2 1.32 2 2 C1.34 2 0.68 2 0 2 C0 1.34 0 0.68 0 0 Z " fill="#008000" transform="translate(205,111)"/>
<path d="M0 0 C0.66 0 1.32 0 2 0 C2 0.66 2 1.32 2 2 C1.34 2 0.68 2 0 2 C0 1.34 0 0.68 0 0 Z " fill="#008000" transform="translate(91,109)"/>
<path d="M0 0 C0.66 0 1.32 0 2 0 C2 0.66 2 1.32 2 2 C1.34 2 0.68 2 0 2 C0 1.34 0 0.68 0 0 Z " fill="#008000" transform="translate(93,107)"/>
<path d="M0 0 C0.66 0 1.32 0 2 0 C2 0.66 2 1.32 2 2 C1.34 2 0.68 2 0 2 C0 1.34 0 0.68 0 0 Z " fill="#008000" transform="translate(67,107)"/>
<path d="M0 0 C0.66 0 1.32 0 2 0 C2 0.66 2 1.32 2 2 C1.34 2 0.68 2 0 2 C0 1.34 0 0.68 0 0 Z " fill="#008000" transform="translate(95,105)"/>
<path d="M0 0 C0.66 0 1.32 0 2 0 C2 0.66 2 1.32 2 2 C1.34 2 0.68 2 0 2 C0 1.34 0 0.68 0 0 Z " fill="#008000" transform="translate(47,101)"/>
<path d="M0 0 C0.66 0 1.32 0 2 0 C2 0.66 2 1.32 2 2 C1.34 2 0.68 2 0 2 C0 1.34 0 0.68 0 0 Z " fill="#008000" transform="translate(119,97)"/>
<path d="M0 0 C0.66 0 1.32 0 2 0 C2 0.66 2 1.32 2 2 C1.34 2 0.68 2 0 2 C0 1.34 0 0.68 0 0 Z " fill="#008000" transform="translate(83,97)"/>
<path d="M0 0 C0.66 0 1.32 0 2 0 C2 0.66 2 1.32 2 2 C1.34 2 0.68 2 0 2 C0 1.34 0 0.68 0 0 Z " fill="#008000" transform="translate(105,89)"/>
<path d="M0 0 C0.66 0 1.32 0 2 0 C2 0.66 2 1.32 2 2 C1.34 2 0.68 2 0 2 C0 1.34 0 0.68 0 0 Z " fill="#008000" transform="translate(103,87)"/>
<path d="M0 0 C0.66 0 1.32 0 2 0 C2 0.66 2 1.32 2 2 C1.34 2 0.68 2 0 2 C0 1.34 0 0.68 0 0 Z " fill="#008000" transform="translate(39,85)"/>
<path d="M0 0 C0.66 0 1.32 0 2 0 C2 0.66 2 1.32 2 2 C1.34 2 0.68 2 0 2 C0 1.34 0 0.68 0 0 Z " fill="#008000" transform="translate(73,83)"/>
<path d="M0 0 C0.66 0 1.32 0 2 0 C2 0.66 2 1.32 2 2 C1.34 2 0.68 2 0 2 C0 1.34 0 0.68 0 0 Z " fill="#008000" transform="translate(89,77)"/>
<path d="M0 0 C0.66 0 1.32 0 2 0 C2 0.66 2 1.32 2 2 C1.34 2 0.68 2 0 2 C0 1.34 0 0.68 0 0 Z " fill="#008000" transform="translate(109,69)"/>
<path d="M0 0 C0.66 0 1.32 0 2 0 C2 0.66 2 1.32 2 2 C1.34 2 0.68 2 0 2 C0 1.34 0 0.68 0 0 Z " fill="#008000" transform="translate(39,69)"/>
<path d="M0 0 C0.66 0 1.32 0 2 0 C2 0.66 2 1.32 2 2 C1.34 2 0.68 2 0 2 C0 1.34 0 0.68 0 0 Z " fill="#008000" transform="translate(81,61)"/>
<path d="M0 0 C0.66 0 1.32 0 2 0 C2 0.66 2 1.32 2 2 C1.34 2 0.68 2 0 2 C0 1.34 0 0.68 0 0 Z " fill="#008000" transform="translate(99,45)"/>
</svg>
